<?xml version="1.0" standalone="no"?>
<!DOCTYPE svg PUBLIC "-//W3C//DTD SVG 20010904//EN"
 "http://www.w3.org/TR/2001/REC-SVG-20010904/DTD/svg10.dtd">
<svg version="1.0" xmlns="http://www.w3.org/2000/svg"
 width="700.000000pt" height="700.000000pt" viewBox="0 0 700.000000 700.000000"
 preserveAspectRatio="xMidYMid meet">
<metadata>
Created by potrace 1.14, written by Peter Selinger 2001-2017
</metadata>
<g transform="translate(0.000000,700.000000) scale(0.100000,-0.100000)"
fill="#000000" stroke="none">
<path d="M2403 6924 c-6 -17 -9 -794 -3 -795 3 -1 499 -2 1103 -3 l1097 -1 1
275 c1 410 -1 523 -7 529 -3 3 -496 6 -1096 6 -811 0 -1092 -3 -1095 -11z"/>
<path d="M3335 5873 c-11 -1 -76 -7 -145 -14 -69 -6 -134 -13 -145 -15 -11 -3
-58 -11 -104 -20 -46 -8 -87 -17 -91 -19 -4 -2 -21 -7 -38 -10 -68 -12 -273
-79 -386 -126 -377 -158 -666 -350 -942 -624 -250 -248 -432 -503 -581 -815
-110 -230 -192 -480 -228 -692 -3 -18 -8 -40 -10 -48 -2 -8 -6 -37 -9 -65 -3
-27 -8 -70 -11 -95 -3 -25 -8 -67 -10 -95 -6 -64 -7 -422 -1 -455 3 -14 7 -56
11 -95 26 -287 113 -597 250 -892 325 -698 939 -1247 1683 -1504 63 -21 124
-41 136 -44 11 -3 66 -16 121 -29 106 -26 131 -31 204 -42 25 -4 55 -8 66 -11
125 -24 723 -23 797 2 7 2 31 7 53 10 22 3 56 8 75 11 27 4 126 26 220 49 42
11 114 33 194 62 815 290 1458 920 1753 1718 59 158 107 332 128 457 3 18 8
44 10 58 6 31 13 86 21 165 3 33 8 71 10 85 6 34 5 362 0 430 -7 77 -17 171
-21 200 -24 155 -27 167 -50 265 -9 39 -18 78 -20 88 -11 51 -62 206 -102 307
-67 170 -163 354 -269 512 -52 78 -94 143 -94 145 0 2 110 115 245 249 l245
246 -284 284 c-156 156 -288 284 -293 284 -4 0 -118 -110 -252 -244 l-244
-244 -53 38 c-343 254 -798 439 -1239 504 -159 23 -229 28 -415 30 -91 1 -174
1 -185 -1z m405 -927 c14 -2 45 -7 70 -10 44 -6 71 -11 120 -21 14 -3 34 -7
45 -9 41 -9 193 -56 243 -75 373 -147 709 -425 937 -775 62 -95 166 -305 186
-376 7 -25 16 -49 20 -55 13 -19 68 -265 74 -335 2 -19 6 -54 9 -77 14 -88 8
-411 -9 -503 -1 -8 -6 -35 -10 -60 -11 -65 -11 -67 -34 -157 -133 -517 -506
-978 -996 -1227 -118 -61 -281 -125 -357 -140 -13 -3 -63 -14 -113 -25 -261
-57 -564 -58 -846 -1 -368 75 -677 242 -960 520 -328 323 -520 724 -564 1180
-12 125 -7 392 10 490 44 263 77 374 170 568 147 306 400 593 695 789 177 117
419 223 595 259 11 2 31 6 45 9 63 13 132 23 240 35 68 7 387 4 430 -4z"/>
<path d="M3100 3599 l0 -887 400 1 400 0 -2 886 -3 886 -397 0 -398 0 0 -886z"/>
</g>
</svg>
