<?xml version="1.0" standalone="no"?>
<!DOCTYPE svg PUBLIC "-//W3C//DTD SVG 20010904//EN"
 "http://www.w3.org/TR/2001/REC-SVG-20010904/DTD/svg10.dtd">
<svg version="1.0" xmlns="http://www.w3.org/2000/svg"
 width="300.000000pt" height="300.000000pt" viewBox="0 0 300.000000 300.000000"
 preserveAspectRatio="xMidYMid meet">
<metadata>
Created by potrace 1.14, written by Peter Selinger 2001-2017
</metadata>
<g transform="translate(0.000000,300.000000) scale(0.100000,-0.100000)"
fill="#000000" stroke="none">
<path d="M2009 2985 c-1 -5 -1 -14 0 -18 1 -5 -3 -6 -9 -2 -6 3 -8 11 -4 16 5
8 -35 7 -56 -1 -3 -1 -9 -2 -14 -1 -19 4 -46 -11 -39 -22 4 -7 -1 -6 -10 2
-25 20 -21 1 12 -52 17 -25 24 -44 16 -41 -7 3 -16 1 -20 -5 -3 -6 -12 -11
-18 -11 -7 0 -4 5 6 11 22 13 22 22 -5 64 -22 33 -48 47 -48 24 0 -5 -4 -8 -9
-4 -5 3 -12 1 -16 -5 -4 -6 -10 -8 -15 -5 -5 3 -11 1 -15 -5 -4 -6 -11 -7 -17
-4 -7 4 -8 2 -4 -4 4 -6 12 -10 19 -8 7 1 9 1 4 -1 -4 -3 -4 -9 -1 -15 4 -5
-6 -2 -22 8 -19 13 -25 14 -19 5 6 -11 4 -13 -8 -8 -19 7 -22 -4 -7 -19 15
-15 -21 -15 -39 0 -12 9 -13 8 -6 -3 6 -11 4 -13 -7 -9 -9 4 -28 -5 -45 -21
-16 -15 -35 -25 -41 -23 -7 2 -12 -1 -12 -7 0 -6 6 -11 13 -11 8 0 7 -3 -3
-10 -8 -5 -17 -5 -20 0 -3 4 -15 0 -27 -10 -12 -9 -19 -20 -16 -24 3 -3 12 2
20 12 13 16 13 15 4 -3 -6 -11 -15 -27 -22 -35 -9 -13 -10 -12 -5 3 7 22 0 22
-31 -3 -14 -11 -22 -20 -18 -20 4 0 -9 -14 -29 -32 -36 -32 -49 -62 -22 -52 9
3 12 13 9 22 -5 14 -4 15 8 4 12 -11 11 -15 -3 -26 -10 -7 -14 -17 -10 -22 4
-4 -1 -2 -10 5 -22 16 -41 5 -33 -20 5 -15 3 -18 -12 -12 -10 3 -15 3 -11 -1
4 -5 -2 -17 -12 -28 -18 -20 -18 -21 1 -41 23 -25 24 -36 4 -43 -8 -4 -12 -10
-9 -16 3 -5 -3 -4 -15 3 -22 14 -9 31 17 22 12 -5 12 -2 2 16 -11 21 -35 25
-35 5 0 -5 -4 -15 -9 -23 -6 -9 -4 -18 7 -26 10 -7 17 -18 17 -24 0 -7 4 -10
9 -7 5 3 11 -1 15 -9 8 -22 -2 -18 -30 12 -17 19 -28 23 -35 16 -8 -8 -7 -13
2 -18 8 -6 10 -4 4 5 -5 9 -4 11 4 6 6 -4 9 -11 6 -16 -3 -4 1 -11 7 -13 9 -4
10 -6 1 -6 -6 -1 -15 4 -18 9 -5 7 -11 8 -19 1 -6 -5 -48 -11 -94 -12 -109 -3
-194 -16 -302 -48 -442 -130 -769 -502 -848 -964 -9 -54 -9 -308 0 -367 33
-211 137 -446 258 -580 18 -19 37 -42 43 -50 26 -33 150 -141 204 -178 122
-83 257 -143 392 -177 103 -26 146 -30 311 -29 176 1 268 18 428 81 348 136
625 453 716 818 24 96 27 114 33 230 3 61 10 115 15 122 5 6 5 13 1 15 -4 3
-2 3 6 1 8 -2 30 2 48 8 27 9 32 14 23 23 -9 8 -14 8 -17 -1 -3 -7 -10 -13
-16 -13 -6 0 -4 7 5 16 12 13 20 14 37 5 17 -10 21 -9 21 4 0 8 5 15 11 15 5
0 7 -5 4 -10 -3 -6 20 7 53 27 33 21 58 41 56 45 -3 4 5 9 16 13 11 3 29 18
40 32 11 14 20 22 20 18 0 -5 9 0 20 10 19 17 19 20 4 43 -9 13 -12 22 -6 18
5 -3 12 1 16 9 6 17 26 20 26 4 0 -5 -4 -8 -9 -5 -5 3 -11 0 -14 -8 -3 -8 0
-17 8 -20 8 -3 17 3 20 15 4 10 11 19 16 19 5 0 9 4 9 9 0 6 11 22 25 37 14
15 25 31 25 36 0 5 7 16 15 25 9 8 13 18 9 22 -4 3 -9 0 -11 -6 -3 -7 -9 -13
-15 -13 -7 0 -6 5 1 14 9 11 6 14 -13 14 -24 0 -25 -1 -11 -29 22 -42 18 -49
-6 -10 -19 31 -19 36 -5 46 9 7 12 15 8 19 -4 4 8 0 26 -11 27 -15 34 -16 41
-4 5 8 7 21 3 29 -3 10 -1 13 6 8 8 -5 10 -1 5 10 -4 12 -3 15 5 10 11 -6 13
-3 12 19 0 3 7 19 16 36 14 29 14 32 -2 50 -9 11 -14 22 -11 25 3 4 1 16 -5
28 -10 19 -10 20 6 7 10 -9 14 -21 10 -34 -4 -14 -3 -17 6 -12 9 6 11 4 5 -6
-5 -8 -4 -11 1 -6 5 5 9 12 9 15 1 4 5 17 9 30 5 15 3 29 -6 39 -8 11 -9 14
-1 10 8 -5 15 3 21 25 10 38 5 51 -9 25 -6 -9 -14 -15 -20 -12 -9 6 -13 -7
-10 -32 1 -6 -3 -14 -7 -17 -15 -9 -11 43 4 55 8 6 14 8 14 3 0 -5 4 -3 9 5 7
10 4 19 -7 28 -23 17 -37 16 -22 -2 7 -9 8 -15 2 -15 -5 0 -12 7 -16 15 -6 18
29 41 39 25 3 -5 3 -10 -2 -10 -8 0 18 -20 27 -20 3 0 4 37 3 83 -1 45 -2 95
-2 110 0 16 -4 34 -8 40 -8 13 -9 19 -11 60 -1 15 -7 27 -13 27 -5 0 -7 -6 -3
-12 5 -9 2 -9 -9 1 -9 7 -17 17 -17 22 0 4 -13 22 -29 40 -32 34 -40 78 -11
56 25 -19 26 -20 8 -14 -10 4 -18 2 -18 -3 0 -17 21 -22 38 -9 14 11 15 11 5
-1 -15 -16 -17 -44 -3 -35 5 3 12 -6 16 -20 3 -13 10 -22 16 -19 5 3 6 13 3
23 -4 9 -8 23 -10 32 -8 39 -47 109 -60 109 -8 0 -15 -4 -15 -10 0 -5 -5 -10
-11 -10 -8 0 -9 4 0 13 12 16 5 27 -18 27 -14 0 -14 -2 -1 -10 8 -5 11 -10 5
-10 -5 0 -16 4 -24 9 -11 7 -9 10 8 16 13 4 28 1 37 -6 8 -6 18 -8 22 -4 4 4
1 10 -5 12 -7 3 -13 11 -13 19 0 7 -9 19 -19 26 -10 6 -17 17 -14 24 2 6 -1
15 -8 20 -8 5 -10 3 -4 -6 5 -9 4 -11 -3 -6 -7 4 -12 16 -12 26 0 10 -13 30
-30 43 -16 14 -30 30 -30 36 0 6 -7 11 -16 11 -8 0 -13 4 -10 9 3 5 -2 15 -11
22 -12 10 -14 10 -9 2 4 -7 2 -13 -3 -13 -6 0 -11 6 -11 13 0 6 -10 20 -23 30
-12 9 -36 28 -52 41 -32 25 -157 96 -169 96 -4 0 -4 -4 -1 -10 3 -5 1 -10 -4
-10 -6 0 -11 7 -11 15 0 9 -6 12 -17 8 -10 -4 -14 -2 -10 4 6 9 -6 13 -46 14
-9 0 -15 4 -13 8 3 4 0 8 -7 9 -7 1 -24 3 -40 6 -19 3 -25 1 -20 -7 3 -7 -2
-4 -13 5 -23 20 -134 31 -134 14 0 -6 -4 -6 -9 2 -10 17 -41 12 -59 -8 -12
-13 -13 -13 -9 1 4 13 -1 16 -19 15 -13 0 -25 -5 -25 -11z m101 -5 c0 -5 -2
-10 -4 -10 -3 0 -8 5 -11 10 -3 6 -1 10 4 10 6 0 11 -4 11 -10z m95 -11 c3 6
12 11 18 10 9 0 8 -2 -1 -6 -6 -2 -9 -10 -6 -15 4 -7 2 -8 -4 -4 -7 4 -12 3
-12 -3 0 -5 6 -12 13 -14 9 -4 9 -6 -1 -6 -7 -1 -15 6 -18 14 -5 12 -9 13 -21
3 -11 -9 -19 -9 -34 0 -18 11 -21 9 -34 -20 -11 -25 -14 -28 -15 -12 0 28 32
58 47 43 13 -13 43 -5 43 10 0 5 -10 7 -22 5 -21 -4 -22 -4 -3 5 14 6 23 5 32
-6 7 -9 13 -11 18 -4z m-189 -15 c15 6 17 5 6 -6 -10 -10 -17 -10 -31 -1 -15
10 -20 9 -25 -2 -3 -8 -11 -15 -18 -14 -10 0 -10 2 0 6 6 2 12 9 12 14 0 6 -5
7 -12 3 -7 -4 -8 -3 -4 5 4 6 12 9 17 6 5 -4 9 -1 9 6 0 7 6 5 14 -6 9 -12 19
-16 32 -11z m-96 -14 c-23 -15 -37 -11 -18 4 10 7 16 15 14 18 -1 3 2 1 8 -4
8 -6 6 -12 -4 -18z m170 20 c0 -5 -4 -10 -10 -10 -5 0 -10 5 -10 10 0 6 5 10
10 10 6 0 10 -4 10 -10z m158 -15 c0 -14 -4 -28 -9 -30 -6 -4 -6 39 0 53 4 9
9 -2 9 -23z m76 12 c4 4 4 -1 0 -10 -3 -10 -7 -17 -8 -15 -1 2 -8 12 -16 23
-14 18 -13 19 1 8 9 -7 19 -10 23 -6z m-256 -42 c-2 -12 -7 -7 -15 16 -12 30
-11 32 3 17 9 -8 14 -23 12 -33z m-237 -16 c-9 -16 -18 -24 -20 -18 -1 5 4 18
12 27 8 9 12 24 10 32 -4 12 -3 12 5 1 7 -9 4 -23 -7 -42z m456 45 c-3 -3 -12
-4 -19 -1 -8 3 -5 6 6 6 11 1 17 -2 13 -5z m-244 -24 c3 -11 1 -20 -4 -20 -5
0 -9 9 -9 20 0 11 2 20 4 20 2 0 6 -9 9 -20z m87 0 c0 -11 -4 -20 -9 -20 -5 0
-7 9 -4 20 3 11 7 20 9 20 2 0 4 -9 4 -20z m207 -27 c-11 -12 -16 -12 -22 -2
-5 8 -4 10 3 5 12 -7 16 4 13 34 -1 11 2 10 10 -4 9 -14 8 -21 -4 -33z m33 37
c0 -5 -2 -10 -4 -10 -3 0 -8 5 -11 10 -3 6 -1 10 4 10 6 0 11 -4 11 -10z
m-555 -10 c-3 -5 -11 -10 -16 -10 -6 0 -7 5 -4 10 3 6 11 10 16 10 6 0 7 -4 4
-10z m115 0 c0 -5 -8 -10 -17 -10 -15 0 -16 2 -3 10 19 12 20 12 20 0z m63 -2
c4 -10 8 -9 16 2 7 9 11 10 11 3 0 -6 -4 -14 -9 -17 -12 -8 -41 3 -41 15 0 13
18 11 23 -3z m176 2 c6 8 13 11 18 7 8 -9 -17 -28 -31 -24 -6 2 -11 10 -14 18
-3 11 -2 11 7 -1 10 -13 12 -13 20 0z m149 -5 c4 -4 -4 -4 -16 0 l-24 7 19
-28 c10 -16 13 -25 7 -21 -7 4 -14 0 -18 -8 -3 -8 -11 -15 -18 -14 -10 0 -10
2 0 6 6 2 12 9 12 14 0 6 -5 7 -12 3 -7 -4 -8 -3 -4 4 4 7 2 12 -3 12 -6 0
-11 5 -11 12 0 6 9 3 20 -7 24 -21 27 -9 4 16 -15 16 -14 17 10 15 15 -2 30
-7 34 -11z m82 0 c4 3 13 -2 20 -10 9 -10 9 -15 1 -15 -6 0 -11 6 -11 13 -1 6
-7 1 -14 -11 -12 -23 -13 -23 -13 10 0 18 2 27 5 20 2 -6 7 -10 12 -7z m-531
-19 c9 -11 9 -16 0 -22 -8 -4 -9 -3 -5 4 4 7 2 12 -3 12 -6 0 -11 5 -11 10 0
14 5 13 19 -4z m97 -1 c4 -8 11 -12 16 -9 6 4 2 -6 -8 -21 l-18 -28 24 8 c14
4 22 4 18 0 -11 -11 -59 -15 -52 -4 3 5 0 9 -5 9 -6 0 -11 5 -11 11 0 8 5 8
15 -1 18 -15 20 1 3 19 -10 11 -10 13 0 7 6 -4 12 -3 12 3 0 5 -6 12 -12 14
-10 4 -10 6 0 6 7 1 15 -6 18 -14z m266 -2 c10 -9 18 -21 18 -27 0 -6 -5 -3
-11 7 -8 14 -14 16 -25 6 -8 -6 -14 -16 -14 -21 0 -6 7 -5 15 2 10 9 15 9 15
1 0 -6 -5 -11 -11 -11 -5 0 -8 -4 -5 -9 7 -11 -41 -7 -52 4 -4 4 4 4 18 0 l24
-8 -18 28 c-10 15 -14 25 -8 21 5 -3 12 1 16 9 7 19 15 19 38 -2z m136 -9 c0
-17 -3 -22 -8 -13 -5 6 -6 18 -3 26 8 19 11 16 11 -13z m126 11 c11 -8 16 -18
12 -22 -4 -4 -12 0 -17 10 -6 9 -14 15 -20 12 -5 -4 -9 -1 -9 4 0 15 11 13 34
-4z m-707 -17 c-3 -8 -6 -5 -6 6 -1 11 2 17 5 13 3 -3 4 -12 1 -19z m143 12
c0 -5 -2 -10 -4 -10 -3 0 -8 5 -11 10 -3 6 -1 10 4 10 6 0 11 -4 11 -10z m517
-5 c-4 -8 -2 -17 4 -21 6 -3 8 -12 5 -20 -3 -8 -1 -14 4 -14 6 0 10 -5 10 -11
0 -8 -4 -8 -14 0 -11 9 -13 6 -13 -14 0 -25 0 -25 23 -10 13 8 24 12 24 8 0
-5 -10 -14 -22 -22 -19 -12 -23 -11 -33 3 -7 8 -16 12 -20 8 -5 -4 2 8 14 26
16 23 20 37 13 44 -10 10 -6 38 5 38 3 0 3 -7 0 -15z m-707 -15 c-6 -11 -12
-20 -14 -20 -2 0 -2 9 1 20 3 11 9 20 15 20 5 0 4 -9 -2 -20z m309 10 c-6 -5
-18 -6 -26 -3 -19 8 -16 11 13 11 17 0 22 -3 13 -8z m47 -4 c19 -19 18 -32 -1
-16 -12 10 -18 10 -30 0 -18 -15 -20 -5 -2 15 15 18 16 18 33 1z m43 4 c-6 -5
-18 -6 -26 -3 -19 8 -16 11 13 11 17 0 22 -3 13 -8z m-369 -10 c0 -5 -5 -10
-11 -10 -5 0 -7 5 -4 10 3 6 8 10 11 10 2 0 4 -4 4 -10z m80 0 c0 -5 -4 -10
-10 -10 -5 0 -10 5 -10 10 0 6 5 10 10 10 6 0 10 -4 10 -10z m678 -12 c-9 -13
-19 -21 -23 -20 -4 2 -12 -2 -17 -10 -7 -10 -8 -9 -4 5 3 9 0 17 -6 17 -6 0
-8 3 -5 6 4 4 12 2 20 -4 10 -8 16 -6 25 9 7 10 15 19 18 19 4 0 0 -10 -8 -22z
m-890 -5 c-9 -10 -13 -25 -10 -33 4 -12 2 -13 -9 -3 -10 10 -9 16 6 33 22 24
34 27 13 3z m398 -4 c14 -16 16 -23 6 -26 -6 -3 -10 -9 -6 -14 3 -5 13 -5 25
1 12 7 26 7 37 2 9 -5 24 -7 32 -5 13 4 13 3 1 -6 -10 -6 -21 -6 -33 0 -12 6
-25 6 -37 0 -14 -8 -22 -6 -35 8 -9 9 -16 22 -16 27 0 5 4 3 9 -5 6 -9 11 -10
15 -3 4 6 -6 18 -21 26 -17 9 -22 15 -12 16 9 0 24 -10 35 -21z m123 14 c-9
-2 -16 -12 -14 -21 1 -9 0 -11 -2 -4 -3 7 -9 10 -14 6 -5 -3 -7 -10 -4 -15 4
-5 1 -9 -4 -9 -16 0 -14 11 6 32 9 10 23 17 32 17 14 -1 14 -2 0 -6z m195 -10
c5 -12 9 -14 18 -5 7 7 19 12 28 12 8 0 2 -7 -14 -15 -16 -9 -30 -14 -30 -13
-1 2 -8 11 -15 21 -7 9 -9 17 -3 17 5 0 13 -8 16 -17z m-676 -7 c-7 -8 -16
-12 -20 -9 -5 2 -8 -1 -8 -8 0 -7 -3 -9 -7 -5 -5 4 1 14 11 22 25 18 41 18 24
0z m23 -9 c-6 -8 -10 -21 -8 -28 2 -8 2 -11 0 -6 -6 10 -33 9 -33 -1 0 -5 11
-14 25 -20 29 -13 32 -27 9 -36 -19 -7 -34 0 -34 17 0 7 4 6 10 -3 7 -12 12
-12 22 -2 6 6 7 12 2 12 -6 0 -19 6 -29 14 -19 14 -19 15 10 43 30 29 48 35
26 10z m119 13 c8 -5 11 -12 7 -17 -5 -4 -12 -1 -16 6 -5 7 -14 10 -21 6 -8
-5 -6 -11 8 -20 20 -15 38 -15 61 -1 9 6 18 4 26 -7 7 -9 16 -13 20 -9 5 4 1
-4 -8 -17 -8 -13 -13 -30 -10 -39 4 -10 -1 -8 -15 6 -24 24 -30 41 -8 23 11
-9 14 -6 14 13 0 21 -4 24 -18 16 -10 -5 -20 -7 -22 -4 -3 2 -13 -7 -23 -22
-16 -25 -16 -26 -1 -21 18 7 56 -12 56 -27 0 -4 -6 -3 -13 3 -16 12 -27 5 -27
-18 0 -14 2 -14 10 -1 5 8 10 11 10 5 0 -5 -4 -16 -9 -24 -7 -11 -10 -9 -16 8
-4 13 -1 29 7 38 11 15 11 16 -5 10 -27 -10 -38 1 -24 24 10 17 9 23 -13 39
-21 17 -23 21 -10 30 18 12 21 12 40 0z m523 -40 c-3 -3 -8 0 -10 7 -2 7 -10
10 -18 7 -18 -7 -31 16 -14 27 10 6 19 1 31 -14 9 -12 14 -24 11 -27z m75 26
c-10 -7 -17 -15 -15 -17 1 -2 0 -3 -2 -2 -2 1 -12 -2 -22 -8 -18 -9 -18 -11
-1 -36 9 -15 11 -24 5 -20 -7 5 -13 4 -13 -2 0 -6 -5 -11 -11 -11 -8 0 -8 5 1
15 9 11 10 18 1 29 -9 11 -6 18 16 35 15 11 33 25 38 30 6 5 12 7 15 4 3 -3
-3 -10 -12 -17z m122 0 c-10 -12 -8 -21 10 -48 l22 -33 -24 28 c-13 15 -29 27
-36 27 -6 0 -1 10 11 23 24 25 38 27 17 3z m-787 8 c-7 -3 -9 -12 -6 -20 3 -7
9 -11 14 -8 5 3 9 0 9 -5 0 -16 -15 -13 -30 4 -13 16 -6 35 13 34 9 0 9 -2 0
-5z m151 -6 c-5 -8 -2 -9 9 -5 10 3 17 2 17 -4 0 -14 -32 -7 -38 9 -2 6 1 12
8 12 6 0 8 -5 4 -12z m190 4 c2 -4 -4 -8 -14 -8 -10 0 -16 4 -14 8 3 4 9 8 14
8 5 0 11 -4 14 -8z m148 -14 c-7 -7 -12 -8 -12 -2 0 14 12 26 19 19 2 -3 -1
-11 -7 -17z m336 2 c-12 -19 -28 -27 -28 -14 0 6 30 33 38 34 1 0 -3 -9 -10
-20z m-855 -13 c3 -8 2 -20 -3 -26 -5 -9 -7 -4 -7 13 0 29 2 32 10 13z m287
-22 c0 -5 -5 -3 -10 5 -8 13 -10 13 -10 -1 0 -23 11 -30 27 -18 7 6 13 7 13 3
0 -15 -38 -34 -56 -27 -15 5 -15 4 1 -21 10 -15 20 -24 23 -22 2 3 14 0 25 -6
16 -8 19 -8 14 4 -3 8 -2 21 3 27 5 9 8 4 8 -13 0 -30 -12 -41 -30 -29 -7 4
-19 8 -27 10 -18 2 -53 -22 -44 -30 3 -4 1 -7 -5 -7 -19 0 -14 16 11 33 19 13
20 18 10 36 -14 23 -3 34 24 24 16 -6 16 -5 5 10 -8 9 -11 25 -7 38 6 17 9 19
16 8 5 -8 9 -18 9 -24z m151 8 c-12 -20 -14 -14 -5 12 4 9 9 14 11 11 3 -2 0
-13 -6 -23z m126 -9 c1 -20 -1 -24 -6 -15 -5 8 -7 20 -4 28 4 9 0 11 -13 6
-12 -4 -15 -3 -10 6 13 20 31 6 33 -25z m-320 20 c-3 -3 -12 -4 -19 -1 -8 3
-5 6 6 6 11 1 17 -2 13 -5z m241 -1 c-9 -2 -24 -16 -33 -30 -16 -24 -16 -25 3
-19 22 7 39 -8 22 -19 -18 -11 -11 -32 17 -51 15 -9 33 -17 40 -17 7 0 10 -4
7 -9 -3 -4 3 -8 13 -9 10 0 13 -3 6 -6 -7 -2 -32 9 -56 26 -44 30 -60 33 -86
17 -9 -6 -18 -4 -26 7 -7 9 -16 13 -20 9 -5 -4 -1 4 8 17 8 13 13 30 10 39 -4
10 1 8 15 -6 24 -24 30 -41 8 -23 -11 9 -13 6 -13 -13 0 -21 3 -24 17 -16 10
5 20 7 22 4 3 -2 13 7 23 22 16 25 16 26 1 21 -18 -7 -56 12 -56 27 0 4 6 3
14 -3 11 -9 17 -6 30 14 9 14 24 24 34 24 15 -1 15 -2 0 -6z m-598 -13 c0 -5
-4 -10 -10 -10 -5 0 -10 5 -10 10 0 6 5 10 10 10 6 0 10 -4 10 -10z m179 -16
c-6 -8 -15 -12 -18 -8 -3 4 0 9 7 11 6 3 9 10 6 15 -4 7 -2 8 5 4 9 -6 9 -11
0 -22z m132 3 c-10 -9 -11 -8 -5 6 3 10 9 15 12 12 3 -3 0 -11 -7 -18z m348
-26 c0 -11 -4 -9 -11 7 -6 12 -15 22 -20 22 -4 0 -8 5 -8 12 0 6 9 3 20 -7 11
-10 20 -25 19 -34z m59 36 c15 4 15 3 2 -6 -8 -6 -11 -11 -6 -11 5 0 -3 -9
-18 -21 -25 -20 -26 -22 -9 -34 10 -7 15 -17 10 -21 -4 -4 -7 -2 -7 4 0 7 -5
12 -11 12 -5 0 -7 -5 -3 -12 4 -7 3 -8 -4 -4 -7 4 -12 2 -12 -3 0 -6 -5 -11
-12 -11 -6 0 -3 9 7 20 22 24 9 27 -17 3 -10 -9 -18 -12 -18 -7 1 5 19 22 41
37 32 22 39 32 35 50 -3 12 -3 17 0 10 3 -7 13 -9 22 -6z m305 0 c-2 -4 -3
-11 -3 -17 0 -5 -5 -10 -11 -10 -8 0 -8 5 1 15 15 18 -1 20 -19 3 -11 -10 -13
-10 -7 0 4 6 2 12 -3 12 -6 0 -11 -5 -11 -12 0 -6 -3 -9 -6 -5 -3 3 -3 10 0
16 7 11 62 10 59 -2z m-1006 -28 c-8 -21 -13 -26 -15 -15 -2 10 2 23 8 31 18
22 20 18 7 -16z m-27 -11 c0 -5 -7 -3 -15 6 -8 8 -15 18 -15 22 0 3 7 1 15 -6
8 -7 15 -17 15 -22z m150 28 c0 -2 -7 -9 -15 -16 -13 -11 -14 -10 -9 4 5 14
24 23 24 12z m219 0 c-14 -12 -69 -35 -69 -29 0 10 39 30 59 32 8 0 12 -1 10
-3z m124 -3 c-7 -2 -19 -2 -25 0 -7 3 -2 5 12 5 14 0 19 -2 13 -5z m142 -13
c10 -11 15 -23 12 -27 -4 -3 -7 -1 -7 5 0 6 -12 18 -27 26 -17 9 -22 15 -12
16 9 0 24 -9 34 -20z m285 10 c-20 -13 -33 -13 -25 0 3 6 14 10 23 10 15 0 15
-2 2 -10z m-935 -58 c-4 -4 -24 -8 -45 -8 -37 -2 -37 -1 -19 17 22 22 37 26
20 5 -9 -11 -6 -13 14 -13 25 0 25 0 10 23 -22 34 -18 41 6 10 12 -15 18 -30
14 -34z m65 38 c0 -11 -4 -20 -9 -20 -5 0 -7 9 -4 20 3 11 7 20 9 20 2 0 4 -9
4 -20z m691 -7 c-12 -20 -14 -14 -5 12 4 9 9 14 11 11 3 -2 0 -13 -6 -23z m79
17 c13 -8 12 -11 -5 -25 -38 -29 -51 -34 -66 -23 -11 8 -11 9 3 4 9 -3 27 4
40 14 20 17 21 21 8 30 -19 12 0 13 20 0z m-616 -39 c-6 -6 -54 21 -54 30 0 5
13 0 29 -9 16 -9 28 -19 25 -21z m296 27 c0 -4 -9 -8 -20 -8 -11 0 -20 4 -20
8 0 4 9 8 20 8 11 0 20 -4 20 -8z m424 -27 c-6 -6 -54 21 -54 30 0 5 13 0 29
-9 16 -9 28 -19 25 -21z m16 29 c0 -5 -4 -10 -10 -10 -5 0 -10 5 -10 10 0 6 5
10 10 10 6 0 10 -4 10 -10z m60 0 c0 -5 -4 -10 -10 -10 -5 0 -10 5 -10 10 0 6
5 10 10 10 6 0 10 -4 10 -10z m-578 -22 c-7 -7 -12 -8 -12 -2 0 14 12 26 19
19 2 -3 -1 -11 -7 -17z m625 2 c1 -11 -2 -22 -6 -25 -5 -2 -8 7 -8 20 0 30 12
34 14 5z m-894 -4 c9 -7 17 -17 17 -22 0 -4 -5 -3 -12 4 -12 12 -38 -1 -38
-20 0 -6 7 -5 15 2 9 8 15 8 15 2 0 -6 -6 -12 -12 -15 -10 -3 -10 -8 2 -21 13
-16 12 -20 -3 -31 -9 -6 -13 -16 -9 -20 4 -5 -8 2 -25 14 -29 20 -48 42 -23
26 6 -3 10 -1 10 4 0 6 5 11 11 11 8 0 8 -4 0 -14 -9 -11 -6 -13 14 -13 l25 0
-24 43 c-14 25 -21 42 -16 39 4 -3 10 2 14 10 7 18 16 18 39 1z m196 0 c9 -11
9 -16 0 -22 -8 -4 -9 -3 -5 4 4 7 2 12 -3 12 -6 0 -11 5 -11 10 0 14 5 13 19
-4z m273 -3 c-6 -3 -9 -10 -6 -15 4 -7 2 -8 -5 -4 -9 6 -9 11 0 22 6 8 15 12
18 8 3 -4 0 -9 -7 -11z m120 -23 c4 0 8 -6 8 -12 -1 -7 -10 -2 -20 11 -11 13
-20 28 -19 35 0 6 5 1 11 -11 6 -13 15 -23 20 -23z m131 26 c26 -20 21 -29 -7
-11 -23 15 -23 15 -23 -10 0 -20 2 -23 13 -14 9 7 14 8 14 1 0 -6 -4 -12 -10
-14 -6 -2 -6 -9 0 -18 7 -12 11 -10 19 10 9 24 10 24 10 3 1 -13 -4 -23 -10
-23 -5 0 -7 -5 -4 -11 5 -6 16 -4 33 7 15 9 24 13 20 9 -4 -4 0 -14 9 -20 14
-10 15 -16 5 -27 -6 -8 -9 -18 -5 -21 3 -4 1 -7 -6 -7 -7 0 -11 6 -8 14 6 14
-10 36 -26 36 -5 0 -4 -7 3 -15 7 -8 9 -15 5 -15 -9 0 -21 15 -67 79 -17 24
-26 41 -21 38 6 -4 13 0 17 8 7 18 16 18 39 1z m102 -6 c7 -21 0 -40 -16 -40
-5 0 -9 5 -9 11 0 5 5 7 10 4 6 -3 10 0 10 8 0 24 -13 28 -27 7 -8 -11 -22
-20 -31 -19 -13 0 -12 2 4 9 12 4 24 15 27 24 9 22 24 20 32 -4z m131 -4 c28
-19 32 -25 19 -30 -9 -3 -14 -9 -12 -14 3 -4 -1 -18 -9 -32 -9 -18 -13 -20
-14 -8 0 9 5 20 10 23 6 4 8 10 5 15 -3 5 0 12 5 15 7 4 -2 17 -21 31 -42 31
-29 31 17 0z m-1226 -22 c-7 -8 -10 -17 -7 -21 4 -3 2 -13 -3 -23 -8 -14 -5
-17 16 -17 19 0 22 2 13 13 -8 10 -8 14 0 14 6 0 11 -5 11 -11 0 -5 5 -7 10
-4 25 16 6 -6 -22 -26 -18 -12 -30 -19 -26 -14 4 4 0 13 -9 20 -11 8 -13 17
-7 26 5 8 9 19 10 24 3 27 18 58 22 47 2 -7 -2 -19 -8 -28z m598 22 c-7 -8
-15 -12 -17 -11 -5 6 10 25 20 25 5 0 4 -6 -3 -14z m539 8 c-3 -3 -12 -4 -19
-1 -8 3 -5 6 6 6 11 1 17 -2 13 -5z m-987 -40 c0 -3 -6 -1 -13 5 -14 11 -27 5
-27 -11 0 -5 4 -6 10 -3 5 3 2 -7 -8 -24 -18 -31 -30 -34 -17 -4 5 10 9 23 10
28 0 6 5 18 9 27 7 15 10 15 22 3 8 -7 14 -17 14 -21z m29 26 c-6 -5 -18 -6
-26 -3 -19 8 -16 11 13 11 17 0 22 -3 13 -8z m265 -3 c3 3 6 1 6 -5 0 -14 -10
-15 -30 -3 -20 13 -33 3 -17 -13 6 -8 16 -12 21 -9 4 3 1 -6 -8 -19 -9 -14
-13 -27 -10 -31 9 -9 33 16 26 28 -3 6 2 4 11 -3 13 -12 19 -11 37 1 11 7 17
17 13 20 -3 4 -1 7 5 7 19 0 14 -18 -8 -30 -11 -6 -20 -18 -20 -27 0 -15 -1
-15 -13 1 -13 17 -14 17 -28 0 -13 -16 -12 -17 4 -11 10 4 16 3 12 -2 -3 -5 1
-12 7 -14 8 -3 9 -6 2 -6 -6 -1 -23 8 -38 20 -20 16 -24 24 -16 39 7 13 5 21
-7 31 -14 12 -15 11 -9 -11 6 -22 5 -22 -4 -7 -16 26 14 61 40 47 10 -5 20 -6
24 -3z m763 -28 c-1 -10 -5 -19 -10 -19 -5 0 -5 10 -1 22 6 20 5 21 -10 9 -10
-9 -16 -10 -16 -2 0 6 5 11 11 11 5 0 7 6 3 13 -6 9 -3 8 8 -1 9 -7 16 -22 15
-33z m-1010 14 c-9 -2 -15 -8 -12 -13 3 -5 13 -7 23 -4 14 5 14 3 -2 -6 -15
-10 -20 -9 -27 1 -6 10 -9 11 -9 2 0 -7 -5 -13 -12 -13 -6 0 -3 9 7 20 10 11
25 19 34 19 13 -1 13 -2 -2 -6z m130 1 c-3 -3 -12 -4 -19 -1 -8 3 -5 6 6 6 11
1 17 -2 13 -5z m600 0 c-3 -3 -12 -4 -19 -1 -8 3 -5 6 6 6 11 1 17 -2 13 -5z
m230 -14 c33 -26 23 -26 -19 0 -18 11 -27 20 -20 20 8 0 25 -9 39 -20z m-1107
-1 c0 -8 5 -7 15 1 9 7 18 10 22 6 3 -3 0 -6 -8 -6 -12 0 -12 -2 0 -9 9 -6 6
-8 -12 -8 -14 0 -28 6 -31 13 -3 8 -1 14 4 14 6 0 10 -5 10 -11z m252 -3 c6 4
5 -2 -1 -15 -14 -25 -23 -28 -14 -4 4 11 3 14 -5 9 -8 -5 -10 -1 -5 10 4 11 8
13 11 6 2 -7 8 -9 14 -6z m332 -1 c11 -8 15 -15 9 -15 -7 0 -15 5 -18 10 -3 6
-15 10 -26 10 -11 0 -17 -4 -14 -10 3 -5 1 -10 -4 -10 -12 0 -14 13 -4 23 11
11 37 7 57 -8z m253 -17 c-3 -7 -5 -2 -5 12 0 14 2 19 5 13 2 -7 2 -19 0 -25z
m-549 10 c-2 -6 -10 -13 -16 -14 -7 -1 -8 0 -2 3 5 2 8 9 4 14 -3 5 0 9 6 9 7
0 10 -5 8 -12z m258 -18 c21 18 57 -15 44 -40 -6 -11 -5 -21 2 -28 9 -9 9 -12
0 -12 -7 0 -12 5 -12 11 0 5 -5 7 -11 3 -6 -3 -4 5 6 19 16 24 15 26 -4 36
-16 9 -23 7 -35 -11 -10 -14 -16 -17 -16 -8 0 8 -12 25 -27 38 l-28 24 33 -22
c26 -18 36 -20 48 -10z m95 10 c6 0 7 5 4 10 -3 6 -1 10 5 10 7 0 10 -6 7 -12
-2 -7 -12 -12 -21 -12 -9 1 -16 -2 -16 -7 0 -5 -5 -9 -10 -9 -6 0 -5 8 2 20 7
11 14 16 16 10 2 -5 8 -10 13 -10z m129 10 c0 -5 -4 -10 -10 -10 -5 0 -10 5
-10 10 0 6 5 10 10 10 6 0 10 -4 10 -10z m48 -18 c20 -30 11 -28 -17 4 -13 15
-17 24 -10 22 7 -2 19 -14 27 -26z m72 20 c0 -4 -5 -13 -12 -20 -9 -9 -9 -12
0 -12 7 0 12 -5 12 -12 0 -9 -3 -9 -12 0 -14 14 -28 16 -28 4 0 -5 10 -14 23
-20 12 -6 17 -11 11 -11 -5 -1 -19 6 -30 14 -19 15 -19 15 1 31 11 8 19 20 18
25 -2 5 2 9 7 9 6 0 10 -4 10 -8z m125 -2 c4 -6 11 -8 16 -5 5 3 6 -1 2 -10
-4 -12 -8 -13 -13 -5 -4 7 -14 16 -21 21 -9 6 -10 9 -2 9 6 0 15 -5 18 -10z
m55 0 c0 -5 -4 -10 -10 -10 -5 0 -10 5 -10 10 0 6 5 10 10 10 6 0 10 -4 10
-10z m-755 -10 c3 -5 1 -10 -4 -10 -6 0 -11 5 -11 10 0 6 2 10 4 10 3 0 8 -4
11 -10z m940 0 c3 -6 -1 -7 -9 -4 -18 7 -21 14 -7 14 6 0 13 -4 16 -10z
m-1155 -28 c0 -15 -2 -15 -10 -2 -13 20 -13 33 0 25 6 -3 10 -14 10 -23z m596
16 c5 -8 2 -9 -10 -5 -13 5 -17 3 -13 -6 3 -8 1 -20 -4 -28 -5 -9 -7 -4 -5 16
2 17 4 31 5 33 3 7 21 1 27 -10z m97 -33 c-5 -17 -4 -18 11 -6 9 7 16 9 16 5
0 -15 -38 -34 -56 -27 -14 5 -14 3 2 -23 11 -15 14 -25 8 -21 -7 4 -14 0 -18
-8 -3 -8 -11 -15 -18 -14 -10 0 -10 2 0 6 6 2 12 9 12 14 0 6 -5 7 -12 3 -7
-4 -8 -3 -4 4 4 7 2 12 -3 12 -6 0 -11 5 -11 12 0 6 9 3 20 -7 24 -22 27 -9 4
16 -15 17 -14 18 15 14 28 -4 30 -2 21 15 -12 23 -2 59 11 38 5 -7 6 -22 2
-33z m120 32 c3 -8 2 -20 -3 -26 -5 -9 -7 -4 -7 13 0 29 2 32 10 13z m187 2
c0 -5 4 -8 9 -5 11 7 7 -41 -4 -52 -4 -4 -4 4 0 18 l8 24 -28 -18 c-15 -10
-25 -14 -21 -8 3 5 -1 12 -9 16 -8 3 -15 11 -14 18 0 10 2 10 6 1 2 -7 9 -13
14 -13 6 0 7 6 3 13 -6 10 -4 10 7 0 18 -18 34 -16 19 2 -9 10 -9 15 -1 15 6
0 11 -5 11 -11z m120 2 c0 -5 8 -11 18 -13 15 -3 15 -4 1 -10 -9 -4 -20 1 -27
13 -8 12 -8 19 -2 19 5 0 10 -4 10 -9z m-1174 -45 c22 -15 26 -15 49 0 14 9
25 23 25 32 0 10 10 2 25 -19 14 -19 29 -33 33 -31 3 2 8 -2 10 -10 2 -9 0 -8
-7 2 -6 8 -11 11 -11 5 0 -5 -9 1 -19 14 -17 23 -19 23 -45 6 -21 -14 -24 -20
-15 -31 7 -9 8 -14 1 -14 -6 0 -13 6 -16 13 -5 10 -7 10 -12 0 -3 -7 -10 -13
-16 -13 -7 0 -6 5 1 14 9 11 6 17 -15 31 -26 17 -28 17 -45 -6 -10 -13 -19
-19 -19 -14 0 6 -5 3 -11 -5 -9 -13 -10 -13 -6 0 2 8 9 14 14 13 5 -1 18 12
28 28 13 19 21 24 23 15 2 -8 14 -22 28 -30z m434 34 c0 -5 -4 -10 -10 -10 -5
0 -10 5 -10 10 0 6 5 10 10 10 6 0 10 -4 10 -10z m657 -12 c-3 -8 -6 -5 -6 6
-1 11 2 17 5 13 3 -3 4 -12 1 -19z m-829 -10 c-21 -21 -36 -25 -19 -4 9 11 6
14 -13 14 -21 0 -24 -4 -16 -18 5 -10 7 -20 4 -22 -2 -3 7 -13 22 -23 25 -16
26 -16 21 -1 -7 18 12 56 27 56 4 0 3 -6 -3 -13 -12 -16 -5 -27 18 -27 14 0
14 2 1 10 -8 5 -10 10 -5 10 6 0 16 -4 24 -9 11 -7 9 -10 -8 -16 -13 -4 -29
-1 -38 7 -15 11 -16 11 -10 -5 10 -27 -1 -38 -24 -24 -17 10 -23 9 -41 -13
l-20 -25 15 26 c16 27 17 45 4 67 -13 20 0 29 41 29 38 0 38 -1 20 -19z m166
-37 c-7 -7 -33 33 -34 49 0 8 8 2 19 -15 10 -16 17 -32 15 -34z m22 33 c-4 -9
-9 -15 -11 -12 -3 3 -3 13 1 22 4 9 9 15 11 12 3 -3 3 -13 -1 -22z m149 6 c-5
-15 3 -26 34 -47 22 -15 40 -32 41 -37 0 -5 -8 -2 -18 7 -24 22 -38 21 -51 0
-6 -10 -11 -13 -11 -7 0 5 6 16 13 23 10 10 7 16 -12 32 -13 10 -19 19 -15 19
5 0 2 5 -6 11 -13 9 -12 10 3 5 9 -3 17 -1 17 4 0 6 3 10 6 10 3 0 3 -9 -1
-20z m69 2 c-6 -4 -16 -16 -22 -27 -7 -13 -12 -15 -12 -6 0 17 31 54 39 46 3
-4 1 -9 -5 -13z m483 11 c-3 -5 10 -19 29 -33 18 -14 34 -29 34 -34 0 -5 -7
-3 -15 4 -18 15 -20 -1 -2 -19 10 -11 10 -13 0 -7 -7 4 -13 3 -13 -3 0 -5 6
-12 13 -14 9 -4 9 -6 -1 -6 -7 -1 -15 6 -18 14 -4 8 -11 12 -16 9 -6 -4 -2 5
7 20 17 25 16 26 -9 37 -26 12 -31 20 -19 32 9 9 15 9 10 0z m63 -18 c-7 -9
-15 -13 -17 -11 -6 6 20 36 26 30 2 -2 -2 -10 -9 -19z m-1180 5 c0 -5 -4 -10
-10 -10 -5 0 -10 5 -10 10 0 6 5 10 10 10 6 0 10 -4 10 -10z m482 1 c-8 -4
-13 -12 -12 -17 1 -5 -4 -10 -12 -12 -9 -2 -8 0 2 7 8 6 11 11 7 11 -5 0 -5 5
-2 10 3 6 12 10 18 10 8 0 8 -3 -1 -9z m-639 -16 c4 -8 2 -17 -3 -20 -6 -4
-10 -11 -10 -17 0 -7 6 -6 15 2 10 9 15 9 15 1 0 -6 -4 -11 -9 -11 -5 0 -13
-10 -17 -22 -6 -19 -7 -20 -16 -4 -7 12 -5 24 6 42 9 13 12 24 7 24 -5 0 -13
-4 -16 -10 -3 -5 -10 -10 -16 -10 -9 0 21 38 32 39 4 1 9 -6 12 -14z m312 -14
c2 -12 2 -28 -1 -36 -5 -12 -8 -12 -20 0 -19 18 -18 31 1 15 9 -8 15 -9 15 -2
0 6 -4 13 -10 17 -5 3 -7 12 -3 21 7 18 12 14 18 -15z m522 23 c-3 -3 -12 -4
-19 -1 -8 3 -5 6 6 6 11 1 17 -2 13 -5z m164 -14 c-13 -11 -28 -20 -35 -19 -6
0 -1 5 12 11 12 6 22 15 22 20 0 4 6 8 13 8 6 -1 1 -10 -12 -20z m119 -14
c-16 -16 -11 -30 5 -16 19 16 20 3 1 -16 -11 -11 -16 -11 -20 -1 -4 6 -4 1 -2
-12 3 -17 2 -21 -6 -13 -6 6 -7 19 -2 33 9 28 11 34 13 52 1 8 4 7 11 -3 6 -9
6 -18 0 -24z m-1182 -1 c-3 -3 -9 2 -12 12 -6 14 -5 15 5 6 7 -7 10 -15 7 -18z
m762 -10 c0 -5 -5 -3 -10 5 -5 8 -10 20 -10 25 0 6 5 3 10 -5 5 -8 10 -19 10
-25z m91 8 c-12 -20 -14 -14 -5 12 4 9 9 14 11 11 3 -2 0 -13 -6 -23z m457 18
c11 -7 11 -9 -2 -14 -9 -4 -23 -4 -32 0 -13 5 -13 7 -2 14 7 5 15 9 18 9 3 0
11 -4 18 -9z m-1138 -11 c8 -5 11 -10 5 -10 -5 0 -17 5 -25 10 -8 5 -10 10 -5
10 6 0 17 -5 25 -10z m100 0 c-8 -5 -19 -10 -25 -10 -5 0 -3 5 5 10 8 5 20 10
25 10 6 0 3 -5 -5 -10z m319 -12 c12 -19 11 -23 -3 -33 -8 -7 -12 -15 -8 -19
4 -4 -8 0 -25 11 -18 10 -33 22 -33 26 0 5 5 5 10 2 6 -3 10 -1 10 4 0 6 5 11
11 11 8 0 8 -4 0 -14 -9 -11 -6 -13 14 -13 25 0 25 0 10 23 -8 13 -12 24 -8
24 5 0 14 -10 22 -22z m56 -2 c-15 -23 -15 -23 10 -23 20 0 23 2 14 13 -8 10
-8 14 0 14 6 0 11 -4 11 -8 0 -9 15 -12 55 -13 16 0 17 -2 5 -9 -8 -5 -21 -5
-29 0 -10 5 -26 1 -46 -13 -16 -11 -27 -17 -23 -12 4 4 0 13 -8 20 -14 10 -15
14 -3 33 8 12 17 22 22 22 4 0 0 -11 -8 -24z m414 3 c17 12 32 21 32 19 7 -20
6 -57 -2 -52 -5 3 -7 15 -3 26 6 19 5 19 -20 3 -28 -19 -33 -34 -14 -53 7 -7
8 -12 4 -12 -5 0 0 -12 9 -27 10 -16 14 -25 10 -21 -4 4 -14 0 -21 -10 -11
-16 -13 -16 -33 2 -12 11 -21 24 -20 30 0 6 3 6 6 -2 2 -7 13 -17 23 -22 15
-8 18 -5 18 16 0 19 -3 22 -14 13 -8 -6 -14 -8 -14 -4 0 4 7 13 15 19 12 10
12 14 -5 36 -15 19 -22 22 -28 12 -6 -8 -9 -3 -9 17 0 29 0 29 17 8 l17 -20
32 22z m166 11 c-6 -10 7 -14 32 -11 6 1 14 -3 17 -8 8 -12 -35 -11 -51 2 -12
8 -9 27 3 27 3 0 2 -4 -1 -10z m200 0 c3 -5 2 -10 -4 -10 -5 0 -13 5 -16 10
-3 6 -2 10 4 10 5 0 13 -4 16 -10z m-477 -26 c-12 -12 -17 -13 -23 -3 -5 7 -4
10 2 6 6 -4 14 0 17 9 4 9 9 14 13 10 4 -3 0 -14 -9 -22z m394 19 c-6 -2 -9
-10 -5 -16 3 -7 3 -9 -2 -5 -4 4 -17 3 -29 -3 -19 -9 -19 -8 3 10 13 12 28 21
35 20 7 0 6 -2 -2 -6z m-1181 -19 c17 -15 16 -18 -9 -59 -21 -35 -28 -41 -39
-30 -17 18 -17 31 1 16 11 -9 18 -4 34 24 20 32 20 35 4 44 -9 4 -24 6 -32 4
-13 -4 -13 -3 0 6 20 14 20 14 41 -5z m139 5 c13 -9 13 -10 -2 -6 -9 3 -23 0
-32 -6 -14 -11 -14 -15 3 -41 18 -26 20 -27 30 -10 11 21 14 15 5 -10 -9 -24
-20 -20 -42 16 -19 30 -20 34 -5 50 19 21 23 21 43 7z m471 -16 c-12 -20 -14
-14 -5 12 4 9 9 14 11 11 3 -2 0 -13 -6 -23z m207 1 c0 -17 -3 -22 -8 -13 -5
6 -6 18 -3 26 8 19 11 16 11 -13z m-961 10 c-3 -3 -12 -4 -19 -1 -8 3 -5 6 6
6 11 1 17 -2 13 -5z m1120 0 c-3 -3 -12 -4 -19 -1 -8 3 -5 6 6 6 11 1 17 -2
13 -5z m300 -16 c-3 -8 -6 -5 -6 6 -1 11 2 17 5 13 3 -3 4 -12 1 -19z m-1457
2 c0 -5 -7 -10 -16 -10 -9 0 -12 -5 -8 -12 5 -7 3 -8 -6 -3 -10 6 -9 11 5 22
22 16 25 16 25 3z m158 -4 c7 1 8 0 2 -3 -5 -2 -7 -10 -3 -16 3 -6 -4 -3 -16
6 -13 8 -31 13 -40 10 -13 -4 -14 -3 -2 5 8 6 22 7 30 3 9 -5 22 -7 29 -5z
m212 -3 c0 -3 -6 -3 -14 0 -7 3 -24 -2 -37 -10 -12 -9 -19 -12 -16 -6 4 6 4
13 0 16 -5 2 -3 3 3 1 6 -1 17 2 24 6 13 8 40 3 40 -7z m120 -18 c-7 -14 -17
-25 -21 -25 -5 0 0 13 9 29 20 36 31 32 12 -4z m37 13 c-3 -8 -6 -5 -6 6 -1
11 2 17 5 13 3 -3 4 -12 1 -19z m558 12 c-3 -5 -1 -10 4 -10 6 0 11 -5 11 -11
0 -8 -5 -8 -15 1 -13 11 -12 30 1 30 3 0 2 -4 -1 -10z m175 -5 c0 -1 -12 -2
-26 -2 -17 0 -22 2 -13 7 10 7 39 3 39 -5z m-1017 -2 c-7 -2 -19 -2 -25 0 -7
3 -2 5 12 5 14 0 19 -2 13 -5z m211 -22 c-4 -3 -9 0 -11 7 -3 6 -10 9 -15 6
-7 -4 -8 -2 -4 5 6 9 11 9 22 0 8 -6 12 -15 8 -18z m400 0 c-4 -3 -9 0 -11 7
-3 6 -10 9 -15 6 -7 -4 -8 -2 -4 5 6 9 11 9 22 0 8 -6 12 -15 8 -18z m586 19
c0 -5 -4 -10 -10 -10 -5 0 -10 5 -10 10 0 6 5 10 10 10 6 0 10 -4 10 -10z
m-1417 -13 c-21 -12 -23 -14 -23 -39 0 -9 -3 -8 -10 2 -11 17 15 50 39 50 12
-1 10 -4 -6 -13z m537 -8 c0 -5 -8 -9 -17 -8 -11 0 -13 3 -5 6 6 2 9 10 6 15
-4 7 -2 8 4 4 7 -4 12 -11 12 -17z m84 5 c9 -24 7 -31 -4 -14 -9 13 -13 12
-30 -8 -10 -13 -17 -31 -14 -40 5 -14 4 -14 -4 -2 -6 8 -8 19 -4 25 41 62 46
66 56 39z m79 9 c-7 -2 -13 -9 -13 -14 0 -11 23 -7 32 6 4 6 8 2 8 -7 0 -13
-6 -17 -22 -14 -15 2 -29 -6 -41 -21 -15 -19 -22 -21 -33 -12 -11 9 -18 8 -29
-1 -10 -9 -15 -9 -15 -1 0 6 5 11 11 11 6 0 7 6 2 13 -4 6 5 4 20 -5 25 -17
27 -17 36 1 6 10 7 22 3 26 -4 5 -2 5 4 2 7 -4 14 0 18 8 3 8 11 15 18 14 10
0 10 -2 1 -6z m92 -17 c7 3 16 1 19 -5 4 -6 -3 -9 -16 -7 -32 4 -58 16 -58 28
0 5 10 2 21 -6 12 -8 27 -12 34 -10z m166 12 c1 -7 1 -16 0 -20 0 -5 6 -8 15
-8 8 0 13 4 9 9 -3 6 4 15 16 21 12 7 19 8 15 2 -3 -6 0 -13 6 -16 7 -3 3 -3
-10 0 -15 4 -22 1 -20 -8 3 -13 -16 -15 -57 -4 -11 2 -24 5 -30 5 -5 1 -3 6 5
11 9 6 18 6 24 0 16 -16 30 -11 16 5 -9 10 -9 15 -1 15 6 0 12 -6 12 -12z
m161 -1 c-12 -7 -20 -15 -18 -18 3 -3 -4 -5 -15 -6 -19 -2 -18 -1 3 17 13 11
30 19 38 19 9 0 6 -5 -8 -12z m188 -7 c6 -11 16 -18 22 -14 7 4 6 9 -3 15 -24
15 5 9 31 -7 l25 -15 -25 7 c-22 6 -23 5 -11 -10 9 -10 10 -16 2 -16 -6 0 -11
6 -11 13 -1 6 -8 1 -16 -13 -8 -14 -13 -17 -10 -7 6 18 -12 57 -26 57 -5 0 -8
-8 -8 -17 0 -10 -12 -30 -25 -45 -25 -29 -47 -40 -25 -13 15 18 -1 20 -19 3
-11 -10 -13 -10 -7 0 4 6 3 12 -3 12 -5 0 -12 -6 -14 -12 -4 -10 -6 -10 -6 0
-1 7 6 15 14 18 8 4 12 11 9 16 -4 6 5 2 20 -7 l26 -17 15 36 c17 41 29 45 45
16z m-1210 2 c0 -5 -9 -17 -19 -26 -20 -18 -42 -14 -40 7 0 9 2 9 6 0 3 -10
10 -10 24 -2 11 5 17 14 14 20 -4 5 -1 9 4 9 6 0 11 -4 11 -8z m125 -8 c12 16
15 17 15 4 0 -9 5 -18 12 -20 6 -2 -13 -4 -42 -4 -29 0 -48 2 -41 4 6 2 11 11
11 20 0 13 3 12 15 -4 15 -19 15 -19 30 0z m115 12 c0 -3 -4 -8 -10 -11 -5 -3
-10 -1 -10 4 0 6 5 11 10 11 6 0 10 -2 10 -4z m48 -29 c6 3 10 9 6 14 -3 5 0
9 5 9 16 0 13 -16 -5 -31 -14 -11 -18 -11 -29 4 -6 9 -15 14 -19 10 -4 -4 -4
1 0 11 7 18 8 17 18 -1 6 -11 17 -18 24 -16z m787 -14 c-15 -26 -15 -26 -9 -3
6 22 5 23 -10 11 -10 -9 -16 -10 -16 -2 0 10 13 15 33 12 4 0 7 7 8 17 0 9 3
12 5 5 3 -6 -2 -24 -11 -40z m78 40 c-7 -3 -11 -10 -9 -16 1 -7 1 -9 -1 -4 -3
4 -8 5 -11 3 -4 -2 -12 2 -18 8 -9 10 -5 13 20 13 17 0 26 -2 19 -4z m-1223
-13 c0 -5 -2 -10 -4 -10 -3 0 -8 5 -11 10 -3 6 -1 10 4 10 6 0 11 -4 11 -10z
m465 0 c-3 -5 -11 -10 -16 -10 -6 0 -7 5 -4 10 3 6 11 10 16 10 6 0 7 -4 4
-10z m62 -12 c-3 -8 -6 -5 -6 6 -1 11 2 17 5 13 3 -3 4 -12 1 -19z m315 4 c-6
-2 -14 -2 -18 0 -3 2 -12 -8 -19 -22 -8 -14 -14 -19 -15 -11 0 23 30 50 48 43
10 -3 12 -7 4 -10z m266 4 c-7 -8 -15 -12 -17 -11 -5 6 10 25 20 25 5 0 4 -6
-3 -14z m-1088 -42 c0 -2 -8 0 -17 3 -16 6 -16 5 -4 -10 9 -11 10 -17 2 -17
-6 0 -11 5 -11 11 0 5 -5 7 -12 3 -7 -4 -8 -3 -4 4 4 7 3 12 -3 12 -5 0 -12
-6 -14 -12 -4 -10 -6 -10 -6 0 -1 7 6 15 14 18 8 4 12 11 9 16 -4 6 5 2 20 -7
14 -10 26 -19 26 -21z m316 3 c5 -9 4 -9 -7 1 -22 20 -34 14 -14 -8 10 -11 13
-20 7 -20 -7 0 -12 5 -12 11 0 5 -5 7 -12 3 -7 -4 -8 -3 -4 4 4 7 3 12 -3 12
-5 0 -12 -6 -14 -12 -4 -10 -6 -10 -6 0 -1 7 6 15 14 18 8 4 12 11 9 16 -4 6
2 5 14 -1 12 -6 24 -17 28 -24z m89 -8 c16 -30 13 -49 -8 -49 -8 0 -8 3 1 9
10 6 11 13 1 34 -7 15 -16 27 -21 27 -4 0 -8 5 -8 11 0 17 19 0 35 -32z m65
32 c0 -5 6 -11 14 -13 7 -2 -2 -10 -20 -19 -18 -9 -31 -13 -29 -9 3 5 -2 10
-10 14 -8 3 -15 11 -14 18 0 10 2 10 6 1 2 -7 9 -13 14 -13 6 0 7 6 3 13 -6
10 -4 10 7 0 18 -18 34 -16 19 2 -9 10 -9 15 -1 15 6 0 11 -4 11 -9z m225 -11
c-21 -24 -9 -27 16 -4 16 15 17 14 15 -10 -2 -15 -7 -30 -11 -34 -4 -4 -4 4 0
16 l7 24 -28 -19 c-16 -10 -25 -13 -21 -7 4 7 0 14 -8 18 -8 3 -15 11 -14 18
0 10 2 10 6 1 2 -7 9 -13 14 -13 6 0 7 5 3 12 -4 7 -3 8 4 4 7 -4 12 -2 12 3
0 6 5 11 12 11 6 0 3 -9 -7 -20z m158 13 c-7 -2 -13 -9 -13 -14 0 -6 6 -7 13
-3 10 6 10 4 0 -7 -18 -18 -16 -34 2 -19 8 7 15 9 15 5 0 -12 -53 -50 -71 -51
-9 -1 -23 -5 -30 -9 -12 -8 -12 -6 0 8 8 10 19 16 25 14 6 -3 19 0 29 5 17 9
17 11 2 35 -10 14 -13 23 -7 19 5 -3 12 1 16 9 3 8 11 15 18 14 10 0 10 -2 1
-6z m395 -19 c0 -17 -3 -22 -8 -13 -5 6 -6 18 -3 26 8 19 11 16 11 -13z m104
11 l-33 -15 17 -30 c10 -16 21 -30 24 -30 11 0 37 55 33 70 -4 13 -3 13 6 0 7
-11 5 -23 -9 -45 -24 -38 -35 -38 -60 0 -18 27 -18 31 -3 47 9 10 26 18 37 18
16 -1 13 -4 -12 -15z m-605 -17 c-3 -8 -6 -5 -6 6 -1 11 2 17 5 13 3 -3 4 -12
1 -19z m143 12 c0 -5 -4 -10 -10 -10 -5 0 -10 5 -10 10 0 6 5 10 10 10 6 0 10
-4 10 -10z m167 4 c-3 -3 -12 -4 -19 -1 -8 3 -5 6 6 6 11 1 17 -2 13 -5z
m-997 -19 c0 -1 -12 -2 -26 -2 -17 0 -22 2 -13 7 10 7 39 3 39 -5z m79 5 c-6
-5 -18 -6 -26 -3 -9 4 -11 0 -7 -13 6 -15 4 -16 -6 -7 -17 16 -5 31 26 31 17
0 22 -3 13 -8z m87 -2 c4 -5 1 -15 -6 -21 -10 -9 -12 -8 -6 7 4 13 2 17 -7 13
-8 -3 -20 -2 -26 3 -9 5 -4 8 13 8 15 0 29 -5 32 -10z m154 -3 c0 -1 -12 -2
-26 -2 -17 0 -22 2 -13 7 10 7 39 3 39 -5z m273 -38 c-2 -4 -9 -5 -14 -2 -5 4
-9 2 -9 -3 0 -16 13 -22 27 -11 17 15 17 2 0 -16 -11 -11 -16 -10 -26 6 -6 11
-9 24 -6 29 4 6 1 10 -4 10 -6 0 -11 5 -11 11 0 8 6 7 16 -2 15 -12 16 -11 10
11 l-7 25 15 -25 c8 -14 12 -28 9 -33z m254 31 c-3 -8 -6 -5 -6 6 -1 11 2 17
5 13 3 -3 4 -12 1 -19z m55 -18 c4 0 8 -5 8 -12 0 -6 -9 -3 -20 7 -11 10 -20
25 -19 34 0 11 4 9 11 -6 6 -13 15 -23 20 -23z m148 -10 c0 -9 -8 -24 -18 -33
-16 -15 -20 -14 -50 5 -17 11 -32 24 -32 28 0 4 15 17 32 28 30 19 34 20 50 5
10 -9 18 -24 18 -33z m270 40 c0 -5 -10 -10 -22 -9 -22 0 -22 1 -3 9 11 5 21
9 23 9 1 1 2 -3 2 -9z m-575 -10 c3 -5 1 -10 -4 -10 -6 0 -11 5 -11 10 0 6 2
10 4 10 3 0 8 -4 11 -10z m661 -5 c25 -19 14 -19 -22 0 -16 8 -22 15 -13 15 8
0 24 -7 35 -15z m-1553 -12 c-5 -12 -3 -14 7 -8 8 5 11 4 6 -3 -3 -6 -2 -13 4
-17 5 -3 10 1 10 9 0 19 16 21 26 4 4 -7 4 -10 -1 -6 -5 5 -15 -1 -22 -12 -13
-19 -40 -19 -28 0 3 4 0 10 -7 12 -11 4 -5 38 6 38 3 0 2 -7 -1 -17z m278 1
c15 -13 16 -20 6 -36 -10 -16 -9 -22 7 -34 11 -8 15 -14 9 -14 -7 0 -15 5 -18
10 -4 6 -15 8 -25 5 -10 -3 -21 -1 -25 5 -5 7 -11 5 -20 -7 -7 -10 -17 -15
-21 -10 -4 4 -2 7 4 7 7 0 12 5 12 11 0 5 -5 7 -12 3 -7 -4 -8 -3 -4 4 4 7 2
12 -3 12 -6 0 -11 5 -11 12 0 6 9 3 20 -7 11 -10 20 -13 20 -7 0 6 -5 14 -11
17 -13 9 18 45 39 45 9 0 23 -7 33 -16z m319 8 c0 -5 10 -14 23 -20 12 -6 17
-11 11 -11 -7 -1 -22 8 -35 19 -13 10 -18 19 -11 20 6 0 12 -4 12 -8z m60 -2
c-8 -5 -19 -10 -25 -10 -5 0 -3 5 5 10 8 5 20 10 25 10 6 0 3 -5 -5 -10z m660
2 c0 -5 10 -14 23 -20 12 -6 17 -11 11 -11 -7 -1 -22 8 -35 19 -13 10 -18 19
-11 20 6 0 12 -4 12 -8z m-1190 -12 c-7 -4 -10 -15 -7 -24 9 -23 2 -20 -15 7
-14 21 -14 22 10 24 16 1 21 -2 12 -7z m42 -4 c5 4 2 -5 -7 -20 -10 -15 -20
-24 -23 -21 -3 3 -1 10 5 16 6 6 10 17 9 23 -2 6 -1 8 1 3 3 -4 9 -4 15 -1z
m281 7 c-15 -5 -18 -33 -4 -33 5 0 13 9 16 21 4 11 9 18 12 16 6 -7 -16 -47
-26 -47 -5 0 -15 10 -23 23 -14 21 -14 22 11 23 14 1 20 -1 14 -3z m125 -28
c0 -14 -4 -25 -8 -25 -14 0 -32 29 -27 42 3 8 6 6 6 -5 1 -10 5 -16 11 -12 5
3 6 13 3 22 -4 10 -2 14 4 10 6 -4 11 -18 11 -32z m109 21 c-3 -8 -1 -17 6
-20 7 -3 2 -3 -10 0 -16 4 -27 -3 -45 -27 -13 -17 -22 -35 -20 -40 1 -5 -2 -9
-8 -9 -5 0 -10 4 -10 9 0 6 5 13 10 16 6 3 10 11 10 17 0 6 -9 3 -20 -7 -11
-10 -20 -13 -20 -7 0 7 5 12 11 12 5 0 7 5 3 12 -4 7 -3 8 4 4 7 -4 12 -2 12
3 0 6 -5 11 -12 11 -6 0 -8 3 -4 7 4 5 14 0 21 -10 12 -17 14 -16 33 7 10 14
22 22 26 19 3 -3 6 -1 6 5 0 7 3 12 6 12 3 0 4 -6 1 -14z m181 5 c11 -7 11 -9
-2 -14 -9 -4 -23 -4 -32 0 -13 5 -13 7 -2 14 7 5 15 9 18 9 3 0 11 -4 18 -9z
m509 3 c-3 -3 -12 -4 -19 -1 -8 3 -5 6 6 6 11 1 17 -2 13 -5z m37 -27 c7 -6 6
-7 -4 -4 -8 2 -16 12 -17 23 -2 13 -1 15 4 4 3 -8 11 -19 17 -23z m93 11 c-3
-8 -6 -5 -6 6 -1 11 2 17 5 13 3 -3 4 -12 1 -19z m-1157 -13 c19 -36 8 -40
-12 -4 -9 16 -14 29 -9 29 4 0 14 -11 21 -25z m25 15 c3 -5 2 -10 -4 -10 -5 0
-13 5 -16 10 -3 6 -2 10 4 10 5 0 13 -4 16 -10z m410 0 c-6 -10 7 -14 32 -11
6 1 14 -3 17 -8 8 -12 -35 -11 -51 2 -12 8 -9 27 3 27 3 0 2 -4 -1 -10z m229
-2 c-3 -5 -15 -6 -26 -2 -19 6 -19 5 -3 -20 21 -31 28 -32 66 -5 34 24 47 19
47 -17 0 -17 -3 -22 -8 -13 -5 6 -6 19 -3 27 8 19 -51 -11 -83 -44 -13 -13
-24 -20 -24 -16 0 5 5 13 11 19 9 9 6 19 -9 41 -12 16 -19 32 -16 34 9 10 54
6 48 -4z m236 2 c0 -5 -4 -10 -10 -10 -5 0 -10 5 -10 10 0 6 5 10 10 10 6 0
10 -4 10 -10z m48 -15 c0 -14 -4 -28 -9 -30 -6 -4 -6 39 0 53 4 9 9 -2 9 -23z
m-1208 1 c-1 -5 4 -12 10 -16 8 -5 7 -9 -3 -13 -10 -4 -14 0 -12 11 1 9 -3 21
-9 25 -7 6 -7 7 2 5 8 -2 13 -7 12 -12z m320 0 c-1 -5 4 -13 12 -17 10 -7 10
-9 1 -9 -7 0 -13 -4 -13 -10 0 -5 8 -7 18 -3 13 5 14 3 5 -7 -16 -18 -34 -3
-29 25 3 13 0 26 -5 29 -5 2 -5 4 2 3 6 -2 10 -6 9 -11z m947 -28 c-14 -18
-26 -36 -27 -40 0 -4 -3 -15 -7 -24 -4 -11 1 -22 12 -30 10 -8 14 -14 9 -14
-6 0 -16 6 -23 13 -10 10 -16 7 -32 -12 -10 -13 -19 -19 -19 -15 0 5 -5 2 -11
-6 -9 -13 -10 -13 -6 2 3 9 1 19 -6 22 -7 3 -2 3 10 0 16 -4 28 3 45 26 13 18
23 35 24 38 0 4 4 16 9 26 6 14 3 23 -10 32 -10 8 -14 14 -9 14 6 0 16 -6 23
-12 11 -11 15 -10 24 4 6 9 13 15 15 13 2 -2 -7 -19 -21 -37z m-1045 15 c-6
-3 -9 -10 -6 -15 4 -7 2 -8 -5 -4 -9 6 -9 11 0 22 6 8 15 12 18 8 3 -4 0 -9
-7 -11z m221 4 c3 -8 2 -20 -3 -26 -5 -9 -7 -4 -7 13 0 29 2 32 10 13z m446
-41 c0 -6 -5 -1 -11 12 -6 12 -15 22 -20 22 -4 0 -8 6 -8 13 1 6 10 1 20 -12
11 -13 20 -28 19 -35z m61 50 c0 -2 -6 -9 -14 -15 -11 -9 -16 -9 -22 0 -4 8
-3 9 4 5 7 -4 12 -2 12 3 0 6 5 11 10 11 6 0 10 -2 10 -4z m181 -45 c-6 -10
-7 -22 -3 -26 4 -5 2 -5 -5 -2 -6 4 -13 4 -16 0 -2 -5 -2 -2 -1 5 2 6 -1 12
-6 12 -6 0 -10 5 -10 11 0 8 6 7 17 -2 15 -12 16 -12 10 4 -3 9 -4 24 0 33 5
15 7 15 15 0 5 -9 5 -23 -1 -35z m319 3 c0 -3 -4 -2 -10 1 -5 3 -10 1 -10 -4
0 -6 -5 -11 -11 -11 -8 0 -8 4 0 14 9 11 6 14 -14 14 -25 0 -25 -1 -10 -24 22
-35 18 -41 -7 -9 -20 25 -20 29 -5 40 9 7 13 16 9 20 -4 5 8 -2 26 -14 17 -12
32 -25 32 -27z m-1477 15 c-8 -8 -13 -7 -18 2 -5 8 -4 10 3 5 7 -4 12 -2 12 5
0 7 3 9 7 6 4 -4 2 -12 -4 -18z m324 -1 c-3 -8 -6 -5 -6 6 -1 11 2 17 5 13 3
-3 4 -12 1 -19z m880 16 c-3 -3 -12 -4 -19 -1 -8 3 -5 6 6 6 11 1 17 -2 13 -5z
m-757 -13 c0 -5 -9 -7 -20 -4 -11 3 -20 7 -20 9 0 2 9 4 20 4 11 0 20 -4 20
-9z m206 -3 c4 -5 1 -15 -6 -21 -10 -9 -12 -8 -6 7 4 13 2 17 -7 13 -8 -3 -20
-2 -26 3 -9 5 -4 8 13 8 15 0 29 -5 32 -10z m84 -3 c0 -1 -12 -2 -26 -2 -17 0
-22 2 -13 7 10 7 39 3 39 -5z m150 0 c0 -1 -12 -2 -26 -2 -17 0 -22 2 -13 7
10 7 39 3 39 -5z m190 -8 c11 -5 9 -6 -4 -4 -11 1 -21 9 -23 17 -3 10 -2 11 4
4 4 -6 15 -14 23 -17z m179 -3 c-6 -8 -15 -12 -18 -8 -3 4 0 9 7 11 6 3 9 10
6 15 -4 7 -2 8 5 4 9 -6 9 -11 0 -22z m117 14 c3 -5 1 -15 -5 -22 -6 -7 -8
-16 -4 -19 3 -4 1 -7 -5 -7 -15 0 -15 6 -1 32 9 17 9 20 -3 15 -8 -3 -21 -2
-27 3 -9 5 -4 8 13 8 15 0 29 -5 32 -10z m-1256 -8 c0 -5 -4 -10 -10 -10 -5 0
-10 5 -10 10 0 6 5 10 10 10 6 0 10 -4 10 -10z m160 0 c0 -5 -4 -10 -10 -10
-5 0 -10 5 -10 10 0 6 5 10 10 10 6 0 10 -4 10 -10z m155 -18 c-10 -2 -25 3
-33 12 -15 14 -13 15 17 3 23 -8 28 -13 16 -15z m-341 2 c3 -8 2 -12 -4 -9 -6
3 -10 10 -10 16 0 14 7 11 14 -7z m395 -1 c-24 -31 -40 -46 -44 -41 -6 5 38
58 49 58 5 0 2 -8 -5 -17z m138 -3 c33 -26 23 -26 -19 0 -18 11 -27 20 -20 20
8 0 25 -9 39 -20z m183 -6 c13 -32 12 -37 0 -29 -5 3 -10 15 -10 26 0 23 -15
25 -24 4 -3 -8 -10 -15 -16 -15 -5 0 -2 9 7 20 23 26 32 25 43 -6z m210 -5 c0
-23 15 -25 24 -4 3 8 10 15 16 15 6 0 2 -10 -10 -22 -22 -24 -33 -19 -45 21
-5 16 -4 21 4 17 6 -4 11 -16 11 -27z m207 11 c33 -26 23 -26 -19 0 -18 11
-27 20 -20 20 8 0 25 -9 39 -20z m108 10 c8 -13 -5 -13 -25 0 -13 8 -13 10 2
10 9 0 20 -4 23 -10z m-1011 -6 c9 -3 13 -11 9 -17 -4 -7 0 -8 13 -3 16 6 17
5 6 -6 -11 -11 -16 -10 -27 5 -11 15 -17 16 -39 6 -14 -7 -26 -16 -26 -21 0
-4 -5 -8 -10 -8 -6 0 -5 8 2 19 7 11 15 18 18 16 3 -2 12 0 20 6 18 11 15 10
34 3z m362 -9 c-3 -8 -1 -15 4 -15 6 0 10 -5 10 -10 0 -6 -8 -5 -20 2 -11 7
-20 16 -20 21 0 4 5 5 10 2 6 -3 10 -1 10 4 0 6 3 11 6 11 3 0 4 -7 0 -15z
m60 -1 c-6 -6 -14 -10 -18 -8 -3 2 -8 1 -11 -3 -2 -5 -2 -3 -1 4 2 6 -2 13 -9
16 -7 2 2 4 19 4 25 0 29 -3 20 -13z m102 4 c9 -9 12 -9 12 0 0 7 5 12 11 12
8 0 8 -5 -1 -15 -7 -8 -16 -13 -20 -10 -5 3 -10 2 -13 -2 -2 -5 -2 -3 -1 4 2
6 -2 14 -9 17 -7 2 -7 5 -1 5 5 1 15 -4 22 -11z m42 -13 c-10 -12 -10 -19 -2
-27 7 -7 12 -17 12 -22 0 -6 -5 -3 -11 7 -13 22 -25 22 -60 -4 -34 -24 -46
-19 -46 17 0 17 2 22 7 13 5 -6 6 -19 2 -27 -7 -20 76 26 92 50 5 9 12 15 15
13 2 -3 -2 -12 -9 -20z m97 11 c-3 -8 -1 -16 6 -19 7 -2 -2 -4 -19 -4 -25 0
-29 3 -20 13 6 6 14 10 19 7 4 -2 7 1 7 6 0 6 3 11 6 11 3 0 4 -6 1 -14z m120
0 c-3 -8 -1 -16 6 -19 7 -2 -2 -4 -19 -4 -25 0 -29 3 -20 13 6 6 14 10 19 7 4
-2 7 1 7 6 0 6 3 11 6 11 3 0 4 -6 1 -14z m-927 -6 c0 -5 -4 -10 -10 -10 -5 0
-10 5 -10 10 0 6 5 10 10 10 6 0 10 -4 10 -10z m38 -2 c-2 -6 -10 -13 -16 -14
-7 -1 -8 0 -2 3 5 2 8 9 4 14 -3 5 0 9 6 9 7 0 10 -5 8 -12z m209 -1 c7 0 10
-4 7 -9 -3 -4 -15 -3 -27 3 -30 16 -37 24 -12 14 11 -4 25 -8 32 -8z m112 -36
c-1 -13 -2 -13 -6 2 -2 9 -8 15 -12 13 -4 -3 -13 -1 -21 5 -11 6 -12 9 -2 9 8
0 10 5 6 13 -4 6 2 3 14 -7 12 -11 21 -26 21 -35z m51 39 c0 -5 -4 -10 -10
-10 -5 0 -10 5 -10 10 0 6 5 10 10 10 6 0 10 -4 10 -10z m622 -10 c18 -11 27
-20 20 -20 -8 0 -25 9 -39 20 -33 26 -23 26 19 0z m120 0 c18 -11 27 -20 20
-20 -8 0 -25 9 -39 20 -33 26 -23 26 19 0z m86 -8 c20 -30 11 -28 -17 4 -13
15 -17 24 -10 22 7 -2 19 -14 27 -26z m72 20 c0 -4 -5 -13 -12 -20 -9 -9 -9
-12 0 -12 7 0 12 -5 12 -12 0 -9 -3 -9 -12 0 -14 14 -28 16 -28 4 0 -5 10 -14
23 -20 12 -6 17 -11 11 -11 -5 -1 -19 6 -30 14 -19 15 -19 15 1 31 11 8 19 20
18 25 -2 5 2 9 7 9 6 0 10 -4 10 -8z m-1173 -48 c1 -20 -1 -24 -6 -15 -5 8 -6
21 -3 30 5 13 1 13 -23 -3 l-30 -19 19 22 c25 27 40 22 43 -15z m79 21 c4 -8
11 -12 16 -9 6 4 2 -6 -7 -20 -14 -20 -15 -30 -6 -39 8 -8 11 -7 11 6 0 9 5
17 10 17 6 0 9 5 8 11 -2 6 3 13 10 15 7 1 8 0 2 -3 -5 -2 -8 -8 -6 -12 3 -4
-6 -20 -20 -37 -14 -16 -23 -23 -19 -16 3 6 1 12 -4 12 -6 0 -11 7 -11 15 0 8
-4 15 -10 15 -5 0 -10 5 -10 11 0 8 5 8 15 -1 8 -7 15 -8 15 -2 0 15 -26 33
-36 24 -4 -4 -2 1 5 11 16 21 30 22 37 2z m224 4 c0 -5 5 -7 12 -3 7 4 8 3 4
-4 -4 -7 -3 -12 3 -12 5 0 12 6 14 13 4 9 6 9 6 -1 1 -7 -6 -15 -14 -18 -8 -4
-12 -11 -8 -18 4 -6 -6 -3 -21 8 -26 16 -28 16 -23 2 7 -18 -12 -56 -27 -56
-4 0 -2 7 5 16 12 15 11 16 -6 11 -11 -4 -26 -3 -33 2 -21 13 15 23 38 11 17
-9 19 -7 15 21 -4 29 -3 30 14 15 25 -23 38 -20 16 4 -10 11 -13 20 -7 20 7 0
12 -5 12 -11z m312 -29 c4 0 8 -6 8 -12 -1 -7 -10 -2 -20 11 -11 13 -20 28
-19 35 0 6 5 1 11 -11 6 -13 15 -23 20 -23z m244 24 c-4 -11 -2 -15 7 -11 8 3
20 2 26 -3 9 -5 4 -7 -13 -7 -28 0 -41 11 -31 27 10 16 18 12 11 -6z m116 -1
c-6 -3 -9 -10 -6 -15 4 -7 2 -8 -5 -4 -9 6 -9 11 0 22 6 8 15 12 18 8 3 -4 0
-9 -7 -11z m102 -28 c-6 -15 -8 -15 -16 -2 -4 8 -5 23 -2 32 6 15 8 15 16 2 4
-8 5 -23 2 -32z m119 32 c3 -8 2 -20 -3 -26 -5 -9 -7 -4 -7 13 0 29 2 32 10
13z m-1036 -11 c-3 -7 2 -24 10 -37 9 -12 12 -19 6 -16 -6 4 -13 1 -16 -5 -3
-7 -5 -4 -5 7 1 11 0 25 -2 30 -4 16 -1 35 6 35 3 0 4 -6 1 -14z m90 -8 c-3
-8 -6 -5 -6 6 -1 11 2 17 5 13 3 -3 4 -12 1 -19z m200 2 c3 -10 2 -11 -4 -4
-4 6 -15 14 -23 17 -11 5 -9 6 4 4 11 -1 21 -9 23 -17z m-423 -6 c3 -8 2 -12
-4 -9 -6 3 -10 10 -10 16 0 14 7 11 14 -7z m176 -4 c0 -5 -5 -12 -12 -16 -7
-4 -8 -3 -4 4 4 7 2 12 -3 12 -6 0 -11 4 -11 10 0 5 7 7 15 4 8 -4 15 -10 15
-14z m151 -8 c-6 -11 -7 -23 -3 -27 4 -5 2 -5 -5 -1 -9 5 -10 13 -1 31 6 14
13 23 15 21 3 -2 0 -13 -6 -24z m104 -22 c0 -20 -59 -50 -75 -39 -13 9 -13 10
0 6 15 -4 70 22 70 33 0 3 -14 14 -30 24 l-30 17 -15 -33 c-9 -22 -14 -27 -15
-14 0 11 7 28 17 38 16 17 17 17 47 -2 17 -10 31 -24 31 -30z m194 40 c-6 -5
-18 -6 -26 -3 -19 8 -16 11 13 11 17 0 22 -3 13 -8z m150 0 c-6 -5 -18 -6 -26
-3 -19 8 -16 11 13 11 17 0 22 -3 13 -8z m46 -40 c-3 -6 -1 -10 4 -10 6 0 11
-5 11 -11 0 -8 -6 -7 -16 2 -15 12 -16 11 -10 -11 l7 -25 -15 25 c-15 25 -12
45 5 35 5 -4 9 -2 9 3 0 16 -13 22 -27 11 -16 -14 -17 -3 -1 15 11 11 15 10
26 -5 7 -11 10 -24 7 -29z m153 25 c0 -14 -4 -28 -9 -30 -6 -4 -6 39 0 53 4 9
9 -2 9 -23z m-442 3 c4 -7 3 -8 -4 -4 -7 4 -12 2 -12 -3 0 -6 -5 -11 -11 -11
-8 0 -8 5 1 15 15 18 17 18 26 3z m200 -1 c17 6 38 -23 23 -33 -8 -4 -9 -3 -5
4 7 11 -5 16 -30 13 -6 -1 -18 6 -25 16 -13 15 -12 15 6 6 11 -6 25 -9 31 -6z
m-62 -9 c-3 -5 -11 -7 -17 -5 -7 2 -20 0 -30 -5 -17 -9 -17 -11 -2 -35 10 -14
13 -23 7 -19 -5 3 -12 -1 -16 -9 -3 -8 -11 -15 -18 -14 -10 0 -10 2 0 6 6 2
12 9 12 14 0 6 -6 7 -12 3 -10 -6 -10 -4 0 7 17 18 15 34 -3 19 -27 -22 -16 0
12 24 26 22 79 34 67 14z m343 6 c-3 -3 -12 -4 -19 -1 -8 3 -5 6 6 6 11 1 17
-2 13 -5z m61 -19 c0 -30 -22 -52 -34 -34 -4 8 -3 9 4 5 7 -4 13 -1 13 6 1 7
2 18 4 23 1 6 3 13 3 18 4 16 10 5 10 -18z m111 8 c-12 -15 -12 -16 3 -10 10
3 20 2 22 -2 5 -7 -13 -8 -47 -2 -10 1 15 30 27 31 5 0 2 -8 -5 -17z m-1072
-5 c-2 -7 0 -22 6 -33 9 -18 8 -19 -7 -4 -10 9 -14 22 -10 32 7 19 18 24 11 5z
m263 -8 c0 -11 -4 -20 -9 -20 -5 0 -7 9 -4 20 3 11 7 20 9 20 2 0 4 -9 4 -20z
m-365 -1 c11 -16 1 -19 -13 -3 -7 8 -8 14 -3 14 5 0 13 -5 16 -11z m264 -15
c-6 -8 -17 -14 -23 -14 -6 0 -3 7 6 14 10 7 14 17 10 21 -4 5 -1 5 6 1 10 -6
10 -11 1 -22z m240 -23 c0 -11 -4 -9 -11 7 -6 12 -15 22 -20 22 -4 0 -8 5 -8
12 0 6 9 3 20 -7 11 -10 20 -25 19 -34z m56 39 c-3 -4 -16 -7 -30 -7 -13 0
-23 3 -20 7 3 4 16 8 30 8 13 0 23 -4 20 -8z m133 1 c11 -7 11 -9 -2 -14 -9
-4 -23 -4 -32 0 -13 5 -13 7 -2 14 7 5 15 9 18 9 3 0 11 -4 18 -9z m233 -11
c13 -10 18 -19 12 -20 -7 0 -13 4 -13 8 0 5 -10 14 -22 20 -13 6 -18 11 -12
11 7 1 22 -8 35 -19z m107 5 c4 -4 -4 -4 -16 0 l-24 7 19 -28 c10 -16 13 -25
7 -21 -7 4 -14 0 -18 -8 -3 -8 -11 -15 -18 -14 -10 0 -10 2 0 6 6 2 12 9 12
14 0 6 -5 7 -12 3 -7 -4 -8 -3 -4 4 4 7 2 12 -3 12 -6 0 -11 5 -11 12 0 6 9 3
20 -7 24 -21 27 -9 4 16 -15 16 -14 17 10 15 15 -2 30 -7 34 -11z m81 -1 c4 3
8 -4 8 -15 1 -11 -2 -17 -7 -14 -4 3 -10 -1 -12 -7 -3 -7 -5 3 -5 22 0 19 2
29 5 22 2 -6 7 -10 11 -8z m-395 -16 c-7 -22 -6 -22 21 -4 15 10 25 14 21 8
-3 -5 1 -12 9 -16 8 -3 15 -11 14 -18 0 -10 -2 -10 -6 0 -2 6 -9 12 -14 12 -6
0 -7 -6 -3 -12 6 -10 4 -10 -7 0 -18 17 -34 15 -19 -3 9 -10 9 -15 1 -15 -6 0
-11 5 -11 11 0 5 -4 8 -9 5 -4 -3 -7 5 -6 17 4 34 5 37 11 37 3 0 2 -10 -2
-22z m-533 -5 c13 -15 12 -15 -6 -6 -11 6 -26 8 -33 6 -15 -6 -6 -23 11 -19 7
1 9 1 4 -1 -4 -3 -4 -9 -1 -15 3 -5 -3 -4 -15 4 -26 16 -26 24 -3 37 23 14 27
14 43 -6z m137 -9 c1 0 -4 -14 -13 -30 -8 -16 -15 -22 -15 -13 0 8 5 20 12 27
9 9 7 13 -5 18 -9 3 -17 11 -17 16 0 6 8 4 18 -3 9 -7 18 -14 20 -15z m147 6
c10 -11 15 -23 12 -27 -4 -3 -7 -1 -7 5 0 6 -8 16 -19 21 -16 9 -18 7 -18 -15
0 -19 2 -22 13 -13 10 8 14 8 14 0 0 -6 -5 -11 -11 -11 -5 0 -7 -4 -4 -10 15
-24 -6 -7 -26 22 -13 17 -18 29 -12 25 6 -4 13 0 17 8 7 20 19 19 41 -5z m415
10 c-8 -5 -19 -10 -25 -10 -5 0 -3 5 5 10 8 5 20 10 25 10 6 0 3 -5 -5 -10z
m198 -16 c0 -17 -3 -22 -8 -13 -5 6 -6 18 -3 26 8 19 11 16 11 -13z m77 15 c4
-6 13 -8 21 -5 7 3 16 0 20 -6 4 -6 3 -8 -3 -5 -6 4 -18 -5 -28 -19 -16 -26
-16 -26 7 -19 20 5 20 4 5 -5 -25 -16 -39 -3 -24 21 10 17 9 22 -7 35 -11 8
-15 14 -9 14 7 0 15 -5 18 -11z m-628 -21 c-3 -8 -6 -5 -6 6 -1 11 2 17 5 13
3 -3 4 -12 1 -19z m113 12 c0 -5 -2 -10 -4 -10 -3 0 -8 5 -11 10 -3 6 -1 10 4
10 6 0 11 -4 11 -10z m270 -29 c-5 -10 -1 -26 13 -46 11 -16 17 -27 12 -23 -4
4 -13 0 -20 -8 -10 -14 -14 -15 -33 -3 -12 8 -22 17 -22 22 0 4 11 0 24 -8 23
-15 24 -15 24 10 0 20 -3 23 -14 14 -10 -8 -14 -8 -14 0 0 6 4 11 8 11 9 0 12
15 13 55 0 16 2 17 9 5 5 -8 5 -21 0 -29z m-830 20 c0 -6 -4 -12 -8 -15 -5 -3
-9 1 -9 9 0 8 4 15 9 15 4 0 8 -4 8 -9z m210 -6 c0 -1 -12 -2 -26 -2 -17 0
-22 2 -13 7 10 7 39 3 39 -5z m360 -20 c-7 -8 -16 -13 -20 -10 -5 3 -10 -1
-13 -7 -2 -7 -8 -9 -13 -5 -9 9 16 28 27 21 4 -2 11 6 15 18 4 14 9 18 12 10
2 -7 -2 -19 -8 -27z m37 13 c-3 -8 -6 -5 -6 6 -1 11 2 17 5 13 3 -3 4 -12 1
-19z m191 14 c9 9 12 9 12 0 0 -7 -5 -12 -11 -12 -5 0 -7 -5 -3 -11 3 -6 -5
-4 -19 6 -24 16 -26 15 -36 -4 -9 -16 -7 -23 11 -35 18 -13 19 -16 6 -16 -10
0 -22 -9 -28 -20 -6 -11 -15 -18 -21 -15 -15 10 -10 -4 13 -35 12 -17 27 -30
34 -30 7 0 1 -12 -14 -27 -16 -17 -30 -24 -34 -18 -4 5 -15 10 -24 10 -10 0
-18 6 -20 13 -1 7 0 8 3 2 2 -5 9 -10 14 -10 6 0 5 9 -1 21 -11 19 -13 20 -37
4 -14 -10 -22 -12 -19 -6 4 6 2 11 -3 11 -6 0 -11 5 -11 12 0 9 3 9 12 0 7 -7
17 -8 29 -2 14 8 23 4 42 -21 20 -26 25 -28 36 -15 18 21 -15 72 -35 55 -10
-8 -14 -8 -14 0 0 6 4 11 9 11 5 0 8 6 7 13 0 6 4 14 9 16 6 2 16 12 23 23 11
15 11 22 1 34 -17 21 16 57 41 44 11 -6 21 -5 28 2z m261 -18 c-6 -8 -15 -12
-18 -8 -3 4 0 9 7 11 6 3 9 10 6 15 -4 7 -2 8 5 4 9 -6 9 -11 0 -22z m-579 6
c0 -5 -4 -10 -10 -10 -5 0 -10 5 -10 10 0 6 5 10 10 10 6 0 10 -4 10 -10z
m396 -12 c-2 -15 6 -29 21 -41 19 -15 21 -22 12 -33 -9 -11 -8 -18 1 -29 9
-10 9 -15 1 -15 -6 0 -11 5 -11 11 0 6 -6 7 -12 2 -7 -4 -5 5 4 20 17 25 17
27 -1 36 -10 6 -22 7 -26 3 -5 -4 -5 -2 -2 4 4 7 0 14 -8 18 -8 3 -15 11 -14
18 0 10 2 10 6 1 2 -7 9 -13 14 -13 11 0 7 23 -6 32 -6 4 -2 8 7 8 13 0 17 -6
14 -22z m-856 2 c0 -5 -5 -10 -11 -10 -5 0 -7 5 -4 10 3 6 8 10 11 10 2 0 4
-4 4 -10z m110 -11 c7 -11 9 -23 7 -26 -3 -2 -8 5 -12 16 -3 12 -11 21 -16 21
-13 0 -11 -14 3 -28 9 -9 9 -12 0 -12 -7 0 -12 5 -12 12 0 9 -3 9 -12 0 -23
-23 -27 -12 -5 13 27 30 33 31 47 4z m122 4 c-6 -3 -9 -10 -6 -15 4 -7 2 -8
-5 -4 -9 6 -9 11 0 22 6 8 15 12 18 8 3 -4 0 -9 -7 -11z m65 11 c-3 -3 -12 -4
-19 -1 -8 3 -5 6 6 6 11 1 17 -2 13 -5z m668 -7 c11 -11 10 -16 -6 -26 -11 -6
-24 -9 -29 -6 -6 4 -10 1 -10 -4 0 -6 -5 -11 -11 -11 -8 0 -7 6 2 16 12 15 11
16 -11 10 l-25 -7 25 15 c25 15 45 12 35 -5 -4 -5 -2 -9 3 -9 16 0 22 13 11
27 -15 17 -2 17 16 0z m145 3 c0 -5 -7 -7 -15 -4 -8 4 -15 8 -15 10 0 2 7 4
15 4 8 0 15 -4 15 -10z m-1078 -14 c7 4 8 2 4 -5 -9 -13 -26 -5 -25 12 0 9 2
8 6 -1 2 -6 10 -9 15 -6z m134 2 c-13 -7 -14 -13 -4 -31 10 -20 10 -21 -5 -8
-10 7 -17 19 -17 26 0 8 -6 15 -12 18 -7 2 2 4 20 4 25 0 29 -3 18 -9z m91 -8
c-1 -11 -5 -20 -9 -20 -10 0 -10 4 -2 24 8 22 13 20 11 -4z m173 10 c13 -9 12
-13 -6 -28 -12 -9 -24 -24 -27 -32 -4 -12 -6 -12 -6 2 -1 9 8 23 20 31 14 11
17 17 9 22 -7 4 -16 1 -21 -6 -4 -7 -11 -10 -16 -6 -4 5 -1 12 7 17 19 12 22
12 40 0z m326 -10 c5 1 10 -4 12 -12 3 -11 2 -11 -6 0 -5 8 -13 13 -18 12 -5
-1 -10 4 -12 12 -3 11 -2 11 6 0 5 -8 13 -13 18 -12z m-479 -12 c-3 -8 -6 -5
-6 6 -1 11 2 17 5 13 3 -3 4 -12 1 -19z m50 2 c17 -13 21 -20 10 -20 -8 0 -22
-12 -32 -26 -16 -25 -16 -26 3 -20 11 4 23 2 26 -3 5 -8 -32 -9 -52 -2 -2 0 7
15 19 32 22 31 22 32 4 45 -10 8 -15 14 -11 14 4 0 19 -9 33 -20z m195 -14 c7
4 3 -6 -9 -22 -11 -16 -25 -39 -31 -50 -10 -19 -9 -21 14 -21 19 0 22 2 13 13
-18 22 -1 16 23 -8 14 -14 16 -19 6 -15 -9 3 -26 -2 -39 -10 -13 -9 -21 -13
-17 -8 4 4 0 13 -9 20 -15 11 -15 15 5 43 28 38 28 41 -5 70 l-28 24 32 -22
c18 -12 38 -18 45 -14z m54 26 c-2 -4 8 -24 24 -45 16 -22 31 -34 35 -28 3 6
12 11 18 10 9 0 9 -2 0 -5 -7 -3 -9 -13 -6 -22 4 -15 3 -15 -6 -2 -6 8 -11 11
-11 5 0 -5 -9 1 -20 15 -15 20 -21 23 -31 13 -7 -7 -17 -13 -23 -13 -5 0 -1 6
10 14 16 13 17 18 7 35 -16 25 -16 31 -2 31 5 0 8 -3 5 -8z m34 -2 c0 -5 -4
-10 -10 -10 -5 0 -10 5 -10 10 0 6 5 10 10 10 6 0 10 -4 10 -10z m57 3 c-4 -3
-2 -12 4 -19 15 -18 4 -31 -27 -31 -17 0 -22 2 -13 7 6 5 19 6 27 3 12 -5 12
-2 3 15 -14 26 -14 32 1 32 6 0 8 -3 5 -7z m33 -28 c0 -5 -5 -3 -10 5 -5 8
-10 20 -10 25 0 6 5 3 10 -5 5 -8 10 -19 10 -25z m-325 -10 c2 -14 0 -23 -5
-20 -4 2 -7 16 -7 30 0 32 9 25 12 -10z m665 20 c14 -8 19 -14 10 -14 -8 0
-24 6 -34 14 -25 19 -9 19 24 0z m-754 -31 c-10 -14 -20 -23 -23 -20 -3 3 2
12 11 21 9 9 16 21 16 27 0 6 3 8 6 5 4 -4 -1 -18 -10 -33z m273 22 c9 -11 9
-16 0 -22 -8 -4 -9 -3 -5 4 4 7 2 12 -3 12 -6 0 -11 5 -11 10 0 14 5 13 19 -4z
m76 4 c-3 -5 -14 -10 -23 -10 -15 0 -15 2 -2 10 20 13 33 13 25 0z m361 -2 c5
-8 2 -9 -10 -5 -13 5 -17 3 -13 -6 3 -8 1 -20 -4 -28 -5 -9 -7 -4 -5 16 2 17
4 31 5 33 3 7 21 1 27 -10z m110 1 c3 -6 1 -16 -5 -22 -17 -17 -13 -31 4 -17
8 7 15 8 15 4 0 -16 -39 -34 -57 -27 -17 7 -17 5 1 -21 10 -16 14 -26 8 -22
-5 3 -12 -1 -16 -9 -3 -8 -11 -15 -18 -14 -10 0 -10 2 0 6 6 2 12 9 12 14 0 6
-6 7 -12 3 -10 -6 -10 -4 0 7 17 18 15 34 -3 19 -10 -9 -15 -9 -15 -1 0 6 5
11 11 11 5 0 8 4 4 9 -3 6 8 8 25 6 28 -4 29 -2 19 16 -17 33 8 69 27 38z
m-851 -10 c15 0 17 -2 5 -9 -8 -5 -21 -5 -31 1 -23 12 -39 12 -39 -1 0 -5 10
-11 23 -11 18 -1 19 -2 3 -6 -22 -6 -41 11 -31 27 4 7 16 9 29 5 11 -4 30 -7
41 -6z m205 1 c0 -5 -4 -10 -10 -10 -5 0 -10 5 -10 10 0 6 5 10 10 10 6 0 10
-4 10 -10z m-380 -10 c0 -5 -2 -10 -4 -10 -3 0 -8 5 -11 10 -3 6 -1 10 4 10 6
0 11 -4 11 -10z m60 2 c0 -4 -9 -13 -20 -20 -23 -14 -26 -8 -7 13 13 16 27 19
27 7z m314 -51 c-7 -7 -33 33 -34 49 0 8 8 2 19 -15 10 -16 17 -32 15 -34z
m22 33 c-4 -9 -9 -15 -11 -12 -3 3 -3 13 1 22 4 9 9 15 11 12 3 -3 3 -13 -1
-22z m469 6 c-5 -15 3 -26 34 -47 22 -15 40 -32 41 -37 0 -5 -8 -2 -18 7 -26
24 -39 21 -17 -3 10 -11 13 -20 7 -20 -7 0 -12 5 -12 11 0 5 -5 7 -12 3 -7 -4
-8 -3 -4 4 4 7 2 12 -3 12 -6 0 -11 -5 -11 -12 0 -6 -3 -8 -7 -4 -5 4 0 14 10
21 17 12 16 14 -9 34 -15 12 -23 21 -18 21 5 0 2 5 -6 11 -13 9 -12 10 3 5 9
-3 17 -1 17 4 0 6 3 10 6 10 3 0 3 -9 -1 -20z m69 2 c-6 -4 -16 -16 -22 -27
-7 -13 -12 -15 -12 -6 0 17 31 54 39 46 3 -4 1 -9 -5 -13z m-474 -2 c0 -5 -5
-10 -11 -10 -5 0 -7 5 -4 10 3 6 8 10 11 10 2 0 4 -4 4 -10z m-388 -17 c-6 -3
-10 -9 -6 -14 6 -10 -9 -12 -19 -2 -4 3 1 12 11 19 9 7 19 10 22 7 3 -3 -1 -8
-8 -10z m203 7 c8 -13 -5 -13 -25 0 -13 8 -13 10 2 10 9 0 20 -4 23 -10z m400
0 c8 -13 -5 -13 -25 0 -13 8 -13 10 2 10 9 0 20 -4 23 -10z m302 4 c-3 -3 -12
-4 -19 -1 -8 3 -5 6 6 6 11 1 17 -2 13 -5z m-777 -50 c0 -4 -7 -1 -15 6 -8 7
-15 8 -15 3 0 -16 22 -32 36 -26 8 3 14 -1 14 -8 0 -7 -3 -9 -7 -6 -3 4 -13 1
-21 -5 -11 -10 -17 -9 -27 5 -6 9 -16 13 -20 9 -5 -4 -1 4 8 17 8 13 13 30 10
39 -4 10 1 8 15 -6 12 -12 22 -25 22 -28z m570 36 c-13 -9 -12 -13 8 -30 13
-10 31 -17 40 -14 14 5 14 4 3 -4 -15 -11 -28 -6 -66 23 -17 14 -18 17 -5 25
20 13 39 12 20 0z m70 -25 c0 -5 -5 -3 -10 5 -5 8 -10 20 -10 25 0 6 5 3 10
-5 5 -8 10 -19 10 -25z m91 8 c-12 -20 -14 -14 -5 12 4 9 9 14 11 11 3 -2 0
-13 -6 -23z m-795 8 c10 8 14 8 14 0 0 -6 -5 -11 -12 -11 -6 0 -8 -3 -5 -6 4
-4 -3 -15 -15 -25 -27 -24 -36 -24 -14 0 9 10 15 24 13 32 -2 8 -2 10 1 6 2
-4 10 -3 18 4z m162 -3 c-8 -7 -20 -22 -26 -33 -7 -13 -12 -15 -12 -6 0 17 29
51 43 51 6 0 4 -6 -5 -12z m51 -10 c12 -19 11 -23 -3 -33 -8 -7 -12 -16 -8
-20 4 -4 -5 0 -20 10 -29 18 -32 17 -22 -9 3 -9 10 -14 14 -11 16 10 20 -13 5
-25 -10 -9 -18 -9 -32 0 -16 10 -15 10 5 5 23 -7 23 -6 7 18 -14 21 -14 29 -3
46 7 12 17 21 22 21 4 0 3 -7 -4 -15 -7 -8 -8 -15 -2 -15 19 0 32 26 20 38 -7
7 -8 12 -2 12 5 0 15 -10 23 -22z m119 2 c7 -11 10 -20 7 -20 -3 0 -14 9 -25
20 -12 12 -15 20 -7 20 7 0 18 -9 25 -20z m42 10 c-8 -5 -19 -10 -25 -10 -5 0
-3 5 5 10 8 5 20 10 25 10 6 0 3 -5 -5 -10z m140 0 c0 -5 -4 -10 -10 -10 -5 0
-10 5 -10 10 0 6 5 10 10 10 6 0 10 -4 10 -10z m34 -15 c-10 -8 -26 -14 -34
-15 -8 0 -1 8 15 19 34 21 48 18 19 -4z m344 -11 c-12 -12 -17 -13 -23 -3 -5
7 -4 10 2 6 6 -4 14 0 17 9 4 9 9 14 13 10 4 -3 0 -14 -9 -22z m-928 5 c0 -5
-4 -7 -10 -4 -5 3 -10 1 -10 -6 0 -7 -3 -10 -6 -6 -8 7 4 27 17 27 5 0 9 -5 9
-11z m440 1 c8 -5 11 -10 5 -10 -5 0 -17 5 -25 10 -8 5 -10 10 -5 10 6 0 17
-5 25 -10z m196 -5 c4 -8 11 -12 17 -8 5 3 -4 -14 -21 -38 -46 -64 -58 -79
-67 -79 -4 0 -2 7 5 15 7 8 8 15 3 15 -16 0 -32 -22 -26 -36 3 -8 -1 -14 -8
-14 -7 0 -9 3 -6 7 4 3 1 13 -5 21 -10 11 -9 17 5 27 9 6 13 16 9 20 -4 4 5 0
20 -9 17 -11 28 -13 33 -7 3 6 1 11 -4 11 -6 0 -11 10 -10 23 0 21 1 21 10 -3
8 -20 12 -22 19 -10 6 9 6 16 0 18 -6 2 -10 8 -10 14 0 7 5 6 14 -1 11 -9 14
-6 14 14 0 25 -1 25 -24 10 -28 -18 -33 -9 -6 11 22 17 31 17 38 -1z m110 -21
c-10 -14 -20 -23 -23 -20 -3 3 2 12 11 21 9 9 16 21 16 27 0 6 3 8 6 5 4 -4
-1 -18 -10 -33z m-582 -18 l21 -18 -25 14 c-14 9 -26 24 -27 34 -2 13 -1 14 3
4 4 -8 16 -23 28 -34z m234 27 c0 -10 1 -25 3 -33 2 -8 -2 -15 -10 -15 -8 0
-15 6 -17 13 -1 7 0 8 3 2 2 -5 9 -10 14 -10 6 0 6 7 1 18 -5 9 -7 23 -5 30 7
17 12 15 11 -5z m122 -28 c0 -5 -5 -3 -10 5 -5 8 -10 20 -10 25 0 6 5 3 10 -5
5 -8 10 -19 10 -25z m-228 -4 c16 -19 15 -20 -8 -18 -13 1 -24 5 -24 10 0 4 0
12 0 17 0 16 14 12 32 -9z m395 13 c-3 -3 -12 -4 -19 -1 -8 3 -5 6 6 6 11 1
17 -2 13 -5z m-627 -19 c33 -19 21 -19 -21 0 -19 8 -27 14 -19 14 8 0 26 -6
40 -14z m297 8 c-4 -3 0 -14 9 -24 9 -10 14 -24 11 -31 -3 -8 -6 -6 -6 5 -1
10 -6 15 -11 12 -6 -4 -8 -11 -5 -16 4 -5 1 -17 -5 -26 -9 -15 -10 -14 -4 7
l7 25 -34 -27 c-23 -18 -33 -34 -32 -50 1 -12 -1 -18 -3 -11 -3 7 -13 9 -22 6
-15 -4 -15 -3 -2 6 8 6 11 11 6 11 -5 0 3 9 18 21 25 20 26 22 9 34 -10 7 -15
17 -10 21 4 4 7 2 7 -4 0 -7 5 -12 11 -12 5 0 7 5 3 12 -4 7 -3 8 4 4 7 -4 12
-2 12 3 0 6 5 11 12 11 6 0 3 -9 -7 -20 -10 -11 -14 -20 -8 -20 17 0 45 37 34
45 -15 8 -14 25 1 25 6 0 8 -3 5 -7z m350 -25 c-3 -7 -5 -2 -5 12 0 14 2 19 5
13 2 -7 2 -19 0 -25z m-549 7 c4 -4 -4 -4 -18 0 -22 7 -23 6 -11 -9 8 -9 9
-16 3 -16 -6 0 -13 6 -16 13 -5 10 -7 10 -12 0 -3 -7 -10 -13 -15 -13 -5 0 -4
9 3 19 11 19 51 22 66 6z m510 6 c-2 -5 6 -17 17 -25 20 -16 20 -16 1 -31 -11
-8 -25 -15 -30 -14 -6 0 -1 5 12 11 12 6 22 15 22 20 0 12 -14 10 -28 -4 -9
-9 -12 -9 -12 0 0 7 5 12 12 12 9 0 9 3 0 12 -15 15 -16 28 -2 28 6 0 9 -4 8
-9z m70 -16 c-23 -27 -34 -33 -22 -12 14 23 26 37 35 37 5 0 -1 -11 -13 -25z
m52 15 c0 -5 -4 -10 -10 -10 -5 0 -10 5 -10 10 0 6 5 10 10 10 6 0 10 -4 10
-10z m44 -2 c-5 -8 -2 -9 10 -5 11 4 15 3 11 -4 -4 -6 -13 -8 -21 -5 -7 3 -16
1 -19 -4 -4 -6 -14 -10 -23 -10 -11 0 -7 6 13 19 36 24 38 24 29 9z m-407 -5
c-8 -8 22 -43 36 -43 6 0 2 9 -8 20 -10 11 -13 20 -7 20 7 0 12 -5 12 -11 0
-5 5 -7 12 -3 7 4 8 3 4 -4 -4 -7 -3 -12 3 -12 5 0 12 6 14 13 4 9 6 9 6 -1 1
-7 -6 -15 -14 -18 -13 -5 -13 -9 -3 -22 7 -9 -2 -5 -21 8 -28 19 -33 21 -28 7
7 -18 -11 -57 -27 -57 -4 0 -2 7 5 16 12 15 11 16 -6 11 -11 -4 -26 -3 -33 2
-21 13 15 23 38 11 16 -9 18 -7 16 15 -3 31 -16 45 -17 19 0 -11 -3 -14 -6 -6
-5 12 13 42 25 42 3 0 2 -3 -1 -7z m-361 -25 c12 -14 13 -18 3 -10 -9 6 -20 8
-24 4 -5 -4 -5 -2 -2 5 4 6 1 14 -5 16 -8 3 -8 6 -2 6 6 1 19 -9 30 -21z m213
-32 c0 -6 -5 -1 -11 12 -6 12 -15 22 -20 22 -4 0 -8 6 -8 13 1 6 10 1 20 -12
11 -13 20 -28 19 -35z m359 28 c0 -17 -3 -22 -8 -13 -5 6 -6 18 -3 26 8 19 11
16 11 -13z m126 -19 c-6 -15 -8 -15 -16 -2 -4 8 -5 23 -2 32 6 15 8 15 16 2 4
-8 5 -23 2 -32z m-607 21 c-3 -7 2 -24 10 -37 9 -12 12 -19 6 -16 -6 4 -13 1
-16 -5 -3 -7 -5 -4 -5 7 1 11 0 25 -2 30 -4 16 -1 35 6 35 3 0 4 -6 1 -14z
m716 1 c3 -8 2 -20 -3 -26 -5 -9 -7 -4 -7 13 0 29 2 32 10 13z m-663 -7 c10 5
22 5 31 -2 12 -8 11 -9 -2 -5 -9 3 -27 -2 -40 -10 -12 -9 -19 -11 -15 -5 4 7
2 12 -3 12 -6 0 -11 5 -11 12 0 9 3 9 12 0 7 -7 17 -8 28 -2z m630 -1 c3 7 7
-3 7 -21 0 -18 -2 -27 -5 -20 -2 6 -7 10 -12 7 -4 -2 -7 8 -7 23 0 15 2 21 5
13 3 -9 6 -10 12 -2z m-717 -6 c-7 -2 -19 -2 -25 0 -7 3 -2 5 12 5 14 0 19 -2
13 -5z m393 -34 c11 -43 9 -64 -3 -61 -7 1 -13 -5 -13 -13 0 -8 3 -14 8 -14
19 3 32 -2 32 -12 0 -8 -6 -7 -16 2 -15 12 -16 11 -10 -11 6 -23 6 -23 -9 3
-17 29 -13 63 5 52 5 -3 10 1 10 9 0 9 -3 15 -7 15 -20 -3 -33 2 -33 12 0 8 5
7 15 -1 14 -12 15 -9 10 21 -7 37 2 36 11 -2z m104 23 c0 -5 10 -14 23 -20 12
-6 17 -11 11 -11 -7 -1 -22 8 -35 19 -13 10 -18 19 -11 20 6 0 12 -4 12 -8z
m119 -15 c-3 -26 2 -38 13 -31 7 4 8 3 4 -5 -12 -18 -33 4 -33 34 0 14 4 22 9
19 4 -3 8 -11 7 -17z m68 17 c-3 -3 -12 -4 -19 -1 -8 3 -5 6 6 6 11 1 17 -2
13 -5z m-697 -18 c-7 -7 -13 -7 -20 0 -6 6 -3 10 10 10 13 0 16 -4 10 -10z
m27 2 c-2 -7 0 -22 6 -33 9 -18 8 -19 -7 -4 -10 9 -14 22 -10 32 7 19 18 24
11 5z m95 0 c-14 -14 -16 -28 -3 -28 5 0 13 9 16 21 4 11 9 18 12 16 7 -7 -16
-47 -27 -47 -5 0 -14 10 -21 21 -8 15 -8 19 0 15 6 -4 11 -2 11 3 0 6 5 11 12
11 9 0 9 -3 0 -12z m130 -48 c6 0 8 -3 5 -7 -10 -9 -47 27 -47 46 1 10 7 5 16
-11 8 -16 20 -28 26 -28z m97 24 c-6 -8 -17 -14 -23 -14 -6 0 -3 7 6 14 10 7
14 17 10 21 -4 5 -1 5 6 1 10 -6 10 -11 1 -22z m211 3 c17 21 17 21 17 -8 0
-20 -3 -25 -9 -17 -6 10 -13 7 -28 -12 -17 -22 -17 -26 -5 -36 8 -6 15 -15 15
-19 0 -4 -6 -2 -14 4 -11 9 -13 6 -13 -13 0 -21 2 -24 17 -16 10 5 21 15 23
22 3 8 6 8 6 2 1 -6 -8 -19 -20 -30 -20 -18 -22 -18 -33 -2 -7 10 -17 14 -21
10 -4 -4 0 5 10 21 9 15 14 27 9 27 -4 0 -3 5 4 12 19 19 14 34 -14 53 -25 16
-26 16 -20 -3 4 -11 2 -23 -3 -26 -8 -5 -9 32 -2 52 0 2 15 -7 32 -19 l32 -22
17 20z m125 3 c-22 -25 -18 -36 5 -15 11 10 20 13 20 7 0 -7 -5 -12 -11 -12
-5 0 -7 -5 -3 -12 4 -7 3 -8 -4 -4 -7 4 -12 3 -12 -3 0 -5 6 -12 13 -14 9 -4
9 -6 -1 -6 -7 -1 -15 6 -18 14 -4 8 -11 12 -18 8 -6 -4 -3 5 7 21 l19 28 -24
-7 c-17 -5 -19 -4 -9 4 8 5 23 9 33 8 15 -1 16 -3 3 -17z m-600 -10 c-3 -5 0
-10 7 -10 10 0 10 -2 -1 -9 -8 -5 -20 -7 -28 -4 -11 4 -10 8 4 19 22 16 26 17
18 4z m118 -3 c3 -8 2 -20 -3 -26 -5 -9 -7 -4 -7 13 0 29 2 32 10 13z m68 -4
c13 -15 12 -15 -8 -4 -24 12 -29 21 -14 21 5 0 15 -7 22 -17z m332 4 c3 -8 2
-20 -3 -26 -5 -9 -7 -4 -7 13 0 29 2 32 10 13z m-146 -3 c-3 -3 -12 -4 -19 -1
-8 3 -5 6 6 6 11 1 17 -2 13 -5z m288 -15 c0 -7 -8 -15 -17 -17 -10 -2 -18 1
-18 7 0 6 7 8 15 5 17 -7 21 11 5 19 -6 3 -5 4 2 3 7 -2 13 -9 13 -17z m-365
-4 c0 -1 -12 -2 -26 -2 -17 0 -22 2 -13 7 10 7 39 3 39 -5z m129 -11 c-6 -8
-15 -12 -18 -8 -3 4 0 9 7 11 6 3 9 10 6 15 -4 7 -2 8 5 4 9 -6 9 -11 0 -22z
m295 10 c3 -8 2 -12 -4 -9 -6 3 -10 10 -10 16 0 14 7 11 14 -7z m-701 -13
c-20 -17 -20 -19 -5 -35 9 -9 12 -16 7 -16 -10 0 -39 40 -33 44 8 7 44 25 48
25 3 0 -5 -8 -17 -18z m47 -2 c0 -5 5 -7 10 -4 6 4 17 2 25 -5 10 -9 16 -7 23
7 6 10 13 16 15 13 3 -3 -1 -14 -9 -24 -11 -15 -16 -17 -28 -7 -8 7 -19 10
-24 7 -6 -3 -15 1 -22 9 -9 10 -9 15 -1 15 6 0 11 -5 11 -11z m147 -20 c1 -22
1 -22 -4 -1 -2 12 -9 22 -14 22 -12 0 -12 -16 0 -39 6 -11 6 -22 0 -32 -9 -12
-10 -12 -6 1 2 8 0 23 -5 33 -12 23 -3 50 15 45 6 -3 13 -15 14 -29z m180 12
c22 -18 22 -20 4 -18 -11 1 -18 3 -15 6 2 3 -6 11 -18 18 -13 7 -17 12 -10 13
8 0 25 -9 39 -19z m108 -12 c-4 -5 1 -9 9 -9 9 0 15 3 15 8 -3 19 2 32 12 32
8 0 8 -5 -1 -15 -14 -16 0 -21 16 -5 6 6 15 6 24 0 8 -5 11 -10 5 -11 -5 0
-19 -3 -30 -5 -41 -11 -60 -9 -57 4 2 9 -5 12 -20 8 -13 -3 -17 -3 -10 0 6 3
9 10 6 16 -4 6 3 5 15 -2 12 -6 19 -15 16 -21z m-339 2 c0 -11 -4 -17 -8 -15
-4 3 -8 0 -8 -5 0 -6 -5 -11 -10 -11 -6 0 -3 11 6 25 20 30 20 30 20 6z m110
3 c-6 -6 -14 -10 -18 -7 -5 2 -8 -1 -8 -6 0 -6 -5 -11 -11 -11 -8 0 -8 4 0 14
9 11 9 15 -1 18 -7 3 1 5 18 5 25 0 29 -3 20 -13z m-296 0 c0 -8 -19 -13 -24
-6 -3 5 1 9 9 9 8 0 15 -2 15 -3z m70 -4 c0 -5 -4 -10 -10 -10 -5 0 -10 5 -10
10 0 6 5 10 10 10 6 0 10 -4 10 -10z m315 -1 c11 -16 1 -19 -13 -3 -7 8 -8 14
-3 14 5 0 13 -5 16 -11z m270 1 c-3 -5 -2 -10 4 -10 5 0 12 6 14 13 4 9 6 9 6
0 1 -17 -14 -24 -34 -17 -13 5 -14 8 -3 15 17 11 20 11 13 -1z m-641 -18 c3
-5 -1 -9 -9 -9 -8 0 -12 4 -9 9 3 4 7 8 9 8 2 0 6 -4 9 -8z m78 -7 c-29 -13
-32 -17 -22 -35 6 -11 8 -20 4 -20 -3 0 -1 -7 6 -15 18 -22 -3 -46 -22 -26
-11 10 -9 11 6 5 16 -6 17 -5 7 14 -7 12 -9 22 -6 22 3 0 2 8 -4 17 -12 23 13
53 43 53 16 -1 13 -4 -12 -15z m215 8 c-4 -3 1 -12 10 -18 14 -10 15 -16 5
-27 -6 -8 -9 -18 -5 -21 3 -4 1 -7 -6 -7 -7 0 -11 6 -8 14 6 14 -10 36 -26 36
-5 0 -4 -7 3 -15 19 -23 3 -18 -22 7 -14 14 -16 19 -6 15 9 -3 24 1 35 8 19
15 31 20 20 8z m319 -8 c4 -8 11 -12 16 -9 6 4 3 -5 -7 -19 -9 -14 -12 -27 -8
-30 11 -6 34 19 25 27 -3 4 1 4 11 1 15 -6 14 -9 -6 -27 l-22 -19 25 6 c21 5
22 4 7 -5 -14 -9 -23 -7 -47 12 -16 13 -29 27 -29 32 -1 5 6 3 14 -4 18 -15
20 1 3 19 -10 11 -10 13 0 7 6 -4 12 -3 12 3 0 5 -6 12 -12 14 -10 4 -10 6 0
6 7 1 15 -6 18 -14z m77 2 c3 -8 2 -20 -3 -26 -5 -9 -7 -4 -7 13 0 29 2 32 10
13z m-563 -36 c-5 -9 -16 -25 -25 -36 -12 -14 -11 -9 3 15 11 19 17 42 15 50
-4 13 -3 13 6 1 5 -9 6 -21 1 -30z m287 33 c-3 -3 -12 -4 -19 -1 -8 3 -5 6 6
6 11 1 17 -2 13 -5z m163 -4 c0 -5 -4 -10 -10 -10 -5 0 -10 5 -10 10 0 6 5 10
10 10 6 0 10 -4 10 -10z m-470 -10 c0 -5 -10 -10 -22 -9 -22 0 -22 1 -3 9 11
5 21 9 23 9 1 1 2 -3 2 -9z m80 2 c0 -4 -10 -9 -22 -9 -18 -2 -20 0 -8 7 18
12 30 13 30 2z m245 -42 c0 -6 -13 -19 -30 -30 -27 -18 -31 -18 -47 -3 -22 20
-23 41 -1 65 16 17 17 17 47 -2 17 -10 31 -24 31 -30z m66 7 c-12 -12 -21 -16
-21 -9 0 7 4 12 9 12 5 0 13 10 17 23 5 14 9 17 12 8 2 -7 -5 -23 -17 -34z
m46 21 c-3 -8 -6 -5 -6 6 -1 11 2 17 5 13 3 -3 4 -12 1 -19z m123 12 c0 -5 -2
-10 -4 -10 -3 0 -8 5 -11 10 -3 6 -1 10 4 10 6 0 11 -4 11 -10z m-643 -6 c-3
-3 -12 -4 -19 -1 -8 3 -5 6 6 6 11 1 17 -2 13 -5z m194 -24 c-13 -11 -28 -20
-35 -19 -6 0 -1 5 12 11 12 6 22 15 22 20 0 4 6 8 13 8 6 -1 1 -10 -12 -20z
m488 4 c-7 -9 -14 -23 -15 -31 -4 -25 -13 -27 -11 -2 1 25 16 48 31 49 5 0 2
-7 -5 -16z m-672 -13 c0 -11 -5 -18 -9 -15 -4 3 -5 11 -1 19 7 21 12 19 10 -4z
m110 -3 c-3 -8 -6 -5 -6 6 -1 11 2 17 5 13 3 -3 4 -12 1 -19z m40 16 c-3 -3
-12 -4 -19 -1 -8 3 -5 6 6 6 11 1 17 -2 13 -5z m71 -39 c0 -13 -5 -22 -10 -19
-5 3 -6 15 -2 26 6 19 5 19 -20 3 -14 -10 -26 -24 -26 -32 0 -11 -7 -7 -20 10
-11 14 -20 29 -20 33 0 4 6 -1 14 -11 13 -18 14 -18 42 2 34 25 42 22 42 -12z
m320 26 c2 0 -6 -15 -19 -32 -16 -23 -19 -33 -10 -42 6 -6 11 -14 11 -19 0 -4
-11 3 -24 16 -12 13 -37 31 -53 40 -30 15 -30 15 -30 -10 0 -19 2 -22 13 -13
10 8 14 8 14 0 0 -6 -5 -11 -12 -11 -6 0 -8 -3 -5 -6 3 -4 2 -15 -3 -25 -8
-14 -6 -20 7 -27 10 -5 25 -7 33 -5 9 2 8 0 -3 -7 -26 -17 -61 14 -47 41 6 10
6 20 1 23 -11 7 -11 55 0 62 5 3 22 -4 38 -15 38 -27 45 -26 66 5 16 25 16 26
-3 20 -11 -4 -23 -2 -26 3 -5 8 32 9 52 2z m-398 -57 c0 -3 -4 -2 -10 1 -5 3
-10 1 -10 -4 0 -6 -5 -11 -11 -11 -8 0 -8 4 0 14 9 11 6 14 -13 14 -21 0 -24
-4 -16 -18 5 -10 7 -20 4 -22 -2 -3 7 -13 20 -22 24 -15 26 -15 36 4 6 12 7
20 1 20 -5 0 -12 -5 -14 -10 -3 -6 -4 -5 -3 2 1 7 14 14 29 15 l26 2 -26 -30
c-18 -20 -30 -26 -37 -19 -19 19 -29 10 -11 -10 10 -11 13 -20 7 -20 -7 0 -12
5 -12 11 0 5 -5 7 -12 3 -7 -4 -8 -3 -4 4 4 7 3 12 -3 12 -5 0 -12 -6 -14 -12
-4 -10 -6 -10 -6 0 -1 7 6 15 14 18 12 5 13 10 4 20 -6 8 -8 14 -4 14 4 0 1 7
-6 16 -11 14 -11 18 4 29 9 6 13 16 9 20 -4 5 8 -2 26 -14 17 -12 32 -25 32
-27z m160 11 c0 -5 -5 -3 -10 5 -5 8 -10 20 -10 25 0 6 5 3 10 -5 5 -8 10 -19
10 -25z m180 24 c0 -5 5 -7 12 -3 7 4 8 3 4 -5 -6 -9 -11 -9 -22 0 -17 14 -18
19 -4 19 6 0 10 -5 10 -11z m66 -14 c-9 -9 -16 -21 -16 -27 0 -6 -3 -8 -6 -5
-4 4 1 18 10 33 10 14 20 23 23 20 3 -3 -2 -12 -11 -21z m-270 -10 c13 -20 19
-23 30 -14 10 8 14 8 14 0 0 -6 -5 -11 -11 -11 -5 0 -7 -4 -4 -10 3 -5 -1 -20
-9 -32 -9 -12 -16 -17 -16 -11 0 7 5 15 10 18 6 3 10 11 10 17 0 6 -9 3 -20
-7 -11 -10 -20 -13 -20 -8 0 6 7 14 15 17 14 5 14 8 0 30 -9 14 -24 27 -33 29
-15 4 -15 5 0 6 10 0 25 -10 34 -24z m-76 -18 c0 -5 -4 -5 -10 -2 -5 3 -10 14
-10 23 0 15 2 15 10 2 5 -8 10 -19 10 -23z m185 14 c-3 -6 -14 -10 -23 -10
-15 1 -15 2 1 6 9 2 17 9 17 15 0 6 3 9 6 5 3 -3 3 -10 -1 -16z m215 4 c0 -1
-12 -2 -26 -2 -17 0 -22 2 -13 7 10 7 39 3 39 -5z m30 5 c0 -5 -5 -10 -11 -10
-5 0 -7 5 -4 10 3 6 8 10 11 10 2 0 4 -4 4 -10z m-587 -27 c-4 -9 -2 -14 3
-10 6 3 10 -3 11 -13 1 -11 -2 -22 -8 -25 -5 -4 -6 2 -2 11 4 11 2 15 -4 11
-8 -5 -11 27 -4 41 5 10 9 -2 4 -15z m199 4 c-12 -7 -19 -17 -15 -22 4 -4 2
-5 -5 -1 -17 10 3 36 27 36 12 -1 10 -4 -7 -13z m127 -12 c13 0 25 -6 27 -13
1 -7 0 -8 -3 -2 -2 5 -9 10 -14 10 -6 0 -7 -4 -4 -10 3 -5 1 -10 -4 -10 -6 0
-11 5 -11 11 0 8 -5 7 -15 -1 -9 -7 -18 -10 -22 -6 -3 3 -1 6 5 6 6 0 9 8 6
18 -4 10 -2 13 3 7 4 -6 19 -11 32 -10z m101 0 c4 3 13 -2 20 -10 9 -10 9 -15
1 -15 -6 0 -11 5 -11 10 0 6 -5 9 -11 8 -6 -2 -13 3 -14 10 -2 7 -1 8 2 2 2
-5 8 -8 13 -5z m65 -32 c-9 -15 -13 -19 -10 -8 4 11 10 29 13 40 3 11 7 14 9
8 3 -7 -3 -24 -12 -40z m45 36 c0 -8 5 -7 15 1 9 7 18 10 22 6 3 -3 1 -6 -7
-6 -10 0 -10 -3 0 -15 7 -9 10 -18 7 -22 -4 -3 -9 2 -13 11 -3 9 -10 14 -14
11 -4 -3 -13 2 -20 10 -9 10 -9 15 -1 15 6 0 11 -5 11 -11z m-322 -13 c-7 -8
-15 -12 -17 -11 -5 6 10 25 20 25 5 0 4 -6 -3 -14z m-18 -37 c0 -5 -12 -15
-26 -22 l-26 -14 26 -21 c15 -11 35 -18 44 -15 14 4 14 3 3 -5 -15 -11 -28 -6
-66 23 -20 16 -20 16 -1 31 11 8 23 14 28 14 4 0 8 5 8 10 0 14 -27 12 -33 -2
-2 -7 -4 -1 -3 13 1 25 2 25 24 11 12 -8 22 -18 22 -23z m-62 6 c0 -30 -15
-42 -31 -25 -9 10 -8 12 6 7 11 -4 17 -2 16 6 -2 17 0 37 5 37 2 0 4 -11 4
-25z m321 2 c13 4 14 3 2 -5 -8 -6 -22 -7 -30 -3 -9 5 -22 7 -29 5 -7 -1 -8 0
-2 3 5 2 7 10 3 16 -3 6 4 3 16 -6 13 -8 31 -13 40 -10z m-150 -7 c-6 -5 -19
-6 -27 -3 -12 5 -12 2 -4 -14 6 -11 9 -23 6 -25 -2 -3 7 -13 22 -23 25 -16 26
-16 21 -1 -7 18 12 56 27 56 4 0 2 -7 -5 -16 -12 -15 -11 -16 6 -11 11 4 26 3
33 -2 22 -14 -16 -23 -40 -10 -18 10 -20 9 -14 -6 9 -25 -2 -36 -25 -22 -17
10 -22 9 -35 -7 -8 -11 -14 -15 -14 -9 0 7 4 15 10 18 11 7 9 33 -3 53 -12 18
-1 30 29 30 17 0 22 -3 13 -8z m-71 -45 c-2 -12 -7 -7 -15 16 -12 30 -11 32 3
17 9 -8 14 -23 12 -33z m87 25 c-3 -5 -11 -10 -16 -10 -6 0 -7 5 -4 10 3 6 11
10 16 10 6 0 7 -4 4 -10z m181 -27 c-6 -6 -46 20 -46 30 0 4 11 0 25 -9 14 -9
24 -19 21 -21z m-293 7 c3 -11 1 -20 -4 -20 -5 0 -9 9 -9 20 0 11 2 20 4 20 2
0 6 -9 9 -20z m267 -26 c0 -4 -6 -1 -14 5 -11 9 -13 6 -13 -13 0 -22 2 -24 18
-15 11 5 19 6 19 2 0 -4 7 0 15 11 13 18 14 18 12 -2 0 -12 -7 -19 -17 -17 -8
1 -21 -2 -29 -8 -10 -8 -16 -7 -26 6 -6 9 -16 13 -20 9 -5 -4 -1 4 8 17 8 13
13 30 10 39 -4 10 1 8 15 -6 12 -12 22 -25 22 -28z m-430 21 c0 -18 -12 -47
-17 -42 -2 3 1 15 7 28 11 19 10 21 -4 16 -8 -3 -18 -2 -20 2 -3 5 3 8 14 7
11 0 20 -5 20 -11z m42 -2 c-6 -3 -9 -9 -6 -14 3 -6 12 -5 21 3 12 10 17 9 28
-5 6 -9 16 -13 20 -9 4 4 0 -5 -9 -19 -9 -14 -13 -29 -9 -32 3 -4 1 -7 -5 -7
-7 0 -9 13 -7 35 5 33 3 35 -14 25 -11 -5 -21 -13 -23 -17 -3 -5 -3 -3 -2 4 2
7 -1 15 -6 18 -6 4 -10 -2 -11 -12 0 -11 -3 -13 -6 -5 -6 15 27 56 36 46 3 -4
0 -9 -7 -11z m338 7 c0 -5 -5 -10 -11 -10 -5 0 -7 5 -4 10 3 6 8 10 11 10 2 0
4 -4 4 -10z m-184 -46 c-10 -14 -20 -23 -23 -20 -3 3 2 12 11 21 9 9 16 21 16
27 0 6 3 8 6 5 4 -4 -1 -18 -10 -33z m174 22 c0 -3 -4 -8 -10 -11 -5 -3 -10
-1 -10 4 0 6 5 11 10 11 6 0 10 -2 10 -4z m-65 -33 c-5 -10 -7 -21 -7 -25 1
-5 -2 -8 -8 -8 -13 0 -13 3 2 35 6 14 13 23 16 20 2 -2 1 -12 -3 -22z m32 5
c-3 -8 -6 -5 -6 6 -1 11 2 17 5 13 3 -3 4 -12 1 -19z m-73 -17 c-4 -3 -9 0
-11 7 -3 6 -10 9 -15 6 -7 -4 -8 -2 -4 5 6 9 11 9 22 0 8 -6 12 -15 8 -18z
m-199 9 c3 -5 1 -10 -4 -10 -6 0 -11 5 -11 10 0 6 2 10 4 10 3 0 8 -4 11 -10z
m72 4 c-3 -3 -12 -4 -19 -1 -8 3 -5 6 6 6 11 1 17 -2 13 -5z m253 -23 c0 -5
-7 -12 -16 -15 -15 -6 -15 -4 -3 10 12 15 11 16 -11 11 -14 -4 -19 -4 -12 -1
6 3 9 10 6 16 -4 6 2 5 15 -1 11 -7 21 -16 21 -20z m-372 10 c11 -7 10 -9 -3
-14 -9 -4 -14 -3 -10 2 3 5 -1 12 -7 14 -7 3 -8 6 -3 6 6 0 16 -3 23 -8z m157
-20 c-6 -5 -25 10 -25 20 0 5 6 4 14 -3 8 -7 12 -15 11 -17z m-55 12 c-1 -5
-7 -19 -15 -33 -10 -18 -14 -20 -15 -8 0 9 5 20 10 23 6 4 8 11 5 16 -4 5 -1
9 4 9 6 0 11 -3 11 -7z m90 1 c0 -3 -9 -18 -19 -33 -20 -28 -22 -46 -7 -70 6
-9 4 -18 -7 -26 -9 -7 -13 -16 -9 -20 4 -5 -4 -1 -17 8 -13 8 -30 13 -39 10
-10 -4 -8 1 6 15 24 24 41 30 23 8 -9 -11 -6 -13 13 -13 22 0 24 2 15 18 -5
11 -6 19 -2 19 4 0 -1 7 -11 15 -17 13 -17 15 -3 15 16 0 43 37 39 53 -1 4 3
7 8 7 6 0 10 -3 10 -6z m52 -14 c18 -11 27 -20 20 -20 -8 0 -25 9 -39 20 -33
26 -23 26 19 0z m74 6 c19 -19 18 -32 -1 -16 -18 15 -20 -1 -2 -19 10 -11 10
-13 0 -7 -7 4 -13 3 -13 -3 0 -5 6 -12 13 -14 9 -4 9 -6 -1 -6 -7 -1 -15 6
-18 14 -4 8 -11 12 -16 9 -6 -4 -3 5 6 18 9 14 13 28 9 31 -3 4 -3 7 1 7 4 0
14 -6 22 -14z m-284 -3 c-6 -2 -10 -9 -7 -14 4 -5 -2 -6 -12 -3 -16 5 -16 4 1
-10 11 -9 17 -18 14 -21 -3 -3 -12 1 -21 9 -8 8 -16 14 -19 13 -2 -1 5 6 15
16 11 9 24 17 31 16 7 0 6 -2 -2 -6z m108 -13 c13 -8 13 -10 -2 -10 -9 0 -20
5 -23 10 -8 13 5 13 25 0z m56 -15 c-9 -9 -16 -21 -16 -27 0 -6 -3 -8 -6 -5
-4 4 1 18 10 33 10 14 20 23 23 20 3 -3 -2 -12 -11 -21z m-119 -30 c24 -16 25
-16 19 3 -4 11 -2 23 3 26 6 4 9 -3 7 -16 -4 -32 -16 -58 -28 -58 -7 0 -6 5 1
14 9 11 6 17 -14 30 -14 9 -24 24 -24 34 1 15 2 15 6 0 2 -9 16 -24 30 -33z
m173 20 c0 -1 -12 -2 -26 -2 -17 0 -22 2 -13 7 10 7 39 3 39 -5z m90 -30 c-7
-8 -18 -15 -24 -15 -6 0 -3 5 6 11 11 6 15 16 11 27 -5 14 -3 15 7 5 11 -10
11 -15 0 -28z m-335 7 c-3 -3 -11 0 -18 7 -9 10 -8 11 6 5 10 -3 15 -9 12 -12z
m204 -35 c1 -5 -3 -5 -9 -2 -5 3 -10 16 -9 28 0 21 1 21 9 2 5 -11 9 -24 9
-28z m75 34 c5 -1 7 -4 3 -7 -3 -4 2 -14 11 -23 12 -10 12 -13 2 -6 -8 5 -21
16 -28 24 -11 14 -14 14 -22 1 -5 -8 -10 -10 -10 -5 0 6 -5 3 -11 -5 -9 -13
-10 -13 -6 2 3 9 1 19 -6 21 -10 4 31 2 67 -2z m-224 -11 c8 -5 11 -10 5 -10
-5 0 -17 5 -25 10 -8 5 -10 10 -5 10 6 0 17 -5 25 -10z m310 6 c0 -2 -8 -10
-17 -17 -16 -13 -17 -12 -4 4 13 16 21 21 21 13z m-330 -22 c0 -2 -7 -4 -15
-4 -8 0 -15 4 -15 10 0 5 7 7 15 4 8 -4 15 -8 15 -10z m19 -45 c-5 -10 -9 -22
-9 -28 0 -18 18 -12 23 7 3 13 4 12 3 -3 -1 -11 -8 -20 -16 -20 -10 0 -14 8
-12 25 1 14 3 34 3 45 0 16 2 17 9 5 5 -8 5 -21 -1 -31z m211 31 c0 -5 -7 -7
-15 -4 -8 4 -15 2 -15 -4 0 -18 29 -21 39 -4 9 15 10 15 11 1 0 -9 -6 -19 -14
-22 -19 -7 -51 17 -42 31 9 14 36 16 36 2z m-230 -12 c0 -4 -5 -8 -11 -8 -5 0
-8 -4 -5 -8 3 -5 -1 -9 -9 -9 -8 0 -15 4 -15 9 0 4 5 8 11 8 5 0 8 4 5 8 -3 5
1 9 9 9 8 0 15 -4 15 -9z m136 -29 c-9 -19 -15 -29 -16 -22 0 15 22 64 27 60
2 -2 -3 -19 -11 -38z m24 -9 c-11 -22 -17 -40 -13 -40 5 0 0 -5 -10 -11 -10
-6 -21 -8 -24 -5 -4 3 -2 6 4 6 6 0 16 15 23 33 13 32 29 57 36 57 3 0 -5 -18
-16 -40z m-90 9 c0 -5 3 -8 8 -6 4 3 12 -1 18 -7 9 -10 5 -13 -20 -13 -17 0
-25 2 -18 5 10 3 10 7 1 18 -8 10 -8 14 0 14 6 0 11 -5 11 -11z m131 -3 c5 3
9 0 9 -6 0 -15 -23 -7 -26 8 -1 7 0 8 3 2 2 -5 9 -8 14 -4z m-16 -37 c-4 -5
-12 -9 -18 -8 -9 0 -8 2 1 6 6 2 9 10 6 15 -4 7 -2 8 5 4 6 -4 9 -12 6 -17z
m-87 -21 c-23 -23 -35 -24 -17 -1 12 14 12 16 -2 11 -9 -3 -21 -3 -28 1 -7 5
5 8 27 8 38 0 38 -1 20 -19z m-42 -16 c-4 -3 -14 2 -24 12 -16 18 -16 18 6 6
13 -6 21 -14 18 -18z m-51 8 c-3 -5 -11 -10 -16 -10 -6 0 -7 5 -4 10 3 6 11
10 16 10 6 0 7 -4 4 -10z m25 -20 c0 -5 -4 -10 -10 -10 -5 0 -10 5 -10 10 0 6
5 10 10 10 6 0 10 -4 10 -10z m-19 -27 c13 -15 12 -15 -8 -4 -24 12 -29 21
-14 21 5 0 15 -7 22 -17z"/>
<path d="M2196 2884 c-5 -14 -4 -15 9 -4 17 14 19 20 6 20 -5 0 -12 -7 -15
-16z"/>
<path d="M2305 2840 c-3 -5 -1 -10 4 -10 6 0 11 5 11 10 0 6 -2 10 -4 10 -3 0
-8 -4 -11 -10z"/>
<path d="M1716 2724 c-5 -14 -4 -15 9 -4 17 14 19 20 6 20 -5 0 -12 -7 -15
-16z"/>
<path d="M2510 2646 c0 -2 7 -9 15 -16 9 -7 15 -8 15 -2 0 5 -7 12 -15 16 -8
3 -15 4 -15 2z"/>
<path d="M2487 2462 c-34 -21 -34 -24 1 -44 31 -19 52 -9 52 23 0 30 -23 39
-53 21z m39 -22 c0 -11 -4 -20 -8 -20 -4 0 -8 9 -8 20 0 11 4 20 8 20 4 0 8
-9 8 -20z"/>
<path d="M1577 2448 c-15 -12 -15 -15 3 -38 l20 -25 20 25 c18 23 18 26 3 38
-9 6 -20 12 -23 12 -3 0 -14 -6 -23 -12z m36 -15 c-7 -2 -19 -2 -25 0 -7 3 -2
5 12 5 14 0 19 -2 13 -5z"/>
<path d="M1780 2336 c0 -2 7 -9 15 -16 13 -11 14 -10 9 4 -5 14 -24 23 -24 12z"/>
<path d="M2950 2164 c0 -8 5 -12 10 -9 6 3 10 10 10 16 0 5 -4 9 -10 9 -5 0
-10 -7 -10 -16z"/>
<path d="M2116 2075 c4 -8 11 -15 16 -15 6 0 5 6 -2 15 -7 8 -14 15 -16 15 -2
0 -1 -7 2 -15z"/>
<path d="M2280 2085 c-11 -13 -10 -14 4 -9 9 3 16 10 16 15 0 13 -6 11 -20 -6z"/>
<path d="M2590 2000 c-8 -5 -12 -12 -9 -15 4 -3 12 1 19 10 14 17 11 19 -10 5z"/>
<path d="M2315 2050 c-3 -5 -1 -10 4 -10 6 0 11 5 11 10 0 6 -2 10 -4 10 -3 0
-8 -4 -11 -10z"/>
<path d="M2510 1846 c0 -2 7 -9 15 -16 9 -7 15 -8 15 -2 0 5 -7 12 -15 16 -8
3 -15 4 -15 2z"/>
<path d="M2592 1828 c-7 -7 -12 -19 -12 -28 0 -31 21 -41 52 -22 15 9 28 19
28 22 0 3 -13 13 -28 22 -22 13 -32 14 -40 6z m18 -28 c0 -11 -4 -20 -8 -20
-4 0 -8 9 -8 20 0 11 4 20 8 20 4 0 8 -9 8 -20z"/>
<path d="M1680 2890 c0 -5 5 -10 11 -10 5 0 7 5 4 10 -3 6 -8 10 -11 10 -2 0
-4 -4 -4 -10z"/>
</g>
</svg>
