<?xml version="1.0" standalone="no"?>
<!DOCTYPE svg PUBLIC "-//W3C//DTD SVG 20010904//EN"
 "http://www.w3.org/TR/2001/REC-SVG-20010904/DTD/svg10.dtd">
<svg version="1.0" xmlns="http://www.w3.org/2000/svg"
 width="300.000000pt" height="300.000000pt" viewBox="0 0 300.000000 300.000000"
 preserveAspectRatio="xMidYMid meet">
<metadata>
Created by potrace 1.14, written by Peter Selinger 2001-2017
</metadata>
<g transform="translate(0.000000,300.000000) scale(0.100000,-0.100000)"
fill="#000000" stroke="none">
<path d="M2015 2981 c4 -11 2 -11 -9 -2 -14 12 -76 12 -76 0 0 -4 -10 -6 -23
-6 -37 0 -167 -46 -160 -56 4 -6 -1 -8 -11 -4 -13 5 -15 2 -12 -18 3 -14 1
-27 -4 -30 -4 -3 -7 3 -5 12 1 10 1 21 -2 25 -5 9 -53 -12 -53 -24 0 -4 -3 -7
-7 -7 -24 4 -35 -3 -29 -17 3 -8 2 -12 -4 -9 -13 8 -52 -14 -45 -26 4 -5 2 -8
-4 -7 -12 4 -71 -34 -71 -45 0 -5 4 -6 9 -2 5 3 12 1 15 -4 4 -5 -5 -8 -19 -6
-19 2 -33 -7 -55 -35 -16 -20 -26 -41 -22 -45 4 -5 2 -5 -5 -1 -14 8 -27 -10
-17 -25 4 -8 9 -7 16 2 8 12 9 12 6 0 -2 -8 -12 -15 -21 -17 -9 -1 -15 2 -11
7 3 5 1 9 -4 9 -6 0 -19 -18 -30 -40 -10 -22 -22 -37 -25 -33 -4 3 -4 -4 -2
-16 2 -12 0 -19 -5 -16 -5 3 -25 -28 -44 -70 l-35 -75 -78 -1 c-43 0 -89 -2
-103 -5 -14 -2 -54 -8 -88 -14 -414 -69 -785 -392 -921 -800 -45 -135 -59
-235 -56 -395 2 -82 6 -166 10 -185 34 -186 107 -359 209 -500 56 -78 220
-239 291 -287 123 -82 246 -139 375 -173 116 -30 163 -35 330 -34 175 1 277
20 429 81 305 122 557 379 674 688 50 131 74 260 78 420 1 42 6 72 11 69 5 -3
16 2 24 12 9 11 13 14 10 7 -4 -7 1 -9 14 -6 22 6 26 19 8 25 -8 3 -6 7 5 11
9 3 16 3 16 -1 -5 -28 10 -23 98 35 37 25 50 39 47 51 -5 14 -4 15 4 2 12 -15
12 -15 85 51 30 27 39 54 26 79 -5 11 -2 16 11 16 10 0 16 -5 12 -11 -8 -13
-12 -35 -5 -35 9 0 42 45 43 58 0 6 4 12 10 12 13 0 41 56 32 65 -4 5 -2 5 5
1 15 -8 63 82 55 103 -3 8 0 11 7 7 7 -4 11 1 11 13 0 11 5 23 10 26 6 4 8 10
5 15 -3 5 -1 11 5 15 6 4 8 11 4 16 -3 5 -10 6 -16 3 -7 -4 -8 -2 -4 5 4 6 11
9 16 6 9 -6 16 11 24 57 3 15 8 33 12 39 5 8 3 9 -7 4 -11 -7 -12 -6 -2 6 7 8
12 24 12 34 1 11 2 54 4 95 3 59 0 78 -12 88 -14 10 -14 11 -1 7 11 -4 16 1
16 15 0 11 -4 20 -8 20 -4 0 -8 -5 -8 -12 0 -6 -3 -8 -6 -5 -4 4 -1 13 6 22 7
9 9 22 5 32 -5 10 -7 24 -6 32 1 8 -3 18 -11 22 -9 6 -10 9 -1 9 7 0 10 7 7
15 -4 8 -10 13 -14 10 -5 -3 -6 3 -3 14 3 10 0 22 -6 25 -5 4 -8 13 -4 21 3 8
0 15 -7 15 -6 0 -9 3 -7 8 8 13 -12 52 -25 48 -7 -1 -10 -1 -5 1 9 6 9 33 0
33 -3 0 -16 -8 -27 -17 -17 -15 -19 -15 -8 -1 7 9 9 18 5 20 -4 3 -3 3 4 2 26
-6 21 14 -19 76 -38 60 -41 63 -54 45 -8 -10 -14 -14 -14 -9 0 6 5 15 11 21
13 13 3 36 -12 28 -5 -3 -6 1 -3 10 5 12 2 16 -11 13 -11 -2 -19 4 -20 14 -3
17 -35 56 -35 43 0 -4 -11 7 -24 23 -26 30 -151 118 -177 124 -8 2 -16 6 -19
9 -11 12 -102 49 -125 51 -14 1 -25 6 -25 11 0 5 -7 7 -15 4 -8 -4 -17 -2 -20
3 -4 6 -13 10 -21 10 -8 0 -13 -4 -9 -9 3 -5 1 -13 -5 -16 -6 -4 -10 -3 -9 2
3 19 -2 33 -12 33 -5 0 -7 -6 -3 -12 6 -9 3 -9 -9 0 -22 19 -42 10 -42 -18 0
-13 -7 -25 -15 -27 -9 -3 -11 -1 -5 4 6 4 11 19 10 32 0 21 -5 25 -33 26 -21
1 -31 -3 -28 -10 2 -6 -2 -12 -9 -12 -7 0 -11 6 -9 12 4 8 -12 12 -51 11 -43
-1 -54 -4 -50 -15z m-15 -16 c0 -2 -6 -5 -13 -8 -8 -3 -14 1 -14 8 0 7 6 11
14 8 7 -3 13 -6 13 -8z m87 -15 c-1 -11 -5 -20 -9 -20 -10 0 -10 4 -2 24 8 22
13 20 11 -4z m-240 -22 c2 -17 0 -19 -7 -8 -5 8 -6 18 -4 22 8 12 10 10 11
-14z m168 13 c-9 -8 -36 -10 -30 -2 2 4 11 8 20 8 8 0 13 -3 10 -6z m151 -17
c-1 -8 -8 -19 -14 -24 -9 -7 -9 -7 -2 2 6 7 6 18 -1 29 -7 14 -6 17 5 13 8 -3
13 -12 12 -20z m80 1 c-1 -8 -5 -17 -8 -21 -5 -4 -4 16 1 34 3 9 9 -1 7 -13z
m-442 -11 c3 -8 2 -12 -4 -9 -6 3 -10 10 -10 16 0 14 7 11 14 -7z m93 -6 c-3
-8 -6 -5 -6 6 -1 11 2 17 5 13 3 -3 4 -12 1 -19z m370 0 c-3 -8 -6 -5 -6 6 -1
11 2 17 5 13 3 -3 4 -12 1 -19z m77 6 c3 -8 2 -12 -4 -9 -6 3 -10 10 -10 16 0
14 7 11 14 -7z m-409 -12 c-3 -3 -11 0 -18 7 -9 10 -8 11 6 5 10 -3 15 -9 12
-12z m79 2 c5 -14 4 -15 -9 -4 -17 14 -19 20 -6 20 5 0 12 -7 15 -16z m-49
-39 c1 -19 -1 -32 -4 -29 -3 3 -6 21 -6 39 -1 19 1 32 4 29 3 -3 6 -21 6 -39z
m125 38 c0 -5 -5 -15 -10 -23 -7 -12 -9 -10 -7 8 1 19 17 33 17 15z m123 -10
c-4 -10 -9 -11 -19 -2 -18 15 -18 15 5 15 11 0 17 -5 14 -13z m238 2 c-4 -5
-7 -24 -6 -42 0 -17 -3 -29 -7 -27 -4 3 -6 15 -4 27 2 12 0 29 -4 37 -6 12 -3
16 10 16 11 0 16 -4 11 -11z m-676 -15 c-13 -14 -14 -20 -5 -20 7 0 11 -3 7
-6 -3 -3 -11 -3 -17 1 -8 5 -6 13 6 26 9 10 19 19 22 19 3 0 -3 -9 -13 -20z
m616 -22 c-10 -11 -11 -9 -5 6 5 12 4 17 -3 13 -5 -3 -10 1 -10 9 0 13 2 13
16 0 12 -13 13 -18 2 -28z m-487 16 c3 -8 2 -12 -4 -9 -6 3 -10 10 -10 16 0
14 7 11 14 -7z m31 6 c3 -6 -1 -7 -9 -4 -18 7 -21 14 -7 14 6 0 13 -4 16 -10z
m369 -6 c3 -8 2 -12 -4 -9 -6 3 -10 10 -10 16 0 14 7 11 14 -7z m-294 -8 c0
-2 -7 -7 -16 -10 -8 -3 -12 -2 -9 4 6 10 25 14 25 6z m37 -2 c-3 -3 -12 -4
-19 -1 -8 3 -5 6 6 6 11 1 17 -2 13 -5z m85 -16 c-2 -10 -6 -18 -7 -18 -1 0
-5 8 -7 18 -3 11 0 19 7 19 7 0 10 -8 7 -19z m74 -3 c0 -28 -8 -24 -13 5 -2
11 1 20 5 20 4 0 8 -11 8 -25z m312 -6 c-3 -8 -7 -3 -11 10 -4 17 -3 21 5 13
5 -5 8 -16 6 -23z m25 6 c-7 -21 -12 -19 -10 4 0 11 5 18 9 15 4 -3 5 -11 1
-19z m-884 -1 c4 3 8 -1 8 -9 0 -11 -4 -12 -14 -4 -7 6 -13 17 -12 23 0 7 2 6
6 -2 2 -6 8 -10 12 -8z m109 -10 c1 -1 -5 -4 -15 -6 -13 -4 -19 0 -19 13 0 14
3 16 16 6 8 -6 16 -12 18 -13z m299 11 c0 -8 -4 -12 -9 -9 -5 3 -6 10 -3 15 9
13 12 11 12 -6z m-49 -20 c-3 -3 -9 2 -12 12 -6 14 -5 15 5 6 7 -7 10 -15 7
-18z m26 9 c3 -8 2 -12 -4 -9 -6 3 -10 10 -10 16 0 14 7 11 14 -7z m322 3 c3
-3 -15 -4 -41 -2 -25 1 -48 5 -51 8 -3 3 15 4 41 2 25 -1 48 -5 51 -8z m-761
-18 c-3 -12 -7 -24 -10 -27 -3 -3 -3 5 -1 19 6 30 5 29 10 29 3 0 3 -10 1 -21z
m200 -16 c-1 -16 5 -37 14 -48 15 -18 15 -19 0 -7 -9 6 -18 10 -21 7 -3 -4 -3
63 1 73 4 10 8 -3 6 -25z m42 21 c-3 -3 -12 -4 -19 -1 -8 3 -5 6 6 6 11 1 17
-2 13 -5z m41 -11 c-6 -7 -12 -13 -13 -13 -2 0 -5 6 -8 13 -3 7 3 13 14 13 13
0 15 -3 7 -13z m365 0 c-4 -10 -2 -14 4 -10 5 3 10 0 10 -8 0 -9 -4 -11 -11
-6 -6 5 -26 8 -44 6 -18 -1 -34 1 -37 5 -3 4 9 6 25 5 16 -1 35 4 41 11 15 19
20 18 12 -3z m-546 -15 c-3 -8 -6 -5 -6 6 -1 11 2 17 5 13 3 -3 4 -12 1 -19z
m280 3 c-1 -12 -5 -17 -12 -12 -5 5 -18 7 -27 6 -10 -2 -20 0 -23 5 -2 4 9 6
25 5 17 -1 30 1 30 6 0 5 2 9 4 9 3 0 4 -9 3 -19z m160 0 c-1 -12 -5 -17 -12
-12 -5 4 -34 7 -63 6 -29 0 -55 2 -57 5 -2 4 25 6 61 5 35 0 64 3 64 7 0 4 2
8 4 8 3 0 4 -9 3 -19z m201 -6 c-3 -3 -9 2 -12 12 -6 14 -5 15 5 6 7 -7 10
-15 7 -18z m72 10 c-6 -8 -8 -20 -4 -27 6 -10 3 -9 -9 1 -16 13 -16 14 0 27
24 18 28 17 13 -1z m77 9 c-3 -3 -12 -4 -19 -1 -8 3 -5 6 6 6 11 1 17 -2 13
-5z m127 -7 c3 4 6 1 6 -6 0 -8 -6 -11 -16 -7 -9 4 -22 2 -28 -3 -8 -7 -12 -4
-12 8 0 15 5 17 22 11 12 -5 25 -6 28 -3z m-939 -6 c-3 -2 1 -11 7 -20 12 -15
11 -15 -7 0 -11 9 -32 15 -47 14 -15 -1 -25 1 -23 4 2 4 19 7 39 7 19 0 33 -2
31 -5z m165 5 c0 -2 -7 -7 -16 -10 -8 -3 -12 -2 -9 4 6 10 25 14 25 6z m-280
-20 c0 -2 -9 -6 -20 -9 -11 -3 -18 -1 -14 4 5 9 34 13 34 5z m317 -8 c-2 -7
-1 -20 4 -29 5 -10 3 -16 -6 -16 -8 0 -11 7 -7 16 5 14 4 14 -14 1 -18 -14
-18 -14 -1 6 9 11 14 24 10 27 -3 4 -1 7 6 7 7 0 11 -6 8 -12z m648 2 c3 -6
-1 -7 -9 -4 -18 7 -21 14 -7 14 6 0 13 -4 16 -10z m-918 -22 c-3 -8 -6 -5 -6
6 -1 11 2 17 5 13 3 -3 4 -12 1 -19z m26 7 c-3 -9 -8 -14 -10 -11 -3 3 -2 9 2
15 9 16 15 13 8 -4z m420 0 c-3 -9 -8 -14 -10 -11 -3 3 -2 9 2 15 9 16 15 13
8 -4z m160 0 c-3 -9 -8 -14 -10 -11 -3 3 -2 9 2 15 9 16 15 13 8 -4z m85 -10
c-3 -3 -9 2 -12 12 -6 14 -5 15 5 6 7 -7 10 -15 7 -18z m69 3 c-3 -8 -6 -5 -6
6 -1 11 2 17 5 13 3 -3 4 -12 1 -19z m-793 -4 c3 -8 2 -12 -4 -9 -6 3 -10 10
-10 16 0 14 7 11 14 -7z m166 4 c0 -11 -12 -10 -30 2 -12 7 -10 9 8 7 12 0 22
-5 22 -9z m271 -5 c13 -15 12 -15 -7 -5 -16 8 -24 8 -34 -1 -12 -10 -12 -9 -1
6 17 21 25 21 42 0z m160 0 c13 -15 12 -15 -7 -5 -16 8 -24 8 -34 -1 -12 -10
-12 -9 -1 6 17 21 25 21 42 0z m435 -16 c6 -8 3 -8 -9 1 -9 8 -20 11 -25 8 -5
-3 -9 1 -9 9 0 16 31 4 43 -18z m69 23 c3 -5 1 -10 -4 -10 -6 0 -11 5 -11 10
0 6 2 10 4 10 3 0 8 -4 11 -10z m-996 -27 c-12 -14 -12 -16 2 -11 9 4 16 1 16
-7 0 -9 -6 -11 -16 -6 -19 9 -52 8 -66 -1 -6 -4 -12 3 -12 15 -1 12 1 17 5 12
10 -14 48 -13 64 3 18 18 23 15 7 -5z m235 5 c-5 -7 -2 -9 8 -6 8 4 15 0 15
-7 0 -10 -5 -11 -19 -4 -16 9 -17 29 -2 29 3 0 2 -5 -2 -12z m524 -5 c-6 -7
-12 -13 -13 -13 -2 0 -5 6 -8 13 -3 7 3 13 14 13 13 0 15 -3 7 -13z m47 7 c3
-6 -1 -7 -9 -4 -18 7 -21 14 -7 14 6 0 13 -4 16 -10z m-1005 -4 c0 -2 -7 -9
-15 -16 -13 -11 -14 -10 -9 4 5 14 24 23 24 12z m77 -2 c-3 -3 -12 -4 -19 -1
-8 3 -5 6 6 6 11 1 17 -2 13 -5z m240 0 c-3 -3 -12 -4 -19 -1 -8 3 -5 6 6 6
11 1 17 -2 13 -5z m250 -16 c-3 -8 -6 -5 -6 6 -1 11 2 17 5 13 3 -3 4 -12 1
-19z m50 8 c0 -8 -8 -11 -21 -8 -19 5 -19 6 0 13 10 4 19 8 20 8 0 1 1 -5 1
-13z m110 -8 c-3 -8 -6 -5 -6 6 -1 11 2 17 5 13 3 -3 4 -12 1 -19z m89 3 c0
-11 -5 -17 -13 -14 -10 4 -11 9 -2 19 15 18 15 18 15 -5z m362 -6 c-3 -3 -9 2
-12 12 -6 14 -5 15 5 6 7 -7 10 -15 7 -18z m-818 -17 c0 -19 -16 -5 -17 14 -2
18 0 20 7 8 5 -8 10 -18 10 -22z m420 20 c0 -6 -3 -8 -7 -5 -3 4 -11 2 -18 -3
-8 -7 -12 -6 -12 3 0 7 9 14 19 14 10 1 18 -3 18 -9z m460 0 c0 -6 -3 -8 -7
-5 -3 4 -11 2 -18 -3 -8 -7 -12 -6 -12 3 0 7 9 14 19 14 10 1 18 -3 18 -9z
m-1198 -30 c-7 -27 -17 -29 -17 -4 0 13 5 23 11 23 6 0 9 -9 6 -19z m240 0
c-2 -10 -6 -18 -7 -18 -1 0 -5 8 -7 18 -3 11 0 19 7 19 7 0 10 -8 7 -19z m164
10 c3 -4 -1 -5 -10 -4 -8 1 -18 5 -22 8 -3 4 1 5 10 4 8 -1 18 -5 22 -8z m158
4 c2 -4 -4 -8 -14 -8 -10 0 -16 4 -14 8 3 4 9 8 14 8 5 0 11 -4 14 -8z m286 4
c0 -2 -8 -10 -17 -17 -16 -13 -17 -12 -4 4 13 16 21 21 21 13z m66 -20 c0 -13
-4 -22 -8 -20 -9 6 -6 44 3 44 4 0 6 -11 5 -24z m93 9 c6 3 8 0 5 -8 -2 -7
-11 -14 -19 -14 -8 0 -13 3 -10 5 3 3 -1 12 -8 21 -10 14 -10 14 5 3 9 -8 22
-11 27 -7z m124 -3 c3 7 4 3 4 -9 -1 -18 -4 -20 -16 -10 -12 10 -14 9 -9 -4 4
-9 1 -16 -7 -16 -10 0 -11 5 -5 17 6 11 5 22 -3 31 -7 7 -2 5 9 -4 17 -14 23
-15 27 -5z m-1203 -7 c-7 -9 -15 -13 -19 -10 -3 3 1 10 9 15 21 14 24 12 10
-5z m45 6 c3 -5 2 -12 -3 -15 -5 -3 -9 1 -9 9 0 17 3 19 12 6z m111 -13 c12
-14 13 -18 3 -10 -9 6 -18 10 -21 7 -2 -3 -5 2 -5 10 0 19 0 19 23 -7z m132
-3 c-3 -3 -9 2 -12 12 -6 14 -5 15 5 6 7 -7 10 -15 7 -18z m589 3 c-3 -8 -6
-5 -6 6 -1 11 2 17 5 13 3 -3 4 -12 1 -19z m-790 -10 c-3 -8 -6 -5 -6 6 -1 11
2 17 5 13 3 -3 4 -12 1 -19z m373 7 c0 -2 -6 -5 -13 -8 -8 -3 -14 1 -14 8 0 7
6 11 14 8 7 -3 13 -6 13 -8z m70 5 c0 -5 -4 -10 -10 -10 -5 0 -10 5 -10 10 0
6 5 10 10 10 6 0 10 -4 10 -10z m60 0 c0 -5 -4 -10 -10 -10 -5 0 -10 5 -10 10
0 6 5 10 10 10 6 0 10 -4 10 -10z m100 0 c0 -5 -4 -10 -10 -10 -5 0 -10 5 -10
10 0 6 5 10 10 10 6 0 10 -4 10 -10z m60 0 c0 -5 -4 -10 -10 -10 -5 0 -10 5
-10 10 0 6 5 10 10 10 6 0 10 -4 10 -10z m97 -12 c-3 -8 -6 -5 -6 6 -1 11 2
17 5 13 3 -3 4 -12 1 -19z m-17 8 c0 -2 -8 -10 -17 -17 -16 -13 -17 -12 -4 4
13 16 21 21 21 13z m-361 -23 c-12 -14 -12 -16 2 -11 9 4 16 1 16 -7 0 -11 -5
-11 -19 -4 -15 8 -17 13 -7 25 6 8 14 14 16 14 3 0 -1 -8 -8 -17z m161 3 c-7
-7 -13 -7 -20 0 -6 6 -3 10 10 10 13 0 16 -4 10 -10z m153 -4 c15 -16 15 -19
2 -19 -8 0 -13 3 -10 5 3 3 0 11 -6 19 -17 20 -5 16 14 -5z m518 -9 c-12 -20
-14 -14 -5 12 4 9 9 14 11 11 3 -2 0 -13 -6 -23z m-1067 3 c10 4 16 1 16 -7 0
-7 -3 -9 -7 -6 -3 4 -15 -1 -25 -10 -18 -16 -18 -16 -12 2 5 11 4 16 -3 12 -5
-3 -10 0 -10 8 0 10 4 12 12 5 7 -6 20 -8 29 -4z m52 -5 c0 -11 -5 -17 -13
-14 -10 4 -11 9 -2 19 15 18 15 18 15 -5z m121 -3 c-3 -8 -6 -5 -6 6 -1 11 2
17 5 13 3 -3 4 -12 1 -19z m493 7 c0 -1 -6 -7 -13 -13 -10 -8 -13 -6 -13 7 0
11 6 17 13 14 7 -3 13 -6 13 -8z m62 3 c-15 -15 -52 -21 -52 -9 0 6 9 8 20 6
11 -2 22 0 25 6 4 5 9 9 13 9 3 0 1 -5 -6 -12z m105 6 c-3 -3 -12 -4 -19 -1
-8 3 -5 6 6 6 11 1 17 -2 13 -5z m193 -9 c0 -2 -6 -5 -13 -8 -8 -3 -14 1 -14
8 0 7 6 11 14 8 7 -3 13 -6 13 -8z m-1193 -12 c0 -9 -4 -10 -14 -2 -7 6 -13
12 -13 14 0 1 6 2 13 2 8 0 14 -6 14 -14z m57 1 c3 -8 2 -12 -4 -9 -6 3 -10
10 -10 16 0 14 7 11 14 -7z m263 -1 c0 -8 -5 -9 -11 -4 -6 4 -23 7 -38 6 -15
-1 -25 1 -23 4 7 13 72 7 72 -6z m210 -5 c-3 -8 -6 -5 -6 6 -1 11 2 17 5 13 3
-3 4 -12 1 -19z m50 8 c0 -8 -8 -11 -21 -8 -19 5 -19 6 0 13 10 4 19 8 20 8 0
1 1 -5 1 -13z m110 -8 c-3 -8 -6 -5 -6 6 -1 11 2 17 5 13 3 -3 4 -12 1 -19z
m353 12 c0 -5 -4 -10 -10 -10 -5 0 -10 5 -10 10 0 6 5 10 10 10 6 0 10 -4 10
-10z m-1070 -14 c0 -2 -8 -10 -17 -17 -16 -13 -17 -12 -4 4 13 16 21 21 21 13z
m1117 -2 c-3 -3 -12 -4 -19 -1 -8 3 -5 6 6 6 11 1 17 -2 13 -5z m118 -3 c-9
-8 -36 -10 -30 -2 2 4 11 8 20 8 8 0 13 -3 10 -6z m-1352 -16 c-3 -9 -8 -14
-10 -11 -3 3 -2 9 2 15 9 16 15 13 8 -4z m74 -7 c-3 -8 -6 -5 -6 6 -1 11 2 17
5 13 3 -3 4 -12 1 -19z m320 0 c-3 -8 -6 -5 -6 6 -1 11 2 17 5 13 3 -3 4 -12
1 -19z m26 7 c-3 -9 -8 -14 -10 -11 -3 3 -2 9 2 15 9 16 15 13 8 -4z m211 7
c20 10 20 10 4 -8 -17 -17 -19 -17 -33 -1 -8 9 -10 13 -4 7 8 -6 20 -5 33 2z
m160 0 c20 10 20 10 4 -8 -17 -17 -19 -17 -33 -1 -8 9 -10 13 -4 7 8 -6 20 -5
33 2z m73 -7 c0 -8 -4 -12 -9 -9 -5 3 -6 10 -3 15 9 13 12 11 12 -6z m-601 -8
c3 -3 -15 -4 -41 -2 -25 1 -48 5 -51 8 -3 3 15 4 41 2 25 -1 48 -5 51 -8z
m101 -9 c-3 -8 -6 -5 -6 6 -1 11 2 17 5 13 3 -3 4 -12 1 -19z m163 10 c0 -11
-12 -10 -30 2 -12 7 -10 9 8 7 12 0 22 -5 22 -9z m154 -4 c3 -8 2 -12 -4 -9
-6 3 -10 10 -10 16 0 14 7 11 14 -7z m160 0 c3 -8 2 -12 -4 -9 -6 3 -10 10
-10 16 0 14 7 11 14 -7z m117 -1 c12 -16 12 -17 -2 -6 -9 7 -19 10 -22 6 -4
-3 -7 -1 -7 5 0 17 16 15 31 -5z m146 10 c-4 -3 -1 -13 6 -22 11 -14 10 -14
-5 -2 -21 15 -23 31 -6 31 6 0 8 -3 5 -7z m134 -10 c13 -16 12 -17 -3 -4 -17
13 -22 21 -14 21 2 0 10 -8 17 -17z m126 3 c0 -8 -8 -11 -21 -8 -19 5 -19 6 0
13 10 4 19 8 20 8 0 1 1 -5 1 -13z m-1017 0 c0 -2 -8 -10 -17 -17 -16 -13 -17
-12 -4 4 13 16 21 21 21 13z m-195 -16 c-4 -6 -1 -19 7 -28 11 -15 11 -16 -3
-4 -9 7 -24 10 -33 6 -9 -3 -16 -1 -16 6 0 6 4 9 9 6 5 -3 14 1 21 9 14 17 24
20 15 5z m318 -7 c-4 -10 -2 -14 4 -10 5 3 10 0 10 -8 0 -10 -4 -12 -12 -5 -7
6 -20 8 -29 4 -9 -3 -16 -1 -16 6 0 6 4 9 9 6 5 -3 14 1 21 9 16 20 21 19 13
-2z m595 0 c-6 -7 -12 -13 -13 -13 -2 0 -5 6 -8 13 -3 7 3 13 14 13 13 0 15
-3 7 -13z m243 2 c-5 -5 -7 -18 -6 -27 2 -10 0 -20 -4 -23 -4 -2 -7 8 -6 23 1
15 -3 30 -9 34 -6 4 -1 6 11 5 14 -1 19 -5 14 -12z m129 11 c0 -2 -8 -10 -17
-17 -16 -13 -17 -12 -4 4 13 16 21 21 21 13z m26 -25 c0 -16 -3 -27 -6 -25 -7
8 -7 54 0 54 4 0 7 -13 6 -29z m-1418 7 c-5 -13 -56 -19 -63 -8 -3 4 9 6 25 5
17 -1 30 1 30 6 0 5 3 9 6 9 3 0 4 -5 2 -12z m52 -3 c0 -1 -6 -7 -13 -13 -10
-8 -13 -6 -13 7 0 11 6 17 13 14 7 -3 13 -6 13 -8z m148 -10 c-3 -3 -9 2 -12
12 -6 14 -5 15 5 6 7 -7 10 -15 7 -18z m61 12 c8 -10 7 -14 -2 -14 -8 0 -14 6
-14 14 0 7 1 13 2 13 2 0 8 -6 14 -13z m111 -2 c0 -1 -6 -7 -13 -13 -10 -8
-13 -6 -13 7 0 11 6 17 13 14 7 -3 13 -6 13 -8z m187 -7 c1 -13 -1 -18 -5 -13
-9 13 -42 13 -62 0 -13 -7 -13 -6 -2 7 7 9 22 15 32 13 11 -2 22 0 25 6 9 13
11 11 12 -13z m160 0 c1 -13 -1 -18 -5 -12 -4 5 -35 9 -69 9 -34 -1 -60 2 -58
5 2 3 29 6 60 5 31 -1 58 2 61 7 8 12 10 10 11 -14z m120 0 c-3 -8 -6 -5 -6 6
-1 11 2 17 5 13 3 -3 4 -12 1 -19z m138 10 c4 4 2 -3 -4 -15 -14 -27 -23 -31
-14 -6 4 10 2 14 -4 10 -5 -3 -10 0 -10 8 0 10 4 12 12 5 7 -5 15 -6 20 -2z
m372 -10 c-3 -8 -6 -5 -6 6 -1 11 2 17 5 13 3 -3 4 -12 1 -19z m-1120 -10 c-3
-8 -6 -5 -6 6 -1 11 2 17 5 13 3 -3 4 -12 1 -19z m590 5 c0 -8 -5 -9 -11 -4
-6 4 -23 7 -38 6 -15 -1 -25 1 -23 4 7 13 72 7 72 -6z m57 1 c3 -8 2 -12 -4
-9 -6 3 -10 10 -10 16 0 14 7 11 14 -7z m340 5 c-2 -4 -17 -5 -34 -4 -16 1
-30 -2 -30 -8 0 -6 -3 -8 -6 -4 -12 12 6 23 40 23 19 0 33 -3 30 -7z m-198
-33 c0 -13 -4 -22 -8 -20 -9 6 -6 44 3 44 4 0 6 -11 5 -24z m77 11 c-4 -6 0
-8 10 -4 10 4 14 2 11 -7 -3 -7 -11 -13 -19 -13 -8 0 -13 3 -10 5 3 3 0 10 -5
17 -7 8 -5 12 5 12 8 0 11 -5 8 -10z m-917 -9 c5 4 6 3 2 -2 -4 -5 -4 -14 2
-20 6 -8 2 -12 -13 -13 -12 0 -16 1 -9 4 10 4 9 10 -5 26 -12 15 -13 18 -2 9
9 -6 20 -8 25 -4z m21 -10 c-3 -8 -6 -5 -6 6 -1 11 2 17 5 13 3 -3 4 -12 1
-19z m59 -13 c2 -39 -4 -41 -11 -5 -4 19 1 40 8 40 1 0 3 -16 3 -35z m228 16
c15 -17 15 -19 1 -25 -10 -3 -14 -2 -10 5 4 5 1 16 -5 24 -18 22 -6 18 14 -4z
m97 -4 c-10 -9 -11 -8 -5 6 3 10 9 15 12 12 3 -3 0 -11 -7 -18z m32 8 c-3 -9
-8 -14 -10 -11 -3 3 -2 9 2 15 9 16 15 13 8 -4z m63 0 c-1 -8 -5 -17 -8 -21
-5 -4 -4 16 1 34 3 9 9 -1 7 -13z m99 -22 c-1 -21 3 -41 9 -45 6 -4 1 -6 -11
-5 -12 0 -19 6 -15 12 4 5 7 22 8 38 2 31 3 37 7 37 2 0 3 -17 2 -37z m-438
20 c-4 -3 -3 -11 3 -17 6 -8 2 -12 -13 -13 -12 0 -17 1 -10 4 7 2 9 11 6 19
-3 8 1 14 8 14 7 0 9 -3 6 -7z m198 -30 c0 -23 -6 -38 -15 -41 -9 -2 -11 0 -5
5 6 4 10 19 10 33 -1 23 3 40 9 40 1 0 2 -17 1 -37z m102 22 c0 -8 -4 -12 -9
-9 -5 3 -6 10 -3 15 9 13 12 11 12 -6z m65 -3 c3 -11 0 -19 -7 -19 -7 0 -10 8
-7 19 2 10 6 18 7 18 1 0 5 -8 7 -18z m178 6 c0 -11 -12 -10 -30 2 -12 7 -10
9 8 7 12 0 22 -5 22 -9z m58 -3 c3 -3 -4 -4 -16 -2 -12 2 -24 6 -28 10 -4 3 4
4 16 2 12 -2 25 -7 28 -10z m271 -3 c7 -14 6 -19 -4 -19 -7 0 -11 7 -7 15 4
11 1 13 -8 7 -9 -5 -11 -4 -6 3 10 16 14 15 25 -6z m131 8 c0 -5 -4 -10 -10
-10 -5 0 -10 5 -10 10 0 6 5 10 10 10 6 0 10 -4 10 -10z m-923 -32 c4 -28 -6
-18 -12 12 -2 12 -1 20 2 16 4 -4 8 -16 10 -28z m-282 4 c-3 -3 -11 0 -18 7
-9 10 -8 11 6 5 10 -3 15 -9 12 -12z m1280 -16 c0 -19 -3 -37 -6 -40 -4 -5 -4
62 0 72 4 10 7 -4 6 -32z m-1445 9 c0 -1 -6 -7 -13 -13 -10 -8 -13 -6 -13 7 0
11 6 17 13 14 7 -3 13 -6 13 -8z m647 9 c-3 -3 -12 -4 -19 -1 -8 3 -5 6 6 6
11 1 17 -2 13 -5z m373 -9 c-7 -8 -17 -15 -23 -15 -6 0 -2 7 9 15 25 19 30 19
14 0z m107 9 c-3 -3 -12 -4 -19 -1 -8 3 -5 6 6 6 11 1 17 -2 13 -5z m192 -30
c-6 -8 -14 -14 -16 -14 -3 0 1 8 8 17 12 14 12 16 -2 11 -9 -4 -16 -1 -16 7 0
11 5 11 19 4 15 -8 17 -13 7 -25z m-1371 5 c2 -9 1 -10 -5 -3 -4 6 -16 10 -26
8 -9 -1 -15 1 -12 6 8 13 38 5 43 -11z m136 12 c-7 -8 -74 -9 -74 -2 0 4 18 7
40 7 21 0 37 -2 34 -5z m43 -11 c-2 -11 -6 -22 -9 -26 -4 -3 -5 2 -3 13 2 10
4 21 4 26 1 4 3 7 6 7 3 0 4 -9 2 -20z m404 7 c-6 -8 -9 -16 -6 -19 3 -3 -3
-11 -12 -19 -16 -13 -17 -12 -4 4 7 9 10 17 6 17 -4 0 -2 7 5 15 7 8 15 15 17
15 3 0 0 -6 -6 -13z m159 -19 c0 -19 -16 -5 -17 14 -2 18 0 20 7 8 5 -8 10
-18 10 -22z m177 18 c0 -8 -8 -11 -21 -8 -19 5 -19 6 0 13 10 4 19 8 20 8 0 1
1 -5 1 -13z m110 -8 c-3 -8 -6 -5 -6 6 -1 11 2 17 5 13 3 -3 4 -12 1 -19z
m193 12 c0 -5 -4 -10 -10 -10 -5 0 -10 5 -10 10 0 6 5 10 10 10 6 0 10 -4 10
-10z m207 -12 c-3 -8 -6 -5 -6 6 -1 11 2 17 5 13 3 -3 4 -12 1 -19z m34 -5
c13 -16 12 -17 -3 -4 -10 7 -18 15 -18 17 0 8 8 3 21 -13z m-1204 1 c-3 -3
-12 -4 -19 -1 -8 3 -5 6 6 6 11 1 17 -2 13 -5z m36 -7 c-4 -7 1 -8 12 -3 18 6
18 6 2 -12 -9 -10 -14 -22 -10 -25 3 -4 1 -7 -6 -7 -8 0 -11 6 -7 16 4 9 2 22
-4 29 -7 8 -5 12 5 12 8 0 11 -5 8 -10z m94 7 c-3 -3 -12 -4 -19 -1 -8 3 -5 6
6 6 11 1 17 -2 13 -5z m66 -7 c-4 -7 1 -8 12 -3 18 6 18 6 2 -12 -9 -10 -14
-22 -10 -25 3 -4 1 -7 -6 -7 -8 0 -11 6 -7 16 4 9 2 22 -4 29 -7 8 -5 12 5 12
8 0 11 -5 8 -10z m94 7 c-3 -3 -12 -4 -19 -1 -8 3 -5 6 6 6 11 1 17 -2 13 -5z
m114 -12 c-6 -12 -7 -23 -1 -31 6 -6 2 -5 -7 3 -13 12 -14 18 -3 30 17 22 23
20 11 -2z m145 -29 c-18 -17 -18 -17 -8 3 7 13 8 25 2 33 -6 6 -2 4 7 -4 16
-14 16 -16 -1 -32z m335 29 c-6 -12 -7 -23 -1 -31 6 -6 2 -5 -7 3 -13 12 -14
18 -3 30 17 22 23 20 11 -2z m126 12 c-3 -3 -12 -4 -19 -1 -8 3 -5 6 6 6 11 1
17 -2 13 -5z m-1291 -30 c1 -9 0 -13 -4 -10 -3 4 -7 14 -8 22 -1 9 0 13 4 10
3 -4 7 -14 8 -22z m1008 18 c20 10 20 10 4 -8 -17 -17 -19 -17 -33 -1 -8 9
-10 13 -4 7 8 -6 20 -5 33 2z m86 4 c0 -2 -7 -7 -16 -10 -8 -3 -12 -2 -9 4 6
10 25 14 25 6z m327 -10 c0 -9 -6 -12 -16 -8 -14 5 -14 4 -1 -14 14 -18 14
-18 -3 -5 -18 14 -18 16 -1 28 22 16 21 16 21 -1z m-1180 -13 c0 -9 -4 -10
-14 -2 -7 6 -13 12 -13 14 0 1 6 2 13 2 8 0 14 -6 14 -14z m160 0 c0 -9 -4
-10 -14 -2 -7 6 -13 12 -13 14 0 1 6 2 13 2 8 0 14 -6 14 -14z m159 -9 c-1
-13 -5 -26 -8 -29 -4 -4 -5 1 -4 12 2 10 0 23 -5 29 -5 6 -4 11 5 11 7 0 12
-10 12 -23z m735 9 c13 -16 12 -17 -3 -4 -10 7 -18 15 -18 17 0 8 8 3 21 -13z
m-54 -8 c0 -8 -4 -15 -9 -15 -10 0 -11 14 -1 23 9 10 10 9 10 -8z m-640 -10
c0 -8 -4 -12 -9 -9 -5 3 -6 10 -3 15 9 13 12 11 12 -6z m45 0 c-4 -5 -7 -34
-7 -64 0 -40 -4 -55 -15 -58 -9 -3 -11 -1 -5 4 13 10 14 116 0 125 -5 4 0 6
12 5 12 0 19 -6 15 -12z m115 -5 c1 -11 -2 -20 -5 -20 -4 0 -8 9 -9 20 -1 11
2 20 5 20 4 0 8 -9 9 -20z m118 -47 c0 -50 -4 -67 -15 -70 -9 -3 -11 -1 -5 4
6 4 10 33 10 63 -1 49 1 70 8 70 2 0 2 -30 2 -67z m243 50 c-6 -7 -12 -13 -13
-13 -2 0 -5 6 -8 13 -3 7 3 13 14 13 13 0 15 -3 7 -13z m243 2 c-4 -5 -7 -27
-6 -47 1 -21 -1 -38 -5 -38 -4 0 -6 19 -5 43 0 23 -4 45 -9 49 -6 4 -1 6 11 5
14 -1 19 -5 14 -12z m198 -2 c-12 -14 -12 -16 2 -11 9 4 16 1 16 -7 0 -9 -6
-11 -16 -6 -19 9 -52 8 -66 -1 -6 -4 -11 2 -11 12 0 10 4 16 8 14 20 -12 48
-11 59 2 6 8 14 14 16 14 3 0 -1 -8 -8 -17z m-1504 -3 c-3 -5 -12 -10 -18 -10
-7 0 -6 4 3 10 19 12 23 12 15 0z m57 -5 c2 3 5 -2 5 -10 0 -10 -4 -12 -12 -5
-7 5 -14 8 -17 5 -2 -3 -5 2 -5 10 0 10 4 12 12 5 7 -5 14 -8 17 -5z m25 -7
c-3 -8 -6 -5 -6 6 -1 11 2 17 5 13 3 -3 4 -12 1 -19z m73 7 c-6 -8 -9 -18 -6
-23 3 -5 -1 -9 -9 -9 -8 0 -11 5 -8 11 10 19 25 36 30 36 3 0 0 -7 -7 -15z
m170 11 c0 -2 -8 -10 -17 -17 -16 -13 -17 -12 -4 4 13 16 21 21 21 13z m596
-15 c0 -11 -5 -17 -13 -14 -10 4 -11 9 -2 19 15 18 15 18 15 -5z m-451 -1 c-3
-5 -12 -10 -18 -10 -7 0 -6 4 3 10 19 12 23 12 15 0z m415 1 c0 -4 -11 -7 -24
-7 -14 0 -23 3 -21 6 5 9 45 10 45 1z m134 0 c-7 -8 -74 -9 -69 -1 2 3 19 6
39 6 19 0 33 -3 30 -5z m240 0 c-7 -8 -74 -9 -69 -1 2 3 19 6 39 6 19 0 33 -3
30 -5z m-991 -14 c3 -7 -3 -13 -14 -13 -13 0 -15 3 -7 13 6 7 12 13 13 13 2 0
5 -6 8 -13z m160 0 c3 -7 -3 -13 -14 -13 -13 0 -15 3 -7 13 6 7 12 13 13 13 2
0 5 -6 8 -13z m127 -1 c0 -2 -8 -10 -17 -17 -16 -13 -17 -12 -4 4 13 16 21 21
21 13z m105 -26 c0 -15 -4 -27 -10 -27 -5 0 -10 12 -10 27 0 15 5 27 10 27 6
0 10 -12 10 -27z m92 24 c-3 -3 -12 -4 -19 -1 -8 3 -5 6 6 6 11 1 17 -2 13 -5z
m38 -4 c3 -6 -1 -7 -9 -4 -18 7 -21 14 -7 14 6 0 13 -4 16 -10z m275 1 c0 -5
-8 -15 -17 -22 -16 -12 -17 -12 -6 2 7 9 10 19 6 22 -3 4 -1 7 5 7 7 0 12 -4
12 -9z m73 -4 c-4 -7 1 -8 13 -3 15 6 17 5 6 -5 -10 -11 -15 -10 -28 2 -13 14
-13 16 0 16 8 0 12 -5 9 -10z m239 -6 c-5 -13 -3 -14 9 -4 12 10 15 8 15 -6 0
-12 -5 -17 -15 -13 -8 3 -12 1 -8 -5 3 -5 -1 -10 -9 -10 -10 0 -11 4 -5 10 6
6 7 17 1 27 -6 12 -5 17 5 17 8 0 11 -7 7 -16z m-1065 3 c-3 -3 -12 -4 -19 -1
-8 3 -5 6 6 6 11 1 17 -2 13 -5z m160 0 c-3 -3 -12 -4 -19 -1 -8 3 -5 6 6 6
11 1 17 -2 13 -5z m209 -14 c0 -12 -4 -16 -9 -11 -5 5 -6 14 -3 20 10 15 12
14 12 -9z m265 -3 c-10 -9 -11 -8 -5 6 3 10 9 15 12 12 3 -3 0 -11 -7 -18z
m246 -9 c-3 -7 -5 -2 -5 12 0 14 2 19 5 13 2 -7 2 -19 0 -25z m29 12 c0 -12
-4 -16 -9 -11 -5 5 -6 14 -3 20 10 15 12 14 12 -9z m-996 0 c0 -5 -2 -10 -4
-10 -3 0 -8 5 -11 10 -3 6 -1 10 4 10 6 0 11 -4 11 -10z m160 1 c0 -6 -4 -12
-8 -15 -5 -3 -9 1 -9 9 0 8 4 15 9 15 4 0 8 -4 8 -9z m355 0 c-9 -8 -36 -10
-30 -2 2 4 11 8 20 8 8 0 13 -3 10 -6z m35 5 c0 -2 -8 -10 -17 -17 -16 -13
-17 -12 -4 4 13 16 21 21 21 13z m147 -13 c0 -10 -3 -10 -16 0 -12 10 -14 9
-9 -4 4 -9 1 -16 -7 -16 -10 0 -11 5 -5 17 11 20 37 22 37 3z m182 -6 c8 -10
7 -14 -4 -14 -8 0 -11 5 -8 10 4 6 -1 8 -11 4 -10 -4 -15 -3 -11 3 8 14 20 12
34 -3z m-842 -12 c0 -8 -4 -12 -9 -9 -5 3 -6 10 -3 15 9 13 12 11 12 -6z m31
-10 c-3 -3 -9 2 -12 12 -6 14 -5 15 5 6 7 -7 10 -15 7 -18z m56 17 c-6 -4 -10
-19 -9 -34 1 -15 -1 -25 -5 -23 -4 2 -6 17 -4 32 3 35 2 33 17 33 8 0 8 -3 1
-8z m113 2 c-3 -3 -12 -4 -19 -1 -8 3 -5 6 6 6 11 1 17 -2 13 -5z m41 -11 c-6
-7 -12 -13 -13 -13 -2 0 -5 6 -8 13 -3 7 3 13 14 13 13 0 15 -3 7 -13z m254
-8 c20 1 35 -2 33 -5 -2 -4 -17 -6 -32 -5 -15 1 -33 -2 -38 -6 -7 -5 -11 0
-12 14 -1 12 1 17 5 11 4 -6 24 -10 44 -9z m181 0 c-3 -9 -8 -14 -10 -11 -3 3
-2 9 2 15 9 16 15 13 8 -4z m104 1 c0 -9 -6 -12 -16 -8 -14 5 -14 4 -1 -14 14
-18 14 -18 -4 -4 -22 17 -57 20 -69 5 -5 -6 -7 -4 -5 5 3 9 18 15 41 15 20 1
40 4 44 8 9 10 10 9 10 -7z m402 0 c9 -10 8 -15 -2 -19 -8 -3 -13 3 -13 14 0
23 0 23 15 5z m78 -1 c0 -8 -5 -11 -10 -8 -7 4 -8 -1 -3 -12 6 -18 6 -18 -12
-2 -10 9 -22 14 -25 10 -4 -3 -7 -1 -7 6 0 8 7 10 19 6 11 -3 22 -1 26 5 9 14
12 13 12 -5z m-1067 1 c0 -2 -8 -10 -17 -17 -16 -13 -17 -12 -4 4 13 16 21 21
21 13z m804 -7 c3 -3 -10 -5 -29 -4 -18 0 -36 3 -39 6 -3 3 10 5 29 4 18 0 36
-3 39 -6z m44 -12 c8 -10 6 -13 -7 -13 -11 0 -17 6 -14 13 3 7 6 13 8 13 1 0
7 -6 13 -13z m-802 -13 c-4 -9 -1 -24 6 -33 12 -14 11 -14 -4 -3 -9 8 -23 10
-30 6 -7 -4 -5 2 5 13 9 11 14 23 10 26 -3 4 -1 7 6 7 8 0 11 -6 7 -16z m125
-2 c-6 -12 -7 -23 -1 -31 6 -6 2 -5 -7 3 -13 12 -14 18 -3 30 17 22 23 20 11
-2z m242 1 c-4 -10 -2 -14 4 -10 5 3 10 0 10 -7 0 -11 -4 -12 -18 -3 -13 8
-15 15 -7 24 14 18 19 16 11 -4z m270 0 c-3 -7 -6 -13 -8 -13 -2 0 -5 6 -8 13
-3 8 1 14 8 14 7 0 11 -6 8 -14z m206 0 c-12 -14 -12 -16 2 -11 9 4 16 1 16
-7 0 -11 -5 -11 -19 -4 -15 8 -17 13 -7 25 6 8 14 14 16 14 3 0 -1 -8 -8 -17z
m-924 -2 c3 -5 2 -12 -3 -15 -5 -3 -9 1 -9 9 0 17 3 19 12 6z m560 -28 c-1
-21 4 -42 9 -46 7 -5 5 -7 -4 -4 -14 3 -23 59 -13 80 8 14 9 7 8 -30z m265 33
c0 -2 -8 -10 -17 -17 -16 -13 -17 -12 -4 4 13 16 21 21 21 13z m-415 -16 c-3
-5 -12 -10 -18 -10 -7 0 -6 4 3 10 19 12 23 12 15 0z m351 -21 c1 -19 -1 -26
-6 -19 -4 7 -6 20 -5 29 7 32 10 29 11 -10z m280 -5 c0 -13 -2 -22 -5 -19 -3
3 -6 17 -7 31 0 13 2 22 5 19 3 -3 6 -17 7 -31z m-713 13 c3 -8 -1 -14 -8 -14
-7 0 -11 6 -8 14 3 7 6 13 8 13 2 0 5 -6 8 -13z m277 9 c0 -2 -8 -10 -17 -17
-16 -13 -17 -12 -4 4 13 16 21 21 21 13z m-595 -16 c-3 -5 -12 -10 -18 -10 -7
0 -6 4 3 10 19 12 23 12 15 0z m150 -34 c1 -20 -1 -39 -5 -41 -3 -2 -6 13 -5
33 1 20 -4 41 -9 45 -7 5 -6 7 4 5 9 -3 15 -18 15 -42z m121 8 c3 -16 2 -26
-1 -23 -3 4 -8 19 -11 35 -3 16 -2 26 1 23 3 -4 8 -19 11 -35z m159 18 c-3 -3
-11 0 -18 7 -9 10 -8 11 6 5 10 -3 15 -9 12 -12z m209 10 c-6 -4 -10 -19 -9
-34 1 -15 -1 -25 -5 -23 -4 2 -6 17 -4 32 3 35 2 33 17 33 8 0 8 -3 1 -8z
m265 -6 c10 -12 8 -17 -7 -25 -14 -7 -19 -7 -19 4 0 8 7 11 16 7 14 -5 14 -3
2 11 -7 9 -11 17 -8 17 2 0 10 -6 16 -14z m214 -3 c-4 -10 -9 -11 -19 -2 -18
15 -18 15 5 15 11 0 17 -5 14 -13z m-613 -8 c0 -2 -6 -5 -13 -8 -8 -3 -14 1
-14 8 0 7 6 11 14 8 7 -3 13 -6 13 -8z m297 9 c-3 -3 -12 -4 -19 -1 -8 3 -5 6
6 6 11 1 17 -2 13 -5z m160 -16 c-3 -8 -6 -5 -6 6 -1 11 2 17 5 13 3 -3 4 -12
1 -19z m-560 -10 c-3 -8 -6 -5 -6 6 -1 11 2 17 5 13 3 -3 4 -12 1 -19z m331 2
c2 -10 1 -11 -5 -4 -4 6 -21 10 -36 9 -15 -1 -30 1 -32 5 -2 3 12 6 32 5 23 0
38 -6 41 -15z m-608 -6 c0 0 -10 -9 -22 -20 -16 -13 -19 -14 -10 -2 10 13 10
17 0 21 -7 3 -3 4 10 4 12 -1 22 -2 22 -3z m103 -11 c-3 -7 -6 -13 -8 -13 -2
0 -5 6 -8 13 -3 8 1 14 8 14 7 0 11 -6 8 -14z m120 4 c-4 -7 1 -8 12 -3 15 5
16 4 5 -9 -7 -9 -13 -14 -14 -13 -1 2 -7 10 -14 19 -9 13 -9 16 3 16 8 0 11
-5 8 -10z m476 -9 c-5 -10 -11 -18 -12 -18 -2 0 -3 8 -3 18 0 10 6 19 13 19 8
0 9 -6 2 -19z m288 15 c-4 -3 1 -15 10 -26 10 -11 12 -17 5 -13 -7 4 -21 2
-30 -6 -15 -11 -16 -11 -4 3 7 9 10 24 6 33 -4 10 -1 16 7 16 7 0 9 -3 6 -7z
m-861 -23 c0 -12 -4 -16 -9 -11 -5 5 -6 14 -3 20 10 15 12 14 12 -9z m78 -6
c3 -8 2 -12 -4 -9 -6 3 -10 10 -10 16 0 14 7 11 14 -7z m80 0 c3 -8 2 -12 -4
-9 -6 3 -10 10 -10 16 0 14 7 11 14 -7z m141 -2 c-3 -3 -11 0 -18 7 -9 10 -8
11 6 5 10 -3 15 -9 12 -12z m141 6 c5 -7 3 -8 -6 -3 -9 6 -12 4 -8 -7 4 -8 0
-15 -7 -15 -10 0 -11 5 -4 19 11 21 15 22 25 6z m101 -3 c0 -8 -4 -12 -9 -9
-5 3 -6 10 -3 15 9 13 12 11 12 -6z m197 3 c-2 -4 -14 -5 -26 -3 -32 7 -32 13
1 11 16 0 27 -4 25 -8z m41 -6 c-3 -3 -11 0 -18 7 -9 10 -8 11 6 5 10 -3 15
-9 12 -12z m-160 -20 c-1 -9 1 -22 6 -27 5 -7 1 -11 -11 -11 -13 0 -16 4 -11
16 5 8 7 23 6 33 -2 9 0 15 5 12 5 -3 7 -13 5 -23z m-400 -25 c1 -20 -2 -34
-5 -32 -4 2 -6 17 -5 32 1 15 -3 32 -9 36 -7 6 -6 7 4 5 9 -3 15 -18 15 -41z
m480 -2 c1 -19 -1 -32 -4 -29 -3 3 -6 21 -6 39 -1 19 1 32 4 29 3 -3 6 -21 6
-39z m-782 14 c-8 -8 -13 -7 -18 2 -5 8 -4 10 3 5 7 -4 12 -2 12 5 0 7 3 9 7
6 4 -4 2 -12 -4 -18z m144 15 c-3 -3 -12 -4 -19 -1 -8 3 -5 6 6 6 11 1 17 -2
13 -5z m36 -9 c-3 -9 -8 -14 -10 -11 -3 3 -2 9 2 15 9 16 15 13 8 -4z m264 1
c0 -8 -6 -12 -15 -9 -11 5 -11 7 0 14 7 5 13 9 14 9 0 0 1 -6 1 -14z m-353 -7
c3 -2 -10 -5 -29 -5 -18 0 -32 3 -30 7 5 7 52 6 59 -2z m181 0 c3 -3 -13 -5
-35 -4 -22 1 -40 -3 -40 -8 0 -6 -3 -8 -6 -4 -3 3 -4 10 -1 15 6 9 72 10 82 1z
m92 -11 c-3 -8 -6 -5 -6 6 -1 11 2 17 5 13 3 -3 4 -12 1 -19z m217 6 c3 -8 2
-12 -4 -9 -6 3 -10 10 -10 16 0 14 7 11 14 -7z m80 5 c3 -3 -10 -5 -29 -4 -18
0 -36 3 -39 6 -3 3 10 5 29 4 18 0 36 -3 39 -6z m183 -11 c-3 -8 -6 -5 -6 6
-1 11 2 17 5 13 3 -3 4 -12 1 -19z m-17 8 c0 -2 -8 -10 -17 -17 -16 -13 -17
-12 -4 4 13 16 21 21 21 13z m-717 -23 c-4 -10 -2 -14 4 -10 5 3 10 -1 10 -9
0 -13 -2 -13 -15 0 -8 8 -11 19 -8 25 11 17 16 13 9 -6z m322 7 c3 -6 -1 -7
-9 -4 -18 7 -21 14 -7 14 6 0 13 -4 16 -10z m108 -7 c-3 -7 -6 -13 -8 -13 -2
0 -5 6 -8 13 -3 8 1 14 8 14 7 0 11 -6 8 -14z m367 2 c-5 -7 -8 -14 -5 -17 3
-3 -3 -11 -12 -19 -17 -13 -17 -13 -3 5 13 18 13 19 -1 14 -9 -4 -16 -1 -16 7
0 8 7 11 15 7 9 -3 13 -1 9 5 -3 5 0 10 8 10 10 0 12 -4 5 -12z m-843 -10 c0
-8 -4 -15 -9 -15 -10 0 -11 14 -1 23 9 10 10 9 10 -8z m158 -22 c-1 -21 3 -41
9 -45 6 -4 1 -6 -11 -5 -12 0 -19 6 -15 12 4 5 7 22 8 38 2 31 3 37 7 37 2 0
3 -17 2 -37z m194 1 c-6 -8 -14 -14 -16 -14 -3 0 1 8 8 17 12 14 12 16 -2 11
-9 -4 -16 -1 -16 7 0 11 5 11 19 4 15 -8 17 -13 7 -25z m231 32 c0 -2 -8 -10
-17 -17 -16 -13 -17 -12 -4 4 13 16 21 21 21 13z m355 -5 c3 -5 2 -12 -3 -15
-5 -3 -9 1 -9 9 0 17 3 19 12 6z m-78 -23 c-3 -8 -6 -5 -6 6 -1 11 2 17 5 13
3 -3 4 -12 1 -19z m-823 -6 c3 -5 -1 -9 -9 -9 -8 0 -12 4 -9 9 3 4 7 8 9 8 2
0 6 -4 9 -8z m370 0 c-6 -4 -10 -19 -9 -34 1 -15 -2 -25 -6 -23 -4 3 -6 13 -4
23 1 9 -1 22 -6 27 -5 7 0 11 14 12 12 1 17 -1 11 -5z m300 -17 c12 -1 24 4
28 10 4 5 6 0 5 -12 0 -12 -6 -19 -12 -15 -14 9 -47 10 -66 1 -10 -5 -16 -3
-16 6 0 8 7 11 16 7 14 -5 14 -4 1 14 -14 18 -14 18 4 4 11 -8 29 -15 40 -15z
m-594 0 c0 -2 -6 -5 -13 -8 -8 -3 -14 1 -14 8 0 7 6 11 14 8 7 -3 13 -6 13 -8z
m147 -4 c-1 -12 -5 -17 -12 -12 -5 4 -22 7 -37 6 -15 -1 -25 1 -23 5 3 4 18 6
35 5 16 -1 30 1 30 6 0 5 2 9 4 9 3 0 4 -9 3 -19z m261 -6 c-3 -3 -9 2 -12 12
-6 14 -5 15 5 6 7 -7 10 -15 7 -18z m49 19 c-3 -3 -12 -4 -19 -1 -8 3 -5 6 6
6 11 1 17 -2 13 -5z m-69 -24 c2 -10 1 -11 -5 -4 -4 6 -21 10 -36 9 -15 -1
-30 1 -32 5 -2 3 12 6 32 5 23 0 38 -6 41 -15z m353 -3 c-10 -9 -11 -8 -5 6 3
10 9 15 12 12 3 -3 0 -11 -7 -18z m-528 -14 c-3 -7 -6 -13 -8 -13 -2 0 -5 6
-8 13 -3 8 1 14 8 14 7 0 11 -6 8 -14z m266 -5 c-5 -10 -11 -18 -12 -18 -2 0
-3 8 -3 18 0 10 6 19 13 19 8 0 9 -6 2 -19z m214 5 c-3 -7 -6 -13 -8 -13 -2 0
-5 6 -8 13 -3 8 1 14 8 14 7 0 11 -6 8 -14z m-347 -15 c5 -7 3 -8 -6 -3 -9 6
-12 4 -8 -7 4 -8 0 -15 -7 -15 -10 0 -11 5 -4 19 11 21 15 22 25 6z m101 -3
c0 -8 -4 -12 -9 -9 -5 3 -6 10 -3 15 9 13 12 11 12 -6z m383 9 c0 -8 -19 -13
-24 -6 -3 5 1 9 9 9 8 0 15 -2 15 -3z m-707 -17 c3 -8 -1 -14 -8 -14 -7 0 -11
6 -8 14 3 7 6 13 8 13 2 0 5 -6 8 -13z m402 -15 c-1 -9 1 -22 6 -27 5 -7 0
-11 -14 -12 -12 -1 -17 1 -11 5 6 4 10 19 9 34 -1 15 2 25 6 23 4 -3 6 -13 4
-23z m78 15 c3 -8 -1 -14 -8 -14 -7 0 -11 6 -8 14 3 7 6 13 8 13 2 0 5 -6 8
-13z m-588 -7 c-4 -6 -1 -19 6 -28 12 -16 12 -16 -5 0 -16 14 -15 38 0 38 3 0
2 -5 -1 -10z m758 -7 c-4 -10 -9 -11 -19 -2 -18 15 -18 15 5 15 11 0 17 -5 14
-13z m-558 -9 c11 0 27 3 36 7 10 5 16 3 16 -6 0 -8 -7 -11 -16 -7 -14 5 -14
4 -1 -14 14 -18 14 -18 -4 -4 -22 17 -58 20 -68 5 -4 -5 -6 0 -5 12 0 12 6 19
12 15 5 -4 19 -7 30 -8z m238 1 c15 1 30 -1 32 -5 2 -3 -12 -6 -32 -5 -23 0
-38 6 -41 15 -2 10 -1 11 5 4 4 -6 21 -10 36 -9z m239 0 c10 2 20 0 23 -4 2
-4 -8 -7 -23 -6 -15 1 -30 -3 -34 -9 -4 -6 -6 -1 -5 11 1 14 5 19 12 14 5 -5
18 -7 27 -6z m-288 -11 c3 -8 2 -12 -4 -9 -6 3 -10 10 -10 16 0 14 7 11 14 -7z
m-400 -12 c3 -5 -1 -9 -9 -9 -8 0 -12 4 -9 9 3 4 7 8 9 8 2 0 6 -4 9 -8z m96
2 c0 -8 -19 -13 -24 -6 -3 5 1 9 9 9 8 0 15 -2 15 -3z m267 0 c-3 -3 -12 -4
-19 -1 -8 3 -5 6 6 6 11 1 17 -2 13 -5z m202 -11 c-12 -14 -12 -16 2 -11 9 4
16 1 16 -7 0 -11 -5 -11 -19 -4 -15 8 -17 13 -7 25 6 8 14 14 16 14 3 0 -1 -8
-8 -17z m198 10 c-4 -3 1 -15 10 -25 16 -18 16 -18 -2 -12 -11 5 -16 4 -12 -3
3 -5 0 -10 -8 -10 -10 0 -12 4 -5 12 6 7 8 20 4 29 -4 10 -1 16 7 16 7 0 9 -3
6 -7z m-720 -18 c0 -8 -4 -12 -9 -9 -5 3 -6 10 -3 15 9 13 12 11 12 -6z m60
-11 c0 -6 -9 -9 -19 -6 -27 7 -29 17 -4 17 13 0 23 -5 23 -11z m98 -29 c1 -19
-1 -32 -4 -29 -3 3 -6 21 -6 39 -1 19 1 32 4 29 3 -3 6 -21 6 -39z m155 41 c0
-2 -8 -10 -17 -17 -16 -13 -17 -12 -4 4 13 16 21 21 21 13z m325 -33 c-1 -15
3 -32 9 -36 7 -6 6 -7 -4 -5 -9 3 -15 18 -15 41 -1 20 2 34 5 32 4 -2 6 -17 5
-32z m-640 -1 c-3 -3 -11 0 -18 7 -9 10 -8 11 6 5 10 -3 15 -9 12 -12z m135
14 c0 -2 -8 -10 -17 -17 -16 -13 -17 -12 -4 4 13 16 21 21 21 13z m114 -4 c-6
-4 -10 -19 -9 -34 1 -15 -2 -25 -6 -23 -4 3 -6 13 -4 23 1 9 -1 22 -6 27 -5 7
0 11 14 12 12 1 17 -1 11 -5z m271 -10 c-3 -3 -11 0 -18 7 -9 10 -8 11 6 5 10
-3 15 -9 12 -12z m95 14 c0 -2 -8 -10 -17 -17 -16 -13 -17 -12 -4 4 13 16 21
21 21 13z m-573 -12 c-3 -3 -12 -4 -19 -1 -8 3 -5 6 6 6 11 1 17 -2 13 -5z
m50 -16 c-3 -8 -6 -5 -6 6 -1 11 2 17 5 13 3 -3 4 -12 1 -19z m271 -3 c-3 -3
-9 2 -12 12 -6 14 -5 15 5 6 7 -7 10 -15 7 -18z m49 19 c-3 -3 -12 -4 -19 -1
-8 3 -5 6 6 6 11 1 17 -2 13 -5z m160 -16 c-3 -8 -6 -5 -6 6 -1 11 2 17 5 13
3 -3 4 -12 1 -19z m-233 1 c3 -3 -10 -5 -29 -4 -18 0 -36 3 -39 6 -3 3 10 5
29 4 18 0 36 -3 39 -6z m176 -4 c0 -2 -6 -5 -13 -8 -8 -3 -14 1 -14 8 0 7 6
11 14 8 7 -3 13 -6 13 -8z m-81 -27 c-11 -21 -15 -22 -25 -6 -5 7 -3 8 6 3 9
-6 12 -4 8 7 -4 8 0 15 7 15 10 0 11 -5 4 -19z m256 12 c-3 -5 -12 -10 -18
-10 -7 0 -6 4 3 10 19 12 23 12 15 0z m-370 -9 c3 -5 2 -12 -3 -15 -5 -3 -9 1
-9 9 0 17 3 19 12 6z m-230 -11 c3 -6 -1 -7 -9 -4 -18 7 -21 14 -7 14 6 0 13
-4 16 -10z m72 -4 c2 -2 -9 -3 -26 -2 -16 0 -27 4 -25 8 4 7 43 3 51 -6z m129
-4 c0 -10 -6 -19 -13 -19 -8 0 -9 6 -2 19 5 10 11 18 12 18 2 0 3 -8 3 -18z
m279 8 c3 -6 -1 -7 -9 -4 -18 7 -21 14 -7 14 6 0 13 -4 16 -10z m132 -12 c-3
-8 -6 -5 -6 6 -1 11 2 17 5 13 3 -3 4 -12 1 -19z m-222 -24 c0 -15 -7 -29 -15
-32 -10 -2 -11 -1 -4 5 6 4 10 20 9 35 -1 15 1 25 5 23 4 -2 6 -17 5 -31z
m-428 20 c-3 -3 -12 -4 -19 -1 -8 3 -5 6 6 6 11 1 17 -2 13 -5z m28 -34 c-4
-46 -12 -46 -11 -1 0 22 4 37 7 35 4 -2 5 -17 4 -34z m480 -4 c1 -20 -1 -39
-5 -41 -3 -2 -6 13 -5 33 1 20 -4 41 -9 45 -7 5 -6 7 4 5 9 -3 15 -18 15 -42z
m-338 20 c0 -9 -6 -12 -16 -8 -14 5 -14 4 -1 -14 14 -18 14 -18 -3 -5 -18 14
-18 16 -1 28 22 16 21 16 21 -1z m186 -1 c15 1 30 -1 32 -5 2 -3 -12 -6 -32
-5 -23 0 -38 6 -41 15 -2 10 -1 11 5 4 4 -6 21 -10 36 -9z m-357 -7 c3 -4 -1
-5 -10 -4 -8 1 -18 5 -22 8 -3 4 1 5 10 4 8 -1 18 -5 22 -8z m91 -10 c-3 -8
-6 -5 -6 6 -1 11 2 17 5 13 3 -3 4 -12 1 -19z m217 6 c3 -8 2 -12 -4 -9 -6 3
-10 10 -10 16 0 14 7 11 14 -7z m263 2 c0 -8 -6 -12 -15 -9 -11 5 -11 7 0 14
7 5 13 9 14 9 0 0 1 -6 1 -14z m74 -9 c-10 -9 -11 -8 -5 6 3 10 9 15 12 12 3
-3 0 -11 -7 -18z m-374 -3 c-3 -3 -12 -4 -19 -1 -8 3 -5 6 6 6 11 1 17 -2 13
-5z m-128 -40 c-6 -8 -14 -14 -16 -14 -3 0 1 8 8 17 12 14 12 16 -2 11 -9 -4
-16 -1 -16 7 0 11 5 11 19 4 15 -8 17 -13 7 -25z m491 21 c17 10 11 -1 -10
-20 -20 -18 -21 -18 -14 0 5 11 4 16 -3 12 -5 -3 -10 0 -10 8 0 11 4 12 13 4
7 -6 18 -8 24 -4z m-370 1 c0 -2 -8 -10 -17 -17 -16 -13 -17 -12 -4 4 13 16
21 21 21 13z m415 -6 c3 -6 -1 -7 -9 -4 -18 7 -21 14 -7 14 6 0 13 -4 16 -10z
m-322 -13 c3 -8 -1 -14 -8 -14 -7 0 -11 6 -8 14 3 7 6 13 8 13 2 0 5 -6 8 -13z
m-318 -7 c-3 -5 -12 -10 -18 -10 -7 0 -6 4 3 10 19 12 23 12 15 0z m35 3 c0
-5 -5 -15 -10 -23 -7 -12 -9 -10 -7 8 1 19 17 33 17 15z m123 -10 c-4 -10 -9
-11 -19 -2 -18 15 -18 15 5 15 11 0 17 -5 14 -13z m301 -8 c12 -1 25 4 29 10
5 6 7 4 5 -5 -3 -9 -18 -15 -39 -15 -19 -1 -40 -4 -45 -8 -6 -3 -11 0 -11 7 0
9 7 12 16 8 14 -5 14 -4 1 14 -14 18 -14 18 4 4 11 -8 29 -15 40 -15z m-210
-6 c3 -3 -10 -5 -29 -4 -18 0 -36 3 -39 6 -3 3 10 5 29 4 18 0 36 -3 39 -6z
m-171 -26 c-3 -7 -6 -13 -8 -13 -2 0 -5 6 -8 13 -3 8 1 14 8 14 7 0 11 -6 8
-14z m74 2 c0 -8 -4 -12 -9 -9 -4 3 -8 9 -8 15 0 5 4 9 8 9 5 0 9 -7 9 -15z
m192 -7 c-6 -10 -15 -15 -21 -12 -7 5 -9 2 -6 -8 4 -8 0 -15 -7 -15 -10 0 -11
5 -4 19 6 10 15 15 21 12 7 -5 9 -2 6 8 -4 8 0 15 7 15 10 0 11 -5 4 -19z
m211 2 c-5 -10 -6 -21 -2 -26 4 -5 0 -3 -9 4 -9 6 -18 10 -21 7 -2 -3 -5 2 -5
10 0 12 3 12 16 2 12 -10 14 -9 9 4 -4 9 -1 16 7 16 10 0 11 -5 5 -17z m-157
-12 c-11 -18 -10 -52 2 -60 5 -4 0 -6 -12 -5 -12 0 -19 6 -15 12 4 5 7 17 7
25 0 16 13 40 21 40 3 0 2 -6 -3 -12z m100 -3 c-3 -9 -8 -14 -10 -11 -3 3 -2
9 2 15 9 16 15 13 8 -4z m-304 -8 c8 -10 7 -14 -4 -14 -8 0 -11 5 -8 10 4 6
-1 8 -11 4 -10 -4 -15 -3 -11 3 8 14 20 12 34 -3z m392 -20 c-14 -18 -63 -15
-69 3 -2 9 0 11 5 5 11 -15 55 -13 61 3 2 7 7 11 9 8 3 -3 1 -12 -6 -19z
m-454 -9 c-3 -8 -6 -5 -6 6 -1 11 2 17 5 13 3 -3 4 -12 1 -19z m-22 3 c-3 -2
1 -11 8 -20 11 -14 10 -15 -7 -1 -21 17 -66 22 -66 7 0 -6 -3 -8 -6 -4 -12 12
6 23 40 23 19 0 33 -2 31 -5z m379 0 c-7 -8 -74 -9 -69 -1 2 3 19 6 39 6 19 0
33 -3 30 -5z m-216 -26 c-3 -3 -9 2 -12 12 -6 14 -5 15 5 6 7 -7 10 -15 7 -18z
m-45 -2 c-3 -7 -6 -13 -8 -13 -2 0 -5 6 -8 13 -3 8 1 14 8 14 7 0 11 -6 8 -14z
m113 -30 c-18 -17 -18 -17 -8 3 7 13 8 25 2 33 -6 6 -2 4 7 -4 16 -14 16 -16
-1 -32z m-269 23 c0 -15 -21 -16 -34 -1 -4 4 -3 5 4 1 6 -3 14 -2 18 4 8 14
12 13 12 -4z m381 -11 c-3 -3 -9 2 -12 12 -6 14 -5 15 5 6 7 -7 10 -15 7 -18z
m-298 11 c0 -2 -7 -7 -16 -10 -8 -3 -12 -2 -9 4 6 10 25 14 25 6z m371 -13
c11 -15 11 -16 -1 -6 -10 9 -18 9 -34 1 -19 -10 -20 -10 -7 5 17 21 25 21 42
0z m-411 3 c0 -2 -8 -10 -17 -17 -16 -13 -17 -12 -4 4 13 16 21 21 21 13z
m315 -6 c-3 -5 -12 -10 -18 -10 -7 0 -6 4 3 10 19 12 23 12 15 0z m-271 -8
c-6 -4 -10 -19 -9 -34 1 -15 -1 -25 -5 -23 -4 2 -6 17 -4 32 3 35 2 33 17 33
8 0 8 -3 1 -8z m231 -54 c0 -35 4 -66 9 -70 6 -4 1 -6 -11 -5 -12 0 -19 6 -15
12 4 5 7 33 8 60 2 56 3 65 7 65 2 0 3 -28 2 -62z m-138 30 c1 -13 -1 -18 -5
-12 -4 6 -24 10 -44 9 -20 -1 -35 2 -33 6 3 3 18 5 35 4 17 -1 33 1 36 6 8 13
10 11 11 -13z m200 0 c-3 -8 -6 -5 -6 6 -1 11 2 17 5 13 3 -3 4 -12 1 -19z
m-17 8 c0 -2 -7 -7 -16 -10 -8 -3 -12 -2 -9 4 6 10 25 14 25 6z m91 -19 c-10
-9 -11 -8 -5 6 3 10 9 15 12 12 3 -3 0 -11 -7 -18z m-456 3 c-3 -5 -1 -10 6
-10 7 0 10 -3 6 -6 -9 -9 -28 6 -22 17 4 5 8 9 11 9 3 0 2 -4 -1 -10z m252 -6
c-3 -3 -12 -4 -19 -1 -8 3 -5 6 6 6 11 1 17 -2 13 -5z m38 -4 c3 -6 -1 -7 -9
-4 -18 7 -21 14 -7 14 6 0 13 -4 16 -10z m79 2 c3 -5 -1 -9 -9 -9 -8 0 -12 4
-9 9 3 4 7 8 9 8 2 0 6 -4 9 -8z m-227 -17 c0 -8 -4 -12 -9 -9 -5 3 -6 10 -3
15 9 13 12 11 12 -6z m77 -15 c-6 -6 -10 -3 -10 10 0 13 4 16 10 10 7 -7 7
-13 0 -20z m28 2 c3 -11 0 -19 -7 -19 -7 0 -10 8 -7 19 2 10 6 18 7 18 1 0 5
-8 7 -18z m-123 -5 c8 -10 7 -14 -4 -14 -8 0 -11 5 -8 10 4 6 -1 8 -11 4 -10
-4 -15 -3 -11 3 8 14 20 12 34 -3z m-106 -22 c-3 -9 -8 -14 -10 -11 -3 3 -2 9
2 15 9 16 15 13 8 -4z m44 1 c0 -9 -6 -12 -16 -8 -14 5 -14 4 -1 -14 14 -18
14 -18 -3 -5 -18 14 -18 16 -1 28 22 16 21 16 21 -1z m141 -31 c-3 -3 -9 2
-12 12 -6 14 -5 15 5 6 7 -7 10 -15 7 -18z m-45 -2 c-3 -7 -6 -13 -8 -13 -2 0
-5 6 -8 13 -3 8 1 14 8 14 7 0 11 -6 8 -14z m120 -20 c-5 -12 -3 -14 8 -8 8 5
11 4 6 0 -4 -5 -14 -10 -22 -11 -11 -2 -12 2 -5 15 6 12 5 22 -3 31 -10 12 -9
12 5 1 10 -7 14 -19 11 -28z m90 2 c-3 -9 -8 -14 -10 -11 -3 3 -2 9 2 15 9 16
15 13 8 -4z m-166 -27 c4 -28 -6 -18 -12 12 -2 12 -1 20 2 16 4 -4 8 -16 10
-28z m-113 14 c-6 -4 -10 -23 -8 -42 2 -19 -1 -29 -5 -22 -4 7 -7 25 -5 40 3
34 2 32 17 32 8 0 9 -3 1 -8z m94 -32 c2 -10 0 -11 -5 -4 -4 5 -25 10 -45 9
-20 -1 -35 2 -33 5 8 13 79 4 83 -10z m114 -12 c-8 -8 -9 -4 -5 13 4 13 8 18
11 10 2 -7 -1 -18 -6 -23z m-45 6 c-3 -3 -12 -4 -19 -1 -8 3 -5 6 6 6 11 1 17
-2 13 -5z m-11 -30 c-1 -8 -6 -17 -11 -21 -4 -5 -5 -2 0 6 6 11 4 13 -8 8 -10
-4 -14 -2 -11 7 6 17 32 16 30 0z m-127 -43 c7 -13 6 -18 -4 -18 -7 0 -11 7
-7 15 3 9 1 13 -5 9 -5 -3 -10 0 -10 8 0 17 14 10 26 -14z m67 10 c0 -15 -4
-17 -22 -11 -12 5 -25 6 -28 3 -3 -4 -6 -1 -6 6 0 8 7 10 19 6 11 -3 22 -1 26
5 9 14 11 13 11 -9z"/>
</g>
</svg>
